<ttFont>
    <TTGlyph name="A" xMin="63" yMin="0" xMax="696" yMax="736">
      <contour>
        <pt x="696" y="0" on="1"/>
        <pt x="572" y="0" on="1"/>
        <pt x="381" y="552" on="1"/>
        <pt x="188" y="0" on="1"/>
        <pt x="63" y="0" on="1"/>
        <pt x="321" y="736" on="1"/>
        <pt x="440" y="736" on="1"/>
      </contour>
      <contour>
        <pt x="447" y="234" on="1"/>
        <pt x="476" y="153" on="1"/>
        <pt x="285" y="153" on="1"/>
        <pt x="313" y="234" on="1"/>
      </contour>
    </TTGlyph>
    <TTGlyph name="Aacute" xMin="63" yMin="0" xMax="696" yMax="950">
      <component glyphName="A" x="0" y="0" flags="0x1204"/>
      <component glyphName="acute" x="261" y="173" flags="0x1004"/>
    </TTGlyph>
    <TTGlyph name="Acircumflex" xMin="63" yMin="0" xMax="696" yMax="950">
      <component glyphName="A" x="0" y="0" flags="0x1204"/>
      <component glyphName="circumflex" x="202" y="173" flags="0x1004"/>
    </TTGlyph>
    <TTGlyph name="Adieresis" xMin="63" yMin="0" xMax="696" yMax="955">
      <component glyphName="A" x="0" y="0" flags="0x1204"/>
      <component glyphName="dieresis" x="152" y="173" flags="0x1004"/>
    </TTGlyph>
    <TTGlyph name="Agrave" xMin="63" yMin="0" xMax="696" yMax="950">
      <component glyphName="A" x="0" y="0" flags="0x1204"/>
      <component glyphName="grave" x="261" y="173" flags="0x1004"/>
    </TTGlyph>
    <TTGlyph name="Aring" xMin="63" yMin="0" xMax="696" yMax="1055">
      <component glyphName="A" x="0" y="0" flags="0x1204"/>
      <component glyphName="ring" x="184" y="173" flags="0x1004"/>
    </TTGlyph>
    <TTGlyph name="Atilde" xMin="63" yMin="0" xMax="696" yMax="943">
      <component glyphName="A" x="0" y="0" flags="0x1204"/>
      <component glyphName="tilde" x="173" y="173" flags="0x1004"/>
    </TTGlyph>
    <TTGlyph name="B" xMin="96" yMin="0" xMax="594" yMax="737">
      <contour>
        <pt x="444" y="388" on="1"/>
        <pt x="467" y="385" on="0"/>
        <pt x="519" y="361" on="0"/>
        <pt x="564" y="317" on="0"/>
        <pt x="594" y="254" on="0"/>
        <pt x="594" y="213" on="1"/>
        <pt x="594" y="163" on="0"/>
        <pt x="564" y="91" on="0"/>
        <pt x="519" y="44" on="0"/>
        <pt x="466" y="17" on="0"/>
        <pt x="417" y="3" on="0"/>
        <pt x="379" y="0" on="0"/>
        <pt x="373" y="0" on="1"/>
        <pt x="257" y="0" on="1"/>
        <pt x="257" y="88" on="1"/>
        <pt x="366" y="88" on="1"/>
        <pt x="419" y="88" on="0"/>
        <pt x="479" y="156" on="0"/>
        <pt x="479" y="213" on="1"/>
        <pt x="479" y="267" on="0"/>
        <pt x="417" y="341" on="0"/>
        <pt x="357" y="341" on="1"/>
        <pt x="257" y="341" on="1"/>
        <pt x="257" y="422" on="1"/>
        <pt x="305" y="422" on="1"/>
        <pt x="327" y="422" on="0"/>
        <pt x="373" y="424" on="0"/>
        <pt x="413" y="444" on="0"/>
        <pt x="438" y="492" on="0"/>
        <pt x="438" y="537" on="1"/>
        <pt x="438" y="555" on="0"/>
        <pt x="428" y="594" on="0"/>
        <pt x="398" y="626" on="0"/>
        <pt x="342" y="646" on="0"/>
        <pt x="296" y="646" on="1"/>
        <pt x="257" y="646" on="1"/>
        <pt x="257" y="737" on="1"/>
        <pt x="308" y="737" on="1"/>
        <pt x="355" y="737" on="0"/>
        <pt x="443" y="715" on="0"/>
        <pt x="511" y="667" on="0"/>
        <pt x="551" y="590" on="0"/>
        <pt x="551" y="537" on="1"/>
        <pt x="551" y="506" on="0"/>
        <pt x="531" y="455" on="0"/>
        <pt x="501" y="417" on="0"/>
        <pt x="462" y="392" on="0"/>
      </contour>
      <contour>
        <pt x="96" y="737" on="1"/>
        <pt x="216" y="737" on="1"/>
        <pt x="216" y="0" on="1"/>
        <pt x="96" y="0" on="1"/>
      </contour>
    </TTGlyph>
    <TTGlyph name="C" xMin="79" yMin="-5" xMax="591" yMax="748">
      <contour>
        <pt x="508" y="595" on="1"/>
        <pt x="485" y="621" on="0"/>
        <pt x="433" y="647" on="0"/>
        <pt x="403" y="649" on="1"/>
        <pt x="403" y="748" on="1"/>
        <pt x="515" y="743" on="0"/>
        <pt x="591" y="669" on="1"/>
      </contour>
      <contour>
        <pt x="403" y="94" on="1"/>
        <pt x="433" y="97" on="0"/>
        <pt x="486" y="123" on="0"/>
        <pt x="508" y="148" on="1"/>
        <pt x="591" y="75" on="1"/>
        <pt x="553" y="38" on="0"/>
        <pt x="459" y="-2" on="0"/>
        <pt x="403" y="-5" on="1"/>
      </contour>
      <contour>
        <pt x="79" y="372" on="1"/>
        <pt x="79" y="461" on="0"/>
        <pt x="122" y="597" on="0"/>
        <pt x="198" y="691" on="0"/>
        <pt x="301" y="743" on="0"/>
        <pt x="362" y="748" on="1"/>
        <pt x="362" y="648" on="1"/>
        <pt x="329" y="643" on="0"/>
        <pt x="271" y="608" on="0"/>
        <pt x="227" y="542" on="0"/>
        <pt x="202" y="441" on="0"/>
        <pt x="201" y="372" on="1"/>
        <pt x="202" y="302" on="0"/>
        <pt x="227" y="202" on="0"/>
        <pt x="271" y="134" on="0"/>
        <pt x="330" y="98" on="0"/>
        <pt x="362" y="94" on="1"/>
        <pt x="362" y="-4" on="1"/>
        <pt x="301" y="0" on="0"/>
        <pt x="198" y="52" on="0"/>
        <pt x="122" y="146" on="0"/>
        <pt x="79" y="283" on="0"/>
      </contour>
    </TTGlyph>
    <TTGlyph name="Ccedilla" xMin="79" yMin="-243" xMax="591" yMax="748">
      <component glyphName="C" x="0" y="0" flags="0x1204"/>
      <component glyphName="cedilla" x="228" y="0" flags="0x1004"/>
    </TTGlyph>
    <TTGlyph name="D" xMin="96" yMin="0" xMax="691" yMax="737">
      <contour>
        <pt x="96" y="737" on="1"/>
        <pt x="216" y="737" on="1"/>
        <pt x="216" y="0" on="1"/>
        <pt x="96" y="0" on="1"/>
      </contour>
      <contour>
        <pt x="318" y="737" on="1"/>
        <pt x="411" y="737" on="0"/>
        <pt x="552" y="678" on="0"/>
        <pt x="645" y="580" on="0"/>
        <pt x="691" y="455" on="0"/>
        <pt x="691" y="389" on="1"/>
        <pt x="691" y="298" on="0"/>
        <pt x="652" y="169" on="0"/>
        <pt x="592" y="82" on="0"/>
        <pt x="517" y="32" on="0"/>
        <pt x="447" y="7" on="0"/>
        <pt x="389" y="0" on="0"/>
        <pt x="375" y="0" on="1"/>
        <pt x="257" y="0" on="1"/>
        <pt x="257" y="88" on="1"/>
        <pt x="335" y="88" on="1"/>
        <pt x="457" y="88" on="0"/>
        <pt x="565" y="244" on="0"/>
        <pt x="565" y="392" on="1"/>
        <pt x="565" y="438" on="0"/>
        <pt x="543" y="528" on="0"/>
        <pt x="480" y="601" on="0"/>
        <pt x="372" y="646" on="0"/>
        <pt x="286" y="646" on="1"/>
        <pt x="257" y="646" on="1"/>
        <pt x="257" y="737" on="1"/>
      </contour>
    </TTGlyph>
    <TTGlyph name="E" xMin="95" yMin="0" xMax="556" yMax="737">
      <contour>
        <pt x="95" y="737" on="1"/>
        <pt x="217" y="737" on="1"/>
        <pt x="217" y="0" on="1"/>
        <pt x="95" y="0" on="1"/>
      </contour>
      <contour>
        <pt x="525" y="332" on="1"/>
        <pt x="258" y="332" on="1"/>
        <pt x="258" y="414" on="1"/>
        <pt x="525" y="414" on="1"/>
      </contour>
      <contour>
        <pt x="258" y="91" on="1"/>
        <pt x="556" y="91" on="1"/>
        <pt x="556" y="0" on="1"/>
        <pt x="258" y="0" on="1"/>
      </contour>
      <contour>
        <pt x="556" y="737" on="1"/>
        <pt x="556" y="646" on="1"/>
        <pt x="258" y="646" on="1"/>
        <pt x="258" y="737" on="1"/>
      </contour>
    </TTGlyph>
    <TTGlyph name="Eacute" xMin="95" yMin="0" xMax="556" yMax="950">
      <component glyphName="E" x="0" y="0" flags="0x1204"/>
      <component glyphName="acute" x="196" y="173" flags="0x1004"/>
    </TTGlyph>
    <TTGlyph name="Ecircumflex" xMin="95" yMin="0" xMax="556" yMax="950">
      <component glyphName="E" x="0" y="0" flags="0x1204"/>
      <component glyphName="circumflex" x="136" y="173" flags="0x1004"/>
    </TTGlyph>
    <TTGlyph name="Edieresis" xMin="95" yMin="0" xMax="556" yMax="955">
      <component glyphName="E" x="0" y="0" flags="0x1204"/>
      <component glyphName="dieresis" x="86" y="173" flags="0x1004"/>
    </TTGlyph>
    <TTGlyph name="Egrave" xMin="95" yMin="0" xMax="556" yMax="950">
      <component glyphName="E" x="0" y="0" flags="0x1204"/>
      <component glyphName="grave" x="196" y="173" flags="0x1004"/>
    </TTGlyph>
    <TTGlyph name="Eth" xMin="7" yMin="0" xMax="691" yMax="737">
      <contour>
        <pt x="96" y="737" on="1"/>
        <pt x="216" y="737" on="1"/>
        <pt x="216" y="0" on="1"/>
        <pt x="96" y="0" on="1"/>
        <pt x="96" y="318" on="1"/>
        <pt x="7" y="318" on="1"/>
        <pt x="7" y="420" on="1"/>
        <pt x="96" y="420" on="1"/>
      </contour>
      <contour>
        <pt x="318" y="737" on="1"/>
        <pt x="411" y="737" on="0"/>
        <pt x="552" y="678" on="0"/>
        <pt x="645" y="580" on="0"/>
        <pt x="691" y="455" on="0"/>
        <pt x="691" y="389" on="1"/>
        <pt x="691" y="298" on="0"/>
        <pt x="652" y="169" on="0"/>
        <pt x="592" y="82" on="0"/>
        <pt x="517" y="32" on="0"/>
        <pt x="447" y="7" on="0"/>
        <pt x="389" y="0" on="0"/>
        <pt x="375" y="0" on="1"/>
        <pt x="257" y="0" on="1"/>
        <pt x="257" y="88" on="1"/>
        <pt x="335" y="88" on="1"/>
        <pt x="457" y="88" on="0"/>
        <pt x="565" y="244" on="0"/>
        <pt x="565" y="392" on="1"/>
        <pt x="565" y="438" on="0"/>
        <pt x="543" y="528" on="0"/>
        <pt x="480" y="601" on="0"/>
        <pt x="372" y="646" on="0"/>
        <pt x="286" y="646" on="1"/>
        <pt x="257" y="646" on="1"/>
        <pt x="257" y="737" on="1"/>
      </contour>
      <contour>
        <pt x="346" y="318" on="1"/>
        <pt x="257" y="318" on="1"/>
        <pt x="257" y="420" on="1"/>
        <pt x="346" y="420" on="1"/>
      </contour>
    </TTGlyph>
    <TTGlyph name="Euro" xMin="54" yMin="-5" xMax="603" yMax="749">
      <contour>
        <pt x="440" y="749" on="1"/>
        <pt x="532" y="749" on="0"/>
        <pt x="603" y="702" on="1"/>
        <pt x="562" y="595" on="1"/>
        <pt x="537" y="624" on="0"/>
        <pt x="476" y="650" on="0"/>
        <pt x="443" y="650" on="1"/>
        <pt x="386" y="650" on="0"/>
        <pt x="292" y="580" on="0"/>
        <pt x="269" y="496" on="1"/>
        <pt x="525" y="496" on="1"/>
        <pt x="495" y="414" on="1"/>
        <pt x="257" y="414" on="1"/>
        <pt x="256" y="409" on="0"/>
        <pt x="256" y="398" on="0"/>
        <pt x="256" y="393" on="1"/>
        <pt x="133" y="393" on="1"/>
        <pt x="133" y="398" on="0"/>
        <pt x="133" y="409" on="0"/>
        <pt x="134" y="414" on="1"/>
        <pt x="54" y="414" on="1"/>
        <pt x="85" y="496" on="1"/>
        <pt x="145" y="496" on="1"/>
        <pt x="159" y="558" on="0"/>
        <pt x="215" y="653" on="0"/>
        <pt x="292" y="717" on="0"/>
        <pt x="387" y="749" on="0"/>
      </contour>
      <contour>
        <pt x="437" y="93" on="1"/>
        <pt x="473" y="93" on="0"/>
        <pt x="537" y="119" on="0"/>
        <pt x="562" y="148" on="1"/>
        <pt x="562" y="18" on="1"/>
        <pt x="506" y="-6" on="0"/>
        <pt x="440" y="-5" on="1"/>
        <pt x="386" y="-5" on="0"/>
        <pt x="291" y="27" on="0"/>
        <pt x="214" y="91" on="0"/>
        <pt x="159" y="186" on="0"/>
        <pt x="145" y="250" on="1"/>
        <pt x="54" y="250" on="1"/>
        <pt x="85" y="332" on="1"/>
        <pt x="134" y="332" on="1"/>
        <pt x="133" y="337" on="0"/>
        <pt x="133" y="347" on="0"/>
        <pt x="133" y="352" on="1"/>
        <pt x="255" y="352" on="1"/>
        <pt x="256" y="347" on="0"/>
        <pt x="256" y="337" on="0"/>
        <pt x="257" y="332" on="1"/>
        <pt x="464" y="332" on="1"/>
        <pt x="433" y="250" on="1"/>
        <pt x="269" y="250" on="1"/>
        <pt x="291" y="167" on="0"/>
        <pt x="382" y="93" on="0"/>
      </contour>
    </TTGlyph>
    <TTGlyph name="F" xMin="95" yMin="0" xMax="556" yMax="737">
      <contour>
        <pt x="95" y="737" on="1"/>
        <pt x="217" y="737" on="1"/>
        <pt x="217" y="0" on="1"/>
        <pt x="95" y="0" on="1"/>
      </contour>
      <contour>
        <pt x="525" y="332" on="1"/>
        <pt x="258" y="332" on="1"/>
        <pt x="258" y="414" on="1"/>
        <pt x="525" y="414" on="1"/>
      </contour>
      <contour>
        <pt x="556" y="737" on="1"/>
        <pt x="556" y="646" on="1"/>
        <pt x="258" y="646" on="1"/>
        <pt x="258" y="737" on="1"/>
      </contour>
    </TTGlyph>
    <TTGlyph name="G" xMin="79" yMin="-5" xMax="629" yMax="749">
      <contour>
        <pt x="508" y="595" on="1"/>
        <pt x="484" y="624" on="0"/>
        <pt x="422" y="650" on="0"/>
        <pt x="389" y="650" on="1"/>
        <pt x="385" y="650" on="1"/>
        <pt x="385" y="749" on="1"/>
        <pt x="386" y="749" on="1"/>
        <pt x="446" y="749" on="0"/>
        <pt x="550" y="709" on="0"/>
        <pt x="591" y="669" on="1"/>
      </contour>
      <contour>
        <pt x="79" y="372" on="1"/>
        <pt x="79" y="458" on="0"/>
        <pt x="119" y="591" on="0"/>
        <pt x="189" y="684" on="0"/>
        <pt x="287" y="738" on="0"/>
        <pt x="344" y="745" on="1"/>
        <pt x="344" y="645" on="1"/>
        <pt x="314" y="637" on="0"/>
        <pt x="263" y="599" on="0"/>
        <pt x="224" y="532" on="0"/>
        <pt x="202" y="437" on="0"/>
        <pt x="201" y="372" on="1"/>
        <pt x="202" y="307" on="0"/>
        <pt x="224" y="209" on="0"/>
        <pt x="263" y="138" on="0"/>
        <pt x="314" y="96" on="0"/>
        <pt x="344" y="88" on="1"/>
        <pt x="344" y="-3" on="1"/>
        <pt x="287" y="4" on="0"/>
        <pt x="189" y="59" on="0"/>
        <pt x="119" y="153" on="0"/>
        <pt x="79" y="286" on="0"/>
      </contour>
      <contour>
        <pt x="629" y="380" on="1"/>
        <pt x="629" y="95" on="1"/>
        <pt x="606" y="66" on="0"/>
        <pt x="549" y="29" on="0"/>
        <pt x="486" y="5" on="0"/>
        <pt x="419" y="-5" on="0"/>
        <pt x="386" y="-5" on="1"/>
        <pt x="385" y="-5" on="1"/>
        <pt x="385" y="83" on="1"/>
        <pt x="397" y="83" on="0"/>
        <pt x="432" y="86" on="0"/>
        <pt x="469" y="93" on="0"/>
        <pt x="502" y="105" on="0"/>
        <pt x="510" y="116" on="1"/>
        <pt x="510" y="298" on="1"/>
        <pt x="385" y="298" on="1"/>
        <pt x="385" y="380" on="1"/>
      </contour>
    </TTGlyph>
    <TTGlyph name="H" xMin="94" yMin="0" xMax="655" yMax="737">
      <contour>
        <pt x="655" y="737" on="1"/>
        <pt x="655" y="0" on="1"/>
        <pt x="535" y="0" on="1"/>
        <pt x="535" y="332" on="1"/>
        <pt x="257" y="332" on="1"/>
        <pt x="257" y="414" on="1"/>
        <pt x="535" y="414" on="1"/>
        <pt x="535" y="737" on="1"/>
      </contour>
      <contour>
        <pt x="94" y="737" on="1"/>
        <pt x="216" y="737" on="1"/>
        <pt x="216" y="0" on="1"/>
        <pt x="94" y="0" on="1"/>
      </contour>
    </TTGlyph>
    <TTGlyph name="I" xMin="94" yMin="0" xMax="216" yMax="737">
      <contour>
        <pt x="216" y="0" on="1"/>
        <pt x="94" y="0" on="1"/>
        <pt x="94" y="737" on="1"/>
        <pt x="216" y="737" on="1"/>
      </contour>
    </TTGlyph>
    <TTGlyph name="Iacute" xMin="60" yMin="0" xMax="249" yMax="950">
      <component glyphName="I" x="0" y="0" flags="0x1204"/>
      <component glyphName="acute" x="36" y="173" flags="0x1004"/>
    </TTGlyph>
    <TTGlyph name="Icircumflex" xMin="1" yMin="0" xMax="309" yMax="950">
      <component glyphName="I" x="0" y="0" flags="0x1204"/>
      <component glyphName="circumflex" x="-23" y="173" flags="0x1004"/>
    </TTGlyph>
    <TTGlyph name="Idieresis" xMin="-55" yMin="0" xMax="386" yMax="955">
      <component glyphName="I" x="0" y="0" flags="0x1204"/>
      <component glyphName="dieresis" x="-73" y="173" flags="0x1004"/>
    </TTGlyph>
    <TTGlyph name="Igrave" xMin="60" yMin="0" xMax="249" yMax="950">
      <component glyphName="I" x="0" y="0" flags="0x1204"/>
      <component glyphName="grave" x="36" y="173" flags="0x1004"/>
    </TTGlyph>
    <TTGlyph name="J" xMin="26" yMin="-5" xMax="477" yMax="752">
      <contour>
        <pt x="477" y="752" on="1"/>
        <pt x="477" y="178" on="1"/>
        <pt x="477" y="126" on="0"/>
        <pt x="439" y="55" on="0"/>
        <pt x="375" y="12" on="0"/>
        <pt x="292" y="-5" on="0"/>
        <pt x="248" y="-5" on="1"/>
        <pt x="226" y="-5" on="0"/>
        <pt x="167" y="4" on="0"/>
        <pt x="104" y="23" on="0"/>
        <pt x="46" y="47" on="0"/>
        <pt x="26" y="62" on="1"/>
        <pt x="77" y="143" on="1"/>
        <pt x="87" y="136" on="0"/>
        <pt x="124" y="121" on="0"/>
        <pt x="168" y="108" on="0"/>
        <pt x="216" y="98" on="0"/>
        <pt x="237" y="98" on="1"/>
        <pt x="290" y="98" on="0"/>
        <pt x="353" y="139" on="0"/>
        <pt x="355" y="188" on="1"/>
        <pt x="355" y="752" on="1"/>
      </contour>
    </TTGlyph>
    <TTGlyph name="K" xMin="93" yMin="0" xMax="592" yMax="737">
      <contour>
        <pt x="93" y="0" on="1"/>
        <pt x="93" y="737" on="1"/>
        <pt x="215" y="737" on="1"/>
        <pt x="215" y="0" on="1"/>
      </contour>
      <contour>
        <pt x="336" y="358" on="1"/>
        <pt x="592" y="0" on="1"/>
        <pt x="453" y="0" on="1"/>
        <pt x="256" y="290" on="1"/>
        <pt x="256" y="436" on="1"/>
        <pt x="435" y="737" on="1"/>
        <pt x="572" y="737" on="1"/>
      </contour>
    </TTGlyph>
    <TTGlyph name="L" xMin="93" yMin="0" xMax="554" yMax="737">
      <contour>
        <pt x="215" y="737" on="1"/>
        <pt x="215" y="91" on="1"/>
        <pt x="554" y="91" on="1"/>
        <pt x="554" y="0" on="1"/>
        <pt x="93" y="0" on="1"/>
        <pt x="93" y="737" on="1"/>
      </contour>
    </TTGlyph>
    <TTGlyph name="Lslash" xMin="41" yMin="0" xMax="626" yMax="737">
      <contour>
        <pt x="381" y="514" on="1"/>
        <pt x="453" y="442" on="1"/>
        <pt x="113" y="204" on="1"/>
        <pt x="41" y="275" on="1"/>
      </contour>
      <contour>
        <pt x="287" y="737" on="1"/>
        <pt x="287" y="91" on="1"/>
        <pt x="626" y="91" on="1"/>
        <pt x="626" y="0" on="1"/>
        <pt x="165" y="0" on="1"/>
        <pt x="165" y="737" on="1"/>
      </contour>
    </TTGlyph>
    <TTGlyph name="M" xMin="92" yMin="0" xMax="773" yMax="737">
      <contour>
        <pt x="92" y="737" on="1"/>
        <pt x="214" y="737" on="1"/>
        <pt x="412" y="282" on="1"/>
        <pt x="412" y="97" on="1"/>
        <pt x="380" y="97" on="1"/>
        <pt x="214" y="507" on="1"/>
        <pt x="214" y="0" on="1"/>
        <pt x="92" y="0" on="1"/>
      </contour>
      <contour>
        <pt x="651" y="737" on="1"/>
        <pt x="773" y="737" on="1"/>
        <pt x="773" y="0" on="1"/>
        <pt x="651" y="0" on="1"/>
        <pt x="651" y="507" on="1"/>
        <pt x="486" y="97" on="1"/>
        <pt x="453" y="97" on="1"/>
        <pt x="453" y="280" on="1"/>
      </contour>
    </TTGlyph>
    <TTGlyph name="N" xMin="92" yMin="0" xMax="625" yMax="737">
      <contour>
        <pt x="503" y="737" on="1"/>
        <pt x="625" y="737" on="1"/>
        <pt x="625" y="0" on="1"/>
        <pt x="503" y="0" on="1"/>
        <pt x="255" y="436" on="1"/>
        <pt x="255" y="666" on="1"/>
        <pt x="503" y="229" on="1"/>
      </contour>
      <contour>
        <pt x="92" y="0" on="1"/>
        <pt x="92" y="737" on="1"/>
        <pt x="214" y="737" on="1"/>
        <pt x="214" y="0" on="1"/>
      </contour>
    </TTGlyph>
    <TTGlyph name="Ntilde" xMin="92" yMin="0" xMax="625" yMax="943">
      <component glyphName="N" x="0" y="0" flags="0x1204"/>
      <component glyphName="tilde" x="152" y="173" flags="0x1004"/>
    </TTGlyph>
    <TTGlyph name="O" xMin="77" yMin="-5" xMax="691" yMax="748">
      <contour>
        <pt x="77" y="372" on="1"/>
        <pt x="77" y="461" on="0"/>
        <pt x="120" y="598" on="0"/>
        <pt x="197" y="693" on="0"/>
        <pt x="302" y="744" on="0"/>
        <pt x="364" y="748" on="1"/>
        <pt x="364" y="648" on="1"/>
        <pt x="330" y="644" on="0"/>
        <pt x="270" y="610" on="0"/>
        <pt x="226" y="544" on="0"/>
        <pt x="200" y="442" on="0"/>
        <pt x="199" y="372" on="1"/>
        <pt x="200" y="301" on="0"/>
        <pt x="226" y="200" on="0"/>
        <pt x="271" y="132" on="0"/>
        <pt x="331" y="97" on="0"/>
        <pt x="364" y="94" on="1"/>
        <pt x="364" y="-5" on="1"/>
        <pt x="303" y="-1" on="0"/>
        <pt x="197" y="50" on="0"/>
        <pt x="120" y="145" on="0"/>
        <pt x="77" y="283" on="0"/>
      </contour>
      <contour>
        <pt x="404" y="748" on="1"/>
        <pt x="465" y="745" on="0"/>
        <pt x="570" y="693" on="0"/>
        <pt x="647" y="598" on="0"/>
        <pt x="691" y="461" on="0"/>
        <pt x="691" y="372" on="1"/>
        <pt x="691" y="283" on="0"/>
        <pt x="647" y="145" on="0"/>
        <pt x="570" y="50" on="0"/>
        <pt x="466" y="-1" on="0"/>
        <pt x="404" y="-5" on="1"/>
        <pt x="404" y="94" on="1"/>
        <pt x="438" y="98" on="0"/>
        <pt x="498" y="133" on="0"/>
        <pt x="542" y="200" on="0"/>
        <pt x="568" y="301" on="0"/>
        <pt x="569" y="372" on="1"/>
        <pt x="568" y="443" on="0"/>
        <pt x="542" y="544" on="0"/>
        <pt x="497" y="611" on="0"/>
        <pt x="437" y="646" on="0"/>
        <pt x="404" y="649" on="1"/>
      </contour>
    </TTGlyph>
    <TTGlyph name="Oacute" xMin="77" yMin="-5" xMax="691" yMax="950">
      <component glyphName="O" x="0" y="0" flags="0x1204"/>
      <component glyphName="acute" x="265" y="173" flags="0x1004"/>
    </TTGlyph>
    <TTGlyph name="Ocircumflex" xMin="77" yMin="-5" xMax="691" yMax="950">
      <component glyphName="O" x="0" y="0" flags="0x1204"/>
      <component glyphName="circumflex" x="206" y="173" flags="0x1004"/>
    </TTGlyph>
    <TTGlyph name="Odieresis" xMin="77" yMin="-5" xMax="691" yMax="955">
      <component glyphName="O" x="0" y="0" flags="0x1204"/>
      <component glyphName="dieresis" x="156" y="173" flags="0x1004"/>
    </TTGlyph>
    <TTGlyph name="Ograve" xMin="77" yMin="-5" xMax="691" yMax="950">
      <component glyphName="O" x="0" y="0" flags="0x1204"/>
      <component glyphName="grave" x="265" y="173" flags="0x1004"/>
    </TTGlyph>
    <TTGlyph name="Otilde" xMin="77" yMin="-5" xMax="691" yMax="943">
      <component glyphName="O" x="0" y="0" flags="0x1204"/>
      <component glyphName="tilde" x="177" y="173" flags="0x1004"/>
    </TTGlyph>
    <TTGlyph name="P" xMin="91" yMin="0" xMax="560" yMax="737">
      <contour>
        <pt x="91" y="737" on="1"/>
        <pt x="211" y="737" on="1"/>
        <pt x="211" y="0" on="1"/>
        <pt x="91" y="0" on="1"/>
      </contour>
      <contour>
        <pt x="303" y="737" on="1"/>
        <pt x="350" y="737" on="0"/>
        <pt x="442" y="707" on="0"/>
        <pt x="515" y="647" on="0"/>
        <pt x="560" y="562" on="0"/>
        <pt x="560" y="509" on="1"/>
        <pt x="560" y="453" on="0"/>
        <pt x="522" y="362" on="0"/>
        <pt x="454" y="300" on="0"/>
        <pt x="358" y="266" on="0"/>
        <pt x="300" y="266" on="1"/>
        <pt x="252" y="266" on="1"/>
        <pt x="252" y="354" on="1"/>
        <pt x="321" y="354" on="1"/>
        <pt x="343" y="354" on="0"/>
        <pt x="386" y="369" on="0"/>
        <pt x="422" y="403" on="0"/>
        <pt x="444" y="464" on="0"/>
        <pt x="444" y="509" on="1"/>
        <pt x="444" y="527" on="0"/>
        <pt x="434" y="574" on="0"/>
        <pt x="403" y="617" on="0"/>
        <pt x="347" y="646" on="0"/>
        <pt x="301" y="646" on="1"/>
        <pt x="252" y="646" on="1"/>
        <pt x="252" y="737" on="1"/>
      </contour>
    </TTGlyph>
    <TTGlyph name="Q" xMin="63" yMin="-169" xMax="678" yMax="748">
      <contour>
        <pt x="63" y="372" on="1"/>
        <pt x="63" y="461" on="0"/>
        <pt x="106" y="598" on="0"/>
        <pt x="183" y="693" on="0"/>
        <pt x="289" y="744" on="0"/>
        <pt x="350" y="748" on="1"/>
        <pt x="350" y="648" on="1"/>
        <pt x="316" y="644" on="0"/>
        <pt x="257" y="610" on="0"/>
        <pt x="213" y="544" on="0"/>
        <pt x="186" y="442" on="0"/>
        <pt x="185" y="372" on="1"/>
        <pt x="186" y="301" on="0"/>
        <pt x="213" y="200" on="0"/>
        <pt x="258" y="132" on="0"/>
        <pt x="317" y="97" on="0"/>
        <pt x="350" y="94" on="1"/>
        <pt x="350" y="-3" on="1"/>
        <pt x="332" y="-3" on="1"/>
        <pt x="274" y="4" on="0"/>
        <pt x="175" y="58" on="0"/>
        <pt x="103" y="152" on="0"/>
        <pt x="63" y="286" on="0"/>
      </contour>
      <contour>
        <pt x="678" y="372" on="1"/>
        <pt x="678" y="296" on="0"/>
        <pt x="642" y="172" on="0"/>
        <pt x="580" y="78" on="0"/>
        <pt x="498" y="18" on="0"/>
        <pt x="452" y="9" on="1"/>
        <pt x="590" y="-169" on="1"/>
        <pt x="458" y="-169" on="1"/>
        <pt x="391" y="-54" on="1"/>
        <pt x="391" y="94" on="1"/>
        <pt x="425" y="98" on="0"/>
        <pt x="484" y="133" on="0"/>
        <pt x="528" y="200" on="0"/>
        <pt x="555" y="301" on="0"/>
        <pt x="556" y="372" on="1"/>
        <pt x="555" y="443" on="0"/>
        <pt x="528" y="544" on="0"/>
        <pt x="483" y="611" on="0"/>
        <pt x="424" y="646" on="0"/>
        <pt x="391" y="649" on="1"/>
        <pt x="391" y="748" on="1"/>
        <pt x="452" y="745" on="0"/>
        <pt x="557" y="693" on="0"/>
        <pt x="634" y="598" on="0"/>
        <pt x="678" y="461" on="0"/>
      </contour>
    </TTGlyph>
    <TTGlyph name="R" xMin="90" yMin="0" xMax="590" yMax="737">
      <contour>
        <pt x="90" y="737" on="1"/>
        <pt x="210" y="737" on="1"/>
        <pt x="210" y="0" on="1"/>
        <pt x="90" y="0" on="1"/>
      </contour>
      <contour>
        <pt x="590" y="0" on="1"/>
        <pt x="463" y="0" on="1"/>
        <pt x="324" y="267" on="1"/>
        <pt x="321" y="267" on="0"/>
        <pt x="314" y="266" on="0"/>
        <pt x="300" y="266" on="0"/>
        <pt x="273" y="266" on="0"/>
        <pt x="251" y="266" on="1"/>
        <pt x="251" y="354" on="1"/>
        <pt x="319" y="354" on="1"/>
        <pt x="341" y="354" on="0"/>
        <pt x="385" y="369" on="0"/>
        <pt x="421" y="403" on="0"/>
        <pt x="443" y="464" on="0"/>
        <pt x="443" y="509" on="1"/>
        <pt x="443" y="527" on="0"/>
        <pt x="433" y="574" on="0"/>
        <pt x="402" y="617" on="0"/>
        <pt x="346" y="646" on="0"/>
        <pt x="300" y="646" on="1"/>
        <pt x="251" y="646" on="1"/>
        <pt x="251" y="737" on="1"/>
        <pt x="302" y="737" on="1"/>
        <pt x="349" y="737" on="0"/>
        <pt x="441" y="707" on="0"/>
        <pt x="514" y="647" on="0"/>
        <pt x="559" y="562" on="0"/>
        <pt x="559" y="509" on="1"/>
        <pt x="559" y="429" on="0"/>
        <pt x="485" y="317" on="0"/>
        <pt x="422" y="290" on="1"/>
      </contour>
    </TTGlyph>
    <TTGlyph name="S" xMin="81" yMin="-4" xMax="509" yMax="749">
      <contour>
        <pt x="431" y="623" on="1"/>
        <pt x="426" y="625" on="0"/>
        <pt x="412" y="635" on="0"/>
        <pt x="386" y="644" on="0"/>
        <pt x="346" y="650" on="0"/>
        <pt x="315" y="648" on="1"/>
        <pt x="315" y="749" on="1"/>
        <pt x="359" y="748" on="0"/>
        <pt x="450" y="731" on="0"/>
        <pt x="478" y="713" on="1"/>
        <pt x="472" y="700" on="0"/>
        <pt x="456" y="669" on="0"/>
        <pt x="442" y="642" on="0"/>
        <pt x="432" y="624" on="0"/>
      </contour>
      <contour>
        <pt x="86" y="543" on="1"/>
        <pt x="86" y="587" on="0"/>
        <pt x="116" y="657" on="0"/>
        <pt x="167" y="710" on="0"/>
        <pt x="236" y="741" on="0"/>
        <pt x="274" y="746" on="1"/>
        <pt x="274" y="641" on="1"/>
        <pt x="242" y="630" on="0"/>
        <pt x="200" y="575" on="0"/>
        <pt x="200" y="547" on="1"/>
        <pt x="200" y="508" on="0"/>
        <pt x="242" y="460" on="0"/>
        <pt x="274" y="442" on="1"/>
        <pt x="274" y="328" on="1"/>
        <pt x="241" y="344" on="0"/>
        <pt x="175" y="381" on="0"/>
        <pt x="121" y="431" on="0"/>
        <pt x="86" y="497" on="0"/>
      </contour>
      <contour>
        <pt x="102" y="135" on="1"/>
        <pt x="116" y="127" on="0"/>
        <pt x="159" y="112" on="0"/>
        <pt x="205" y="99" on="0"/>
        <pt x="251" y="91" on="0"/>
        <pt x="271" y="91" on="1"/>
        <pt x="274" y="91" on="1"/>
        <pt x="274" y="-4" on="1"/>
        <pt x="272" y="-4" on="1"/>
        <pt x="248" y="-4" on="0"/>
        <pt x="197" y="1" on="0"/>
        <pt x="145" y="13" on="0"/>
        <pt x="98" y="34" on="0"/>
        <pt x="81" y="49" on="1"/>
      </contour>
      <contour>
        <pt x="315" y="422" on="1"/>
        <pt x="348" y="407" on="0"/>
        <pt x="417" y="373" on="0"/>
        <pt x="473" y="324" on="0"/>
        <pt x="509" y="254" on="0"/>
        <pt x="509" y="202" on="1"/>
        <pt x="509" y="166" on="0"/>
        <pt x="482" y="98" on="0"/>
        <pt x="433" y="43" on="0"/>
        <pt x="361" y="5" on="0"/>
        <pt x="315" y="-1" on="1"/>
        <pt x="315" y="95" on="1"/>
        <pt x="397" y="115" on="0"/>
        <pt x="397" y="204" on="1"/>
        <pt x="397" y="239" on="0"/>
        <pt x="351" y="285" on="0"/>
        <pt x="315" y="305" on="1"/>
      </contour>
    </TTGlyph>
    <TTGlyph name="Scaron" xMin="81" yMin="-4" xMax="509" yMax="950">
      <component glyphName="S" x="0" y="0" flags="0x1204"/>
      <component glyphName="caron" x="94" y="173" flags="0x1004"/>
    </TTGlyph>
    <TTGlyph name="T" xMin="51" yMin="0" xMax="612" yMax="737">
      <contour>
        <pt x="612" y="737" on="1"/>
        <pt x="612" y="655" on="1"/>
        <pt x="392" y="655" on="1"/>
        <pt x="392" y="0" on="1"/>
        <pt x="271" y="0" on="1"/>
        <pt x="271" y="655" on="1"/>
        <pt x="51" y="655" on="1"/>
        <pt x="51" y="737" on="1"/>
      </contour>
    </TTGlyph>
    <TTGlyph name="Thorn" xMin="91" yMin="0" xMax="560" yMax="737">
      <contour>
        <pt x="91" y="737" on="1"/>
        <pt x="211" y="737" on="1"/>
        <pt x="211" y="0" on="1"/>
        <pt x="91" y="0" on="1"/>
      </contour>
      <contour>
        <pt x="303" y="655" on="1"/>
        <pt x="350" y="655" on="0"/>
        <pt x="442" y="625" on="0"/>
        <pt x="515" y="565" on="0"/>
        <pt x="560" y="480" on="0"/>
        <pt x="560" y="427" on="1"/>
        <pt x="560" y="371" on="0"/>
        <pt x="522" y="281" on="0"/>
        <pt x="454" y="218" on="0"/>
        <pt x="358" y="184" on="0"/>
        <pt x="300" y="184" on="1"/>
        <pt x="252" y="184" on="1"/>
        <pt x="252" y="272" on="1"/>
        <pt x="321" y="272" on="1"/>
        <pt x="343" y="272" on="0"/>
        <pt x="386" y="287" on="0"/>
        <pt x="422" y="322" on="0"/>
        <pt x="444" y="382" on="0"/>
        <pt x="444" y="427" on="1"/>
        <pt x="444" y="445" on="0"/>
        <pt x="434" y="493" on="0"/>
        <pt x="403" y="536" on="0"/>
        <pt x="347" y="564" on="0"/>
        <pt x="301" y="564" on="1"/>
        <pt x="252" y="564" on="1"/>
        <pt x="252" y="655" on="1"/>
      </contour>
    </TTGlyph>
    <TTGlyph name="U" xMin="82" yMin="-5" xMax="655" yMax="737">
      <contour>
        <pt x="204" y="384" on="1"/>
        <pt x="204" y="307" on="0"/>
        <pt x="224" y="200" on="0"/>
        <pt x="262" y="131" on="0"/>
        <pt x="315" y="97" on="0"/>
        <pt x="348" y="94" on="1"/>
        <pt x="348" y="-5" on="1"/>
        <pt x="287" y="-1" on="0"/>
        <pt x="188" y="50" on="0"/>
        <pt x="120" y="145" on="0"/>
        <pt x="82" y="283" on="0"/>
        <pt x="82" y="372" on="1"/>
        <pt x="82" y="737" on="1"/>
        <pt x="204" y="737" on="1"/>
      </contour>
      <contour>
        <pt x="655" y="737" on="1"/>
        <pt x="655" y="372" on="1"/>
        <pt x="655" y="283" on="0"/>
        <pt x="617" y="145" on="0"/>
        <pt x="548" y="50" on="0"/>
        <pt x="450" y="-1" on="0"/>
        <pt x="389" y="-5" on="1"/>
        <pt x="389" y="94" on="1"/>
        <pt x="422" y="98" on="0"/>
        <pt x="475" y="131" on="0"/>
        <pt x="513" y="199" on="0"/>
        <pt x="534" y="306" on="0"/>
        <pt x="534" y="384" on="1"/>
        <pt x="534" y="737" on="1"/>
      </contour>
    </TTGlyph>
    <TTGlyph name="Uacute" xMin="82" yMin="-5" xMax="655" yMax="950">
      <component glyphName="U" x="0" y="0" flags="0x1204"/>
      <component glyphName="acute" x="250" y="173" flags="0x1004"/>
    </TTGlyph>
    <TTGlyph name="Ucircumflex" xMin="82" yMin="-5" xMax="655" yMax="950">
      <component glyphName="U" x="0" y="0" flags="0x1204"/>
      <component glyphName="circumflex" x="190" y="173" flags="0x1004"/>
    </TTGlyph>
    <TTGlyph name="Udieresis" xMin="82" yMin="-5" xMax="655" yMax="955">
      <component glyphName="U" x="0" y="0" flags="0x1204"/>
      <component glyphName="dieresis" x="140" y="173" flags="0x1004"/>
    </TTGlyph>
    <TTGlyph name="Ugrave" xMin="82" yMin="-5" xMax="655" yMax="950">
      <component glyphName="U" x="0" y="0" flags="0x1204"/>
      <component glyphName="grave" x="250" y="173" flags="0x1004"/>
    </TTGlyph>
    <TTGlyph name="V" xMin="60" yMin="-4" xMax="685" yMax="737">
      <contour>
        <pt x="60" y="737" on="1"/>
        <pt x="197" y="737" on="1"/>
        <pt x="352" y="159" on="1"/>
        <pt x="352" y="-4" on="1"/>
        <pt x="289" y="-4" on="1"/>
      </contour>
      <contour>
        <pt x="549" y="737" on="1"/>
        <pt x="685" y="737" on="1"/>
        <pt x="445" y="-4" on="1"/>
        <pt x="393" y="-4" on="1"/>
        <pt x="393" y="191" on="1"/>
      </contour>
    </TTGlyph>
    <TTGlyph name="W" xMin="73" yMin="-4" xMax="1022" yMax="737">
      <contour>
        <pt x="339" y="101" on="1"/>
        <pt x="479" y="737" on="1"/>
        <pt x="526" y="737" on="1"/>
        <pt x="526" y="470" on="1"/>
        <pt x="417" y="-4" on="1"/>
        <pt x="260" y="-4" on="1"/>
        <pt x="73" y="737" on="1"/>
        <pt x="209" y="737" on="1"/>
      </contour>
      <contour>
        <pt x="886" y="737" on="1"/>
        <pt x="1022" y="737" on="1"/>
        <pt x="823" y="-4" on="1"/>
        <pt x="667" y="-4" on="1"/>
        <pt x="567" y="451" on="1"/>
        <pt x="567" y="737" on="1"/>
        <pt x="615" y="737" on="1"/>
        <pt x="745" y="101" on="1"/>
      </contour>
    </TTGlyph>
    <TTGlyph name="X" xMin="74" yMin="0" xMax="629" yMax="737">
      <contour>
        <pt x="74" y="737" on="1"/>
        <pt x="211" y="737" on="1"/>
        <pt x="331" y="461" on="1"/>
        <pt x="331" y="232" on="1"/>
        <pt x="225" y="0" on="1"/>
        <pt x="86" y="0" on="1"/>
        <pt x="273" y="358" on="1"/>
      </contour>
      <contour>
        <pt x="629" y="737" on="1"/>
        <pt x="430" y="358" on="1"/>
        <pt x="617" y="0" on="1"/>
        <pt x="478" y="0" on="1"/>
        <pt x="372" y="253" on="1"/>
        <pt x="372" y="481" on="1"/>
        <pt x="492" y="737" on="1"/>
      </contour>
    </TTGlyph>
    <TTGlyph name="Y" xMin="54" yMin="0" xMax="603" yMax="737">
      <contour>
        <pt x="466" y="737" on="1"/>
        <pt x="603" y="737" on="1"/>
        <pt x="384" y="300" on="1"/>
        <pt x="384" y="0" on="1"/>
        <pt x="262" y="0" on="1"/>
        <pt x="262" y="246" on="1"/>
      </contour>
      <contour>
        <pt x="191" y="737" on="1"/>
        <pt x="302" y="450" on="1"/>
        <pt x="248" y="319" on="1"/>
        <pt x="54" y="737" on="1"/>
      </contour>
    </TTGlyph>
    <TTGlyph name="Yacute" xMin="54" yMin="0" xMax="603" yMax="950">
      <component glyphName="Y" x="0" y="0" flags="0x1204"/>
      <component glyphName="acute" x="209" y="173" flags="0x1004"/>
    </TTGlyph>
    <TTGlyph name="Ydieresis" xMin="54" yMin="0" xMax="603" yMax="955">
      <component glyphName="Y" x="0" y="0" flags="0x1204"/>
      <component glyphName="dieresis" x="99" y="173" flags="0x1004"/>
    </TTGlyph>
    <TTGlyph name="Z" xMin="78" yMin="0" xMax="568" yMax="737">
      <contour>
        <pt x="568" y="737" on="1"/>
        <pt x="568" y="640" on="1"/>
        <pt x="217" y="113" on="1"/>
        <pt x="197" y="97" on="1"/>
        <pt x="568" y="97" on="1"/>
        <pt x="568" y="0" on="1"/>
        <pt x="78" y="0" on="1"/>
        <pt x="78" y="97" on="1"/>
        <pt x="429" y="624" on="1"/>
        <pt x="450" y="640" on="1"/>
        <pt x="78" y="640" on="1"/>
        <pt x="78" y="737" on="1"/>
      </contour>
    </TTGlyph>
    <TTGlyph name="Zcaron" xMin="78" yMin="0" xMax="568" yMax="950">
      <component glyphName="Z" x="0" y="0" flags="0x1204"/>
      <component glyphName="caron" x="145" y="173" flags="0x1004"/>
    </TTGlyph>
    <TTGlyph name="a" xMin="71" yMin="-5" xMax="527" yMax="568">
      <contour>
        <pt x="184" y="170" on="1"/>
        <pt x="184" y="125" on="0"/>
        <pt x="221" y="81" on="0"/>
        <pt x="256" y="77" on="1"/>
        <pt x="256" y="-4" on="1"/>
        <pt x="252" y="-5" on="0"/>
        <pt x="243" y="-5" on="1"/>
        <pt x="209" y="-5" on="0"/>
        <pt x="146" y="13" on="0"/>
        <pt x="98" y="53" on="0"/>
        <pt x="71" y="119" on="0"/>
        <pt x="71" y="167" on="1"/>
        <pt x="71" y="213" on="0"/>
        <pt x="110" y="280" on="0"/>
        <pt x="171" y="323" on="0"/>
        <pt x="249" y="344" on="0"/>
        <pt x="289" y="344" on="1"/>
        <pt x="333" y="344" on="1"/>
        <pt x="333" y="273" on="1"/>
        <pt x="311" y="273" on="1"/>
        <pt x="291" y="273" on="0"/>
        <pt x="247" y="265" on="0"/>
        <pt x="209" y="243" on="0"/>
        <pt x="184" y="202" on="0"/>
      </contour>
      <contour>
        <pt x="495" y="167" on="1"/>
        <pt x="495" y="159" on="0"/>
        <pt x="497" y="128" on="0"/>
        <pt x="503" y="96" on="0"/>
        <pt x="516" y="70" on="0"/>
        <pt x="527" y="66" on="1"/>
        <pt x="495" y="-1" on="1"/>
        <pt x="482" y="-1" on="0"/>
        <pt x="453" y="11" on="0"/>
        <pt x="426" y="33" on="0"/>
        <pt x="407" y="60" on="0"/>
        <pt x="402" y="76" on="1"/>
        <pt x="392" y="51" on="0"/>
        <pt x="333" y="12" on="0"/>
        <pt x="297" y="3" on="1"/>
        <pt x="297" y="79" on="1"/>
        <pt x="321" y="84" on="0"/>
        <pt x="360" y="113" on="0"/>
        <pt x="374" y="133" on="1"/>
        <pt x="374" y="344" on="1"/>
        <pt x="374" y="393" on="0"/>
        <pt x="364" y="451" on="0"/>
        <pt x="340" y="478" on="0"/>
        <pt x="305" y="485" on="0"/>
        <pt x="281" y="485" on="1"/>
        <pt x="259" y="485" on="0"/>
        <pt x="220" y="474" on="0"/>
        <pt x="187" y="459" on="0"/>
        <pt x="162" y="441" on="0"/>
        <pt x="156" y="436" on="1"/>
        <pt x="111" y="505" on="1"/>
        <pt x="121" y="516" on="0"/>
        <pt x="161" y="539" on="0"/>
        <pt x="213" y="557" on="0"/>
        <pt x="274" y="568" on="0"/>
        <pt x="307" y="568" on="1"/>
        <pt x="337" y="568" on="0"/>
        <pt x="394" y="556" on="0"/>
        <pt x="441" y="528" on="0"/>
        <pt x="476" y="481" on="0"/>
        <pt x="483" y="446" on="1"/>
        <pt x="490" y="411" on="0"/>
        <pt x="495" y="340" on="0"/>
        <pt x="495" y="305" on="1"/>
        <pt x="495" y="175" on="1"/>
      </contour>
    </TTGlyph>
    <TTGlyph name="aacute" xMin="71" yMin="-5" xMax="527" yMax="777">
      <component glyphName="a" x="0" y="0" flags="0x1204"/>
      <component glyphName="acute" x="181" y="0" flags="0x1004"/>
    </TTGlyph>
    <TTGlyph name="acircumflex" xMin="71" yMin="-5" xMax="527" yMax="777">
      <component glyphName="a" x="0" y="0" flags="0x1204"/>
      <component glyphName="circumflex" x="122" y="0" flags="0x1004"/>
    </TTGlyph>
    <TTGlyph name="acute" xMin="24" yMin="635" xMax="213" yMax="777">
      <contour>
        <pt x="213" y="777" on="1"/>
        <pt x="104" y="635" on="1"/>
        <pt x="24" y="635" on="1"/>
        <pt x="91" y="777" on="1"/>
      </contour>
    </TTGlyph>
    <TTGlyph name="adieresis" xMin="71" yMin="-5" xMax="531" yMax="782">
      <component glyphName="a" x="0" y="0" flags="0x1204"/>
      <component glyphName="dieresis" x="72" y="0" flags="0x1004"/>
    </TTGlyph>
    <TTGlyph name="agrave" xMin="71" yMin="-5" xMax="527" yMax="777">
      <component glyphName="a" x="0" y="0" flags="0x1204"/>
      <component glyphName="grave" x="181" y="0" flags="0x1004"/>
    </TTGlyph>
    <TTGlyph name="aid" xMin="133" yMin="0" xMax="959" yMax="706">
      <contour>
        <pt x="344" y="706" on="1"/>
        <pt x="526" y="706" on="1"/>
        <pt x="526" y="644" on="1"/>
        <pt x="406" y="644" on="1"/>
        <pt x="406" y="503" on="1"/>
        <pt x="526" y="503" on="1"/>
        <pt x="526" y="392" on="1"/>
        <pt x="485" y="392" on="1"/>
        <pt x="485" y="312" on="1"/>
        <pt x="406" y="312" on="1"/>
        <pt x="406" y="190" on="1"/>
        <pt x="485" y="190" on="1"/>
        <pt x="485" y="111" on="1"/>
        <pt x="526" y="111" on="1"/>
        <pt x="526" y="0" on="1"/>
        <pt x="263" y="0" on="1"/>
        <pt x="210" y="0" on="0"/>
        <pt x="156" y="25" on="0"/>
        <pt x="134" y="65" on="0"/>
        <pt x="133" y="116" on="0"/>
        <pt x="133" y="142" on="1"/>
        <pt x="133" y="422" on="1"/>
        <pt x="133" y="452" on="0"/>
        <pt x="134" y="504" on="0"/>
        <pt x="160" y="542" on="0"/>
        <pt x="221" y="564" on="0"/>
        <pt x="282" y="564" on="1"/>
        <pt x="344" y="564" on="1"/>
      </contour>
      <contour>
        <pt x="959" y="142" on="1"/>
        <pt x="959" y="112" on="0"/>
        <pt x="958" y="60" on="0"/>
        <pt x="932" y="23" on="0"/>
        <pt x="870" y="0" on="0"/>
        <pt x="811" y="0" on="1"/>
        <pt x="567" y="0" on="1"/>
        <pt x="567" y="111" on="1"/>
        <pt x="607" y="111" on="1"/>
        <pt x="607" y="190" on="1"/>
        <pt x="687" y="190" on="1"/>
        <pt x="687" y="312" on="1"/>
        <pt x="607" y="312" on="1"/>
        <pt x="607" y="392" on="1"/>
        <pt x="567" y="392" on="1"/>
        <pt x="567" y="503" on="1"/>
        <pt x="687" y="503" on="1"/>
        <pt x="687" y="644" on="1"/>
        <pt x="567" y="644" on="1"/>
        <pt x="567" y="706" on="1"/>
        <pt x="749" y="706" on="1"/>
        <pt x="749" y="564" on="1"/>
        <pt x="811" y="564" on="1"/>
        <pt x="850" y="564" on="0"/>
        <pt x="906" y="554" on="0"/>
        <pt x="942" y="523" on="0"/>
        <pt x="959" y="468" on="0"/>
        <pt x="959" y="422" on="1"/>
      </contour>
    </TTGlyph>
    <TTGlyph name="ampersand" xMin="73" yMin="-7" xMax="653" yMax="744">
      <contour>
        <pt x="653" y="0" on="1"/>
        <pt x="528" y="0" on="1"/>
        <pt x="459" y="86" on="1"/>
        <pt x="433" y="52" on="0"/>
        <pt x="357" y="5" on="0"/>
        <pt x="306" y="-3" on="1"/>
        <pt x="306" y="85" on="1"/>
        <pt x="345" y="96" on="0"/>
        <pt x="389" y="141" on="0"/>
        <pt x="404" y="159" on="1"/>
        <pt x="380" y="188" on="0"/>
        <pt x="330" y="246" on="0"/>
        <pt x="306" y="273" on="1"/>
        <pt x="306" y="442" on="1"/>
        <pt x="350" y="464" on="0"/>
        <pt x="394" y="532" on="0"/>
        <pt x="394" y="566" on="1"/>
        <pt x="394" y="605" on="0"/>
        <pt x="343" y="646" on="0"/>
        <pt x="306" y="647" on="1"/>
        <pt x="306" y="744" on="1"/>
        <pt x="341" y="744" on="0"/>
        <pt x="406" y="723" on="0"/>
        <pt x="457" y="679" on="0"/>
        <pt x="487" y="613" on="0"/>
        <pt x="487" y="568" on="1"/>
        <pt x="485" y="529" on="0"/>
        <pt x="461" y="466" on="0"/>
        <pt x="422" y="416" on="0"/>
        <pt x="375" y="379" on="0"/>
        <pt x="352" y="367" on="1"/>
        <pt x="371" y="340" on="0"/>
        <pt x="431" y="276" on="0"/>
        <pt x="458" y="245" on="1"/>
        <pt x="469" y="262" on="0"/>
        <pt x="489" y="299" on="0"/>
        <pt x="501" y="325" on="1"/>
        <pt x="579" y="293" on="1"/>
        <pt x="568" y="261" on="0"/>
        <pt x="536" y="199" on="0"/>
        <pt x="518" y="168" on="1"/>
      </contour>
      <contour>
        <pt x="122" y="575" on="1"/>
        <pt x="122" y="606" on="0"/>
        <pt x="142" y="660" on="0"/>
        <pt x="180" y="705" on="0"/>
        <pt x="233" y="735" on="0"/>
        <pt x="265" y="741" on="1"/>
        <pt x="265" y="639" on="1"/>
        <pt x="246" y="631" on="0"/>
        <pt x="219" y="597" on="0"/>
        <pt x="219" y="575" on="1"/>
        <pt x="219" y="540" on="0"/>
        <pt x="248" y="488" on="0"/>
        <pt x="265" y="469" on="1"/>
        <pt x="265" y="318" on="1"/>
        <pt x="215" y="285" on="0"/>
        <pt x="170" y="209" on="0"/>
        <pt x="170" y="173" on="1"/>
        <pt x="170" y="162" on="0"/>
        <pt x="179" y="130" on="0"/>
        <pt x="201" y="101" on="0"/>
        <pt x="236" y="80" on="0"/>
        <pt x="262" y="80" on="1"/>
        <pt x="265" y="80" on="1"/>
        <pt x="265" y="-7" on="1"/>
        <pt x="252" y="-7" on="1"/>
        <pt x="220" y="-7" on="0"/>
        <pt x="157" y="13" on="0"/>
        <pt x="105" y="57" on="0"/>
        <pt x="73" y="126" on="0"/>
        <pt x="73" y="173" on="1"/>
        <pt x="73" y="213" on="0"/>
        <pt x="97" y="281" on="0"/>
        <pt x="137" y="336" on="0"/>
        <pt x="188" y="381" on="0"/>
        <pt x="214" y="397" on="1"/>
        <pt x="202" y="409" on="0"/>
        <pt x="170" y="444" on="0"/>
        <pt x="141" y="488" on="0"/>
        <pt x="122" y="543" on="0"/>
      </contour>
    </TTGlyph>
    <TTGlyph name="aring" xMin="71" yMin="-5" xMax="527" yMax="882">
      <component glyphName="a" x="0" y="0" flags="0x1204"/>
      <component glyphName="ring" x="104" y="0" flags="0x1004"/>
    </TTGlyph>
    <TTGlyph name="asterisk" xMin="55" yMin="385" xMax="413" yMax="741">
      <contour>
        <pt x="392" y="481" on="1"/>
        <pt x="270" y="527" on="1"/>
        <pt x="315" y="404" on="1"/>
        <pt x="242" y="385" on="1"/>
        <pt x="220" y="513" on="1"/>
        <pt x="137" y="413" on="1"/>
        <pt x="84" y="466" on="1"/>
        <pt x="184" y="550" on="1"/>
        <pt x="55" y="571" on="1"/>
        <pt x="76" y="645" on="1"/>
        <pt x="198" y="599" on="1"/>
        <pt x="153" y="721" on="1"/>
        <pt x="226" y="741" on="1"/>
        <pt x="248" y="613" on="1"/>
        <pt x="331" y="714" on="1"/>
        <pt x="384" y="659" on="1"/>
        <pt x="284" y="577" on="1"/>
        <pt x="413" y="555" on="1"/>
      </contour>
    </TTGlyph>
    <TTGlyph name="at" xMin="74" yMin="-120" xMax="984" yMax="799">
      <contour>
        <pt x="74" y="301" on="1"/>
        <pt x="74" y="412" on="0"/>
        <pt x="133" y="587" on="0"/>
        <pt x="242" y="712" on="0"/>
        <pt x="393" y="785" on="0"/>
        <pt x="485" y="796" on="1"/>
        <pt x="485" y="697" on="1"/>
        <pt x="404" y="687" on="0"/>
        <pt x="286" y="618" on="0"/>
        <pt x="209" y="513" on="0"/>
        <pt x="171" y="378" on="0"/>
        <pt x="171" y="301" on="1"/>
        <pt x="171" y="231" on="0"/>
        <pt x="210" y="112" on="0"/>
        <pt x="263" y="19" on="0"/>
        <pt x="319" y="-41" on="0"/>
        <pt x="337" y="-53" on="1"/>
        <pt x="281" y="-120" on="1"/>
        <pt x="250" y="-94" on="0"/>
        <pt x="177" y="-10" on="0"/>
        <pt x="115" y="99" on="0"/>
        <pt x="74" y="229" on="0"/>
      </contour>
      <contour>
        <pt x="311" y="307" on="1"/>
        <pt x="311" y="365" on="0"/>
        <pt x="343" y="447" on="0"/>
        <pt x="392" y="500" on="0"/>
        <pt x="455" y="523" on="0"/>
        <pt x="485" y="525" on="1"/>
        <pt x="485" y="449" on="1"/>
        <pt x="449" y="437" on="0"/>
        <pt x="411" y="353" on="0"/>
        <pt x="411" y="300" on="1"/>
        <pt x="411" y="248" on="0"/>
        <pt x="452" y="169" on="0"/>
        <pt x="485" y="157" on="1"/>
        <pt x="485" y="78" on="1"/>
        <pt x="483" y="78" on="1"/>
        <pt x="440" y="78" on="0"/>
        <pt x="376" y="116" on="0"/>
        <pt x="333" y="179" on="0"/>
        <pt x="311" y="262" on="0"/>
      </contour>
      <contour>
        <pt x="552" y="799" on="1"/>
        <pt x="658" y="799" on="0"/>
        <pt x="820" y="722" on="0"/>
        <pt x="929" y="594" on="0"/>
        <pt x="984" y="428" on="0"/>
        <pt x="984" y="338" on="1"/>
        <pt x="984" y="275" on="0"/>
        <pt x="953" y="172" on="0"/>
        <pt x="896" y="100" on="0"/>
        <pt x="814" y="60" on="0"/>
        <pt x="763" y="60" on="1"/>
        <pt x="746" y="60" on="0"/>
        <pt x="702" y="71" on="0"/>
        <pt x="662" y="90" on="0"/>
        <pt x="627" y="117" on="0"/>
        <pt x="620" y="134" on="1"/>
        <pt x="610" y="134" on="1"/>
        <pt x="607" y="118" on="0"/>
        <pt x="560" y="89" on="0"/>
        <pt x="526" y="82" on="1"/>
        <pt x="526" y="153" on="1"/>
        <pt x="569" y="160" on="0"/>
        <pt x="616" y="244" on="0"/>
        <pt x="616" y="301" on="1"/>
        <pt x="616" y="359" on="0"/>
        <pt x="567" y="443" on="0"/>
        <pt x="526" y="452" on="1"/>
        <pt x="526" y="522" on="1"/>
        <pt x="554" y="517" on="0"/>
        <pt x="598" y="495" on="0"/>
        <pt x="610" y="477" on="1"/>
        <pt x="621" y="521" on="1"/>
        <pt x="706" y="521" on="1"/>
        <pt x="707" y="230" on="1"/>
        <pt x="707" y="205" on="0"/>
        <pt x="721" y="174" on="0"/>
        <pt x="741" y="155" on="0"/>
        <pt x="766" y="147" on="0"/>
        <pt x="776" y="147" on="1"/>
        <pt x="832" y="147" on="0"/>
        <pt x="887" y="239" on="0"/>
        <pt x="887" y="338" on="1"/>
        <pt x="887" y="419" on="0"/>
        <pt x="838" y="552" on="0"/>
        <pt x="750" y="648" on="0"/>
        <pt x="627" y="701" on="0"/>
        <pt x="552" y="701" on="1"/>
        <pt x="546" y="701" on="0"/>
        <pt x="532" y="701" on="0"/>
        <pt x="526" y="700" on="1"/>
        <pt x="526" y="798" on="1"/>
        <pt x="532" y="799" on="0"/>
        <pt x="546" y="799" on="0"/>
      </contour>
    </TTGlyph>
    <TTGlyph name="atilde" xMin="71" yMin="-5" xMax="527" yMax="770">
      <component glyphName="a" x="0" y="0" flags="0x1204"/>
      <component glyphName="tilde" x="93" y="0" flags="0x1004"/>
    </TTGlyph>
    <TTGlyph name="b" xMin="86" yMin="-5" xMax="591" yMax="777">
      <contour>
        <pt x="86" y="777" on="1"/>
        <pt x="207" y="777" on="1"/>
        <pt x="207" y="67" on="1"/>
        <pt x="206" y="53" on="0"/>
        <pt x="202" y="17" on="0"/>
        <pt x="201" y="0" on="1"/>
        <pt x="86" y="0" on="1"/>
      </contour>
      <contour>
        <pt x="579" y="393" on="1"/>
        <pt x="591" y="347" on="0"/>
        <pt x="591" y="292" on="1"/>
        <pt x="591" y="235" on="0"/>
        <pt x="564" y="127" on="0"/>
        <pt x="509" y="44" on="0"/>
        <pt x="426" y="-5" on="0"/>
        <pt x="370" y="-5" on="1"/>
        <pt x="335" y="-5" on="0"/>
        <pt x="271" y="11" on="0"/>
        <pt x="248" y="25" on="1"/>
        <pt x="248" y="129" on="1"/>
        <pt x="263" y="112" on="0"/>
        <pt x="304" y="90" on="0"/>
        <pt x="329" y="90" on="1"/>
        <pt x="359" y="90" on="0"/>
        <pt x="408" y="120" on="0"/>
        <pt x="443" y="171" on="0"/>
        <pt x="464" y="241" on="0"/>
        <pt x="464" y="281" on="1"/>
        <pt x="464" y="320" on="0"/>
        <pt x="445" y="390" on="0"/>
        <pt x="412" y="444" on="0"/>
        <pt x="364" y="476" on="0"/>
        <pt x="334" y="476" on="1"/>
        <pt x="308" y="476" on="0"/>
        <pt x="265" y="455" on="0"/>
        <pt x="248" y="435" on="1"/>
        <pt x="248" y="542" on="1"/>
        <pt x="271" y="555" on="0"/>
        <pt x="327" y="569" on="0"/>
        <pt x="357" y="569" on="1"/>
        <pt x="390" y="569" on="0"/>
        <pt x="458" y="551" on="0"/>
        <pt x="517" y="509" on="0"/>
        <pt x="566" y="441" on="0"/>
      </contour>
    </TTGlyph>
    <TTGlyph name="backslash" xMin="34" yMin="-22" xMax="422" yMax="799">
      <contour>
        <pt x="34" y="799" on="1"/>
        <pt x="115" y="799" on="1"/>
        <pt x="422" y="-22" on="1"/>
        <pt x="341" y="-22" on="1"/>
      </contour>
    </TTGlyph>
    <TTGlyph name="bar" xMin="86" yMin="-242" xMax="167" yMax="809">
      <contour>
        <pt x="167" y="-242" on="1"/>
        <pt x="86" y="-242" on="1"/>
        <pt x="86" y="809" on="1"/>
        <pt x="167" y="809" on="1"/>
      </contour>
    </TTGlyph>
    <TTGlyph name="bracketleft" xMin="86" yMin="-61" xMax="270" yMax="757">
      <contour>
        <pt x="270" y="676" on="1"/>
        <pt x="167" y="676" on="1"/>
        <pt x="167" y="19" on="1"/>
        <pt x="270" y="19" on="1"/>
        <pt x="270" y="-61" on="1"/>
        <pt x="86" y="-61" on="1"/>
        <pt x="86" y="757" on="1"/>
        <pt x="270" y="757" on="1"/>
      </contour>
    </TTGlyph>
    <TTGlyph name="bracketright" xMin="86" yMin="-61" xMax="270" yMax="757">
      <contour>
        <pt x="86" y="676" on="1"/>
        <pt x="86" y="757" on="1"/>
        <pt x="270" y="757" on="1"/>
        <pt x="270" y="-61" on="1"/>
        <pt x="86" y="-61" on="1"/>
        <pt x="86" y="19" on="1"/>
        <pt x="189" y="19" on="1"/>
        <pt x="189" y="676" on="1"/>
      </contour>
    </TTGlyph>
    <TTGlyph name="breve" xMin="69" yMin="635" xMax="317" yMax="760">
      <contour>
        <pt x="194" y="695" on="1"/>
        <pt x="221" y="695" on="0"/>
        <pt x="258" y="733" on="0"/>
        <pt x="258" y="760" on="1"/>
        <pt x="317" y="760" on="1"/>
        <pt x="317" y="734" on="0"/>
        <pt x="298" y="688" on="0"/>
        <pt x="264" y="654" on="0"/>
        <pt x="219" y="635" on="0"/>
        <pt x="194" y="635" on="1"/>
        <pt x="168" y="635" on="0"/>
        <pt x="122" y="654" on="0"/>
        <pt x="88" y="688" on="0"/>
        <pt x="69" y="734" on="0"/>
        <pt x="69" y="760" on="1"/>
        <pt x="129" y="760" on="1"/>
        <pt x="129" y="733" on="0"/>
        <pt x="167" y="695" on="0"/>
      </contour>
    </TTGlyph>
    <TTGlyph name="c" xMin="70" yMin="-4" xMax="515" yMax="566">
      <contour>
        <pt x="461" y="418" on="1"/>
        <pt x="446" y="436" on="0"/>
        <pt x="393" y="467" on="0"/>
        <pt x="349" y="470" on="1"/>
        <pt x="349" y="566" on="1"/>
        <pt x="404" y="563" on="0"/>
        <pt x="483" y="522" on="0"/>
        <pt x="515" y="483" on="1"/>
      </contour>
      <contour>
        <pt x="349" y="95" on="1"/>
        <pt x="385" y="99" on="0"/>
        <pt x="436" y="126" on="0"/>
        <pt x="459" y="144" on="1"/>
        <pt x="504" y="79" on="1"/>
        <pt x="473" y="40" on="0"/>
        <pt x="401" y="-1" on="0"/>
        <pt x="349" y="-4" on="1"/>
      </contour>
      <contour>
        <pt x="70" y="282" on="1"/>
        <pt x="70" y="339" on="0"/>
        <pt x="103" y="439" on="0"/>
        <pt x="167" y="515" on="0"/>
        <pt x="254" y="562" on="0"/>
        <pt x="308" y="566" on="1"/>
        <pt x="308" y="469" on="1"/>
        <pt x="258" y="458" on="0"/>
        <pt x="198" y="357" on="0"/>
        <pt x="198" y="285" on="1"/>
        <pt x="198" y="248" on="0"/>
        <pt x="213" y="183" on="0"/>
        <pt x="241" y="133" on="0"/>
        <pt x="282" y="99" on="0"/>
        <pt x="308" y="95" on="1"/>
        <pt x="308" y="-4" on="1"/>
        <pt x="253" y="-1" on="0"/>
        <pt x="165" y="46" on="0"/>
        <pt x="103" y="123" on="0"/>
        <pt x="70" y="225" on="0"/>
      </contour>
    </TTGlyph>
    <TTGlyph name="caron" xMin="23" yMin="635" xMax="331" yMax="777">
      <contour>
        <pt x="23" y="777" on="1"/>
        <pt x="133" y="777" on="1"/>
        <pt x="156" y="735" on="1"/>
        <pt x="156" y="635" on="1"/>
        <pt x="131" y="635" on="1"/>
      </contour>
      <contour>
        <pt x="220" y="777" on="1"/>
        <pt x="331" y="777" on="1"/>
        <pt x="222" y="635" on="1"/>
        <pt x="197" y="635" on="1"/>
        <pt x="197" y="736" on="1"/>
      </contour>
    </TTGlyph>
    <TTGlyph name="ccedilla" xMin="70" yMin="-243" xMax="515" yMax="566">
      <component glyphName="c" x="0" y="0" flags="0x1204"/>
      <component glyphName="cedilla" x="175" y="0" flags="0x1004"/>
    </TTGlyph>
    <TTGlyph name="cedilla" xMin="48" yMin="-243" xMax="233" yMax="7">
      <contour>
        <pt x="116" y="-71" on="1"/>
        <pt x="133" y="-64" on="0"/>
        <pt x="151" y="-63" on="1"/>
        <pt x="169" y="-63" on="0"/>
        <pt x="200" y="-79" on="0"/>
        <pt x="221" y="-102" on="0"/>
        <pt x="233" y="-131" on="0"/>
        <pt x="233" y="-145" on="1"/>
        <pt x="233" y="-191" on="0"/>
        <pt x="172" y="-243" on="0"/>
        <pt x="120" y="-243" on="1"/>
        <pt x="120" y="-185" on="1"/>
        <pt x="174" y="-185" on="0"/>
        <pt x="174" y="-147" on="1"/>
        <pt x="174" y="-130" on="0"/>
        <pt x="145" y="-105" on="0"/>
        <pt x="121" y="-105" on="1"/>
        <pt x="108" y="-105" on="0"/>
        <pt x="89" y="-111" on="1"/>
        <pt x="48" y="-92" on="1"/>
        <pt x="106" y="7" on="1"/>
        <pt x="183" y="7" on="1"/>
      </contour>
    </TTGlyph>
    <TTGlyph name="cent" xMin="70" yMin="-82" xMax="515" yMax="647">
      <contour>
        <pt x="327" y="94" on="1"/>
        <pt x="372" y="94" on="0"/>
        <pt x="433" y="123" on="0"/>
        <pt x="459" y="144" on="1"/>
        <pt x="504" y="79" on="1"/>
        <pt x="475" y="43" on="0"/>
        <pt x="410" y="2" on="0"/>
        <pt x="364" y="-3" on="1"/>
        <pt x="364" y="-82" on="1"/>
        <pt x="283" y="-82" on="1"/>
        <pt x="283" y="-1" on="1"/>
        <pt x="234" y="7" on="0"/>
        <pt x="155" y="56" on="0"/>
        <pt x="99" y="132" on="0"/>
        <pt x="70" y="227" on="0"/>
        <pt x="70" y="282" on="1"/>
        <pt x="70" y="336" on="0"/>
        <pt x="100" y="431" on="0"/>
        <pt x="156" y="505" on="0"/>
        <pt x="234" y="555" on="0"/>
        <pt x="283" y="563" on="1"/>
        <pt x="283" y="647" on="1"/>
        <pt x="364" y="647" on="1"/>
        <pt x="364" y="565" on="1"/>
        <pt x="413" y="560" on="0"/>
        <pt x="485" y="519" on="0"/>
        <pt x="515" y="483" on="1"/>
        <pt x="461" y="418" on="1"/>
        <pt x="444" y="438" on="0"/>
        <pt x="384" y="471" on="0"/>
        <pt x="332" y="471" on="1"/>
        <pt x="302" y="471" on="0"/>
        <pt x="252" y="443" on="0"/>
        <pt x="217" y="393" on="0"/>
        <pt x="198" y="325" on="0"/>
        <pt x="198" y="285" on="1"/>
        <pt x="198" y="245" on="0"/>
        <pt x="215" y="176" on="0"/>
        <pt x="249" y="124" on="0"/>
        <pt x="296" y="94" on="0"/>
      </contour>
    </TTGlyph>
    <TTGlyph name="circumflex" xMin="24" yMin="635" xMax="332" yMax="777">
      <contour>
        <pt x="132" y="777" on="1"/>
        <pt x="157" y="777" on="1"/>
        <pt x="157" y="677" on="1"/>
        <pt x="134" y="635" on="1"/>
        <pt x="24" y="635" on="1"/>
      </contour>
      <contour>
        <pt x="221" y="635" on="1"/>
        <pt x="198" y="676" on="1"/>
        <pt x="198" y="777" on="1"/>
        <pt x="223" y="777" on="1"/>
        <pt x="332" y="635" on="1"/>
      </contour>
    </TTGlyph>
    <TTGlyph name="colon" xMin="77" yMin="-5" xMax="220" yMax="569">
      <contour>
        <pt x="220" y="498" on="1"/>
        <pt x="220" y="468" on="0"/>
        <pt x="178" y="426" on="0"/>
        <pt x="148" y="426" on="1"/>
        <pt x="118" y="426" on="0"/>
        <pt x="77" y="468" on="0"/>
        <pt x="77" y="498" on="1"/>
        <pt x="77" y="528" on="0"/>
        <pt x="119" y="569" on="0"/>
        <pt x="148" y="569" on="1"/>
        <pt x="178" y="569" on="0"/>
        <pt x="220" y="528" on="0"/>
      </contour>
      <contour>
        <pt x="220" y="67" on="1"/>
        <pt x="220" y="37" on="0"/>
        <pt x="178" y="-5" on="0"/>
        <pt x="148" y="-5" on="1"/>
        <pt x="118" y="-5" on="0"/>
        <pt x="77" y="37" on="0"/>
        <pt x="77" y="67" on="1"/>
        <pt x="77" y="97" on="0"/>
        <pt x="119" y="138" on="0"/>
        <pt x="148" y="138" on="1"/>
        <pt x="178" y="138" on="0"/>
        <pt x="220" y="97" on="0"/>
      </contour>
    </TTGlyph>
    <TTGlyph name="comma" xMin="65" yMin="-120" xMax="208" yMax="139">
      <contour>
        <pt x="136" y="139" on="1"/>
        <pt x="166" y="139" on="0"/>
        <pt x="208" y="97" on="0"/>
        <pt x="208" y="68" on="1"/>
        <pt x="208" y="63" on="0"/>
        <pt x="206" y="26" on="0"/>
        <pt x="189" y="-27" on="0"/>
        <pt x="151" y="-89" on="0"/>
        <pt x="114" y="-120" on="1"/>
        <pt x="67" y="-120" on="1"/>
        <pt x="87" y="-101" on="0"/>
        <pt x="113" y="-59" on="0"/>
        <pt x="121" y="-42" on="1"/>
        <pt x="130" y="-23" on="0"/>
        <pt x="136" y="-4" on="1"/>
        <pt x="106" y="-4" on="0"/>
        <pt x="65" y="38" on="0"/>
        <pt x="65" y="68" on="1"/>
        <pt x="65" y="98" on="0"/>
        <pt x="106" y="139" on="0"/>
      </contour>
    </TTGlyph>
    <TTGlyph name="currency" xMin="78" yMin="103" xMax="600" yMax="645">
      <contour>
        <pt x="220" y="560" on="1"/>
        <pt x="240" y="575" on="0"/>
        <pt x="290" y="596" on="0"/>
        <pt x="318" y="599" on="1"/>
        <pt x="318" y="534" on="1"/>
        <pt x="277" y="524" on="0"/>
        <pt x="228" y="437" on="0"/>
        <pt x="228" y="378" on="1"/>
        <pt x="228" y="317" on="0"/>
        <pt x="275" y="225" on="0"/>
        <pt x="318" y="216" on="1"/>
        <pt x="318" y="151" on="1"/>
        <pt x="259" y="156" on="0"/>
        <pt x="219" y="187" on="1"/>
        <pt x="150" y="103" on="1"/>
        <pt x="78" y="175" on="1"/>
        <pt x="166" y="248" on="1"/>
        <pt x="151" y="275" on="0"/>
        <pt x="135" y="339" on="0"/>
        <pt x="135" y="375" on="1"/>
        <pt x="135" y="446" on="0"/>
        <pt x="167" y="501" on="1"/>
        <pt x="78" y="573" on="1"/>
        <pt x="150" y="645" on="1"/>
      </contour>
      <contour>
        <pt x="544" y="374" on="1"/>
        <pt x="544" y="303" on="0"/>
        <pt x="512" y="249" on="1"/>
        <pt x="600" y="175" on="1"/>
        <pt x="528" y="103" on="1"/>
        <pt x="459" y="187" on="1"/>
        <pt x="439" y="172" on="0"/>
        <pt x="388" y="153" on="0"/>
        <pt x="359" y="151" on="1"/>
        <pt x="359" y="217" on="1"/>
        <pt x="399" y="227" on="0"/>
        <pt x="450" y="312" on="0"/>
        <pt x="450" y="373" on="1"/>
        <pt x="450" y="404" on="0"/>
        <pt x="437" y="458" on="0"/>
        <pt x="414" y="501" on="0"/>
        <pt x="380" y="529" on="0"/>
        <pt x="359" y="535" on="1"/>
        <pt x="359" y="599" on="1"/>
        <pt x="389" y="597" on="0"/>
        <pt x="439" y="578" on="0"/>
        <pt x="460" y="562" on="1"/>
        <pt x="528" y="645" on="1"/>
        <pt x="600" y="573" on="1"/>
        <pt x="512" y="501" on="1"/>
        <pt x="544" y="446" on="0"/>
      </contour>
    </TTGlyph>
    <TTGlyph name="d" xMin="50" yMin="-5" xMax="556" yMax="777">
      <contour>
        <pt x="556" y="777" on="1"/>
        <pt x="556" y="0" on="1"/>
        <pt x="441" y="0" on="1"/>
        <pt x="434" y="67" on="1"/>
        <pt x="434" y="777" on="1"/>
      </contour>
      <contour>
        <pt x="50" y="290" on="1"/>
        <pt x="50" y="368" on="0"/>
        <pt x="93" y="474" on="0"/>
        <pt x="161" y="540" on="0"/>
        <pt x="244" y="569" on="0"/>
        <pt x="284" y="569" on="1"/>
        <pt x="315" y="569" on="0"/>
        <pt x="371" y="555" on="0"/>
        <pt x="393" y="542" on="1"/>
        <pt x="393" y="436" on="1"/>
        <pt x="376" y="454" on="0"/>
        <pt x="334" y="476" on="0"/>
        <pt x="308" y="476" on="1"/>
        <pt x="277" y="476" on="0"/>
        <pt x="229" y="445" on="0"/>
        <pt x="196" y="391" on="0"/>
        <pt x="178" y="321" on="0"/>
        <pt x="178" y="281" on="1"/>
        <pt x="178" y="241" on="0"/>
        <pt x="198" y="172" on="0"/>
        <pt x="232" y="120" on="0"/>
        <pt x="281" y="90" on="0"/>
        <pt x="310" y="90" on="1"/>
        <pt x="359" y="90" on="0"/>
        <pt x="393" y="129" on="1"/>
        <pt x="393" y="25" on="1"/>
        <pt x="369" y="12" on="0"/>
        <pt x="306" y="-5" on="0"/>
        <pt x="271" y="-5" on="1"/>
        <pt x="231" y="-5" on="0"/>
        <pt x="154" y="24" on="0"/>
        <pt x="124" y="57" on="1"/>
        <pt x="86" y="100" on="0"/>
        <pt x="50" y="227" on="0"/>
      </contour>
    </TTGlyph>
    <TTGlyph name="dieresis" xMin="18" yMin="639" xMax="459" yMax="782">
      <contour>
        <pt x="459" y="711" on="1"/>
        <pt x="459" y="681" on="0"/>
        <pt x="417" y="639" on="0"/>
        <pt x="387" y="639" on="1"/>
        <pt x="357" y="639" on="0"/>
        <pt x="315" y="681" on="0"/>
        <pt x="315" y="711" on="1"/>
        <pt x="315" y="741" on="0"/>
        <pt x="357" y="782" on="0"/>
        <pt x="387" y="782" on="1"/>
        <pt x="417" y="782" on="0"/>
        <pt x="459" y="741" on="0"/>
      </contour>
      <contour>
        <pt x="162" y="711" on="1"/>
        <pt x="162" y="681" on="0"/>
        <pt x="120" y="639" on="0"/>
        <pt x="90" y="639" on="1"/>
        <pt x="60" y="639" on="0"/>
        <pt x="18" y="681" on="0"/>
        <pt x="18" y="711" on="1"/>
        <pt x="18" y="741" on="0"/>
        <pt x="60" y="782" on="0"/>
        <pt x="90" y="782" on="1"/>
        <pt x="120" y="782" on="0"/>
        <pt x="162" y="741" on="0"/>
      </contour>
    </TTGlyph>
    <TTGlyph name="divide" xMin="44" yMin="-5" xMax="511" yMax="569">
      <contour>
        <pt x="511" y="343" on="1"/>
        <pt x="511" y="242" on="1"/>
        <pt x="44" y="242" on="1"/>
        <pt x="44" y="343" on="1"/>
      </contour>
      <contour>
        <pt x="344" y="498" on="1"/>
        <pt x="344" y="468" on="0"/>
        <pt x="302" y="426" on="0"/>
        <pt x="272" y="426" on="1"/>
        <pt x="242" y="426" on="0"/>
        <pt x="201" y="468" on="0"/>
        <pt x="201" y="498" on="1"/>
        <pt x="201" y="528" on="0"/>
        <pt x="243" y="569" on="0"/>
        <pt x="272" y="569" on="1"/>
        <pt x="302" y="569" on="0"/>
        <pt x="344" y="528" on="0"/>
      </contour>
      <contour>
        <pt x="344" y="67" on="1"/>
        <pt x="344" y="37" on="0"/>
        <pt x="302" y="-5" on="0"/>
        <pt x="272" y="-5" on="1"/>
        <pt x="242" y="-5" on="0"/>
        <pt x="201" y="37" on="0"/>
        <pt x="201" y="67" on="1"/>
        <pt x="201" y="97" on="0"/>
        <pt x="243" y="138" on="0"/>
        <pt x="272" y="138" on="1"/>
        <pt x="302" y="138" on="0"/>
        <pt x="344" y="97" on="0"/>
      </contour>
    </TTGlyph>
    <TTGlyph name="dollar" xMin="81" yMin="-97" xMax="509" yMax="829">
      <contour>
        <pt x="200" y="547" on="1"/>
        <pt x="200" y="507" on="0"/>
        <pt x="246" y="458" on="0"/>
        <pt x="314" y="421" on="0"/>
        <pt x="394" y="386" on="0"/>
        <pt x="463" y="336" on="0"/>
        <pt x="509" y="261" on="0"/>
        <pt x="509" y="202" on="1"/>
        <pt x="509" y="167" on="0"/>
        <pt x="484" y="101" on="0"/>
        <pt x="437" y="47" on="0"/>
        <pt x="371" y="8" on="0"/>
        <pt x="328" y="1" on="1"/>
        <pt x="328" y="-97" on="1"/>
        <pt x="247" y="-97" on="1"/>
        <pt x="247" y="-3" on="1"/>
        <pt x="204" y="-1" on="0"/>
        <pt x="112" y="23" on="0"/>
        <pt x="81" y="49" on="1"/>
        <pt x="102" y="135" on="1"/>
        <pt x="116" y="127" on="0"/>
        <pt x="159" y="112" on="0"/>
        <pt x="205" y="99" on="0"/>
        <pt x="251" y="91" on="0"/>
        <pt x="271" y="91" on="1"/>
        <pt x="332" y="91" on="0"/>
        <pt x="397" y="148" on="0"/>
        <pt x="397" y="204" on="1"/>
        <pt x="397" y="238" on="0"/>
        <pt x="351" y="286" on="0"/>
        <pt x="282" y="325" on="0"/>
        <pt x="202" y="364" on="0"/>
        <pt x="132" y="417" on="0"/>
        <pt x="86" y="489" on="0"/>
        <pt x="86" y="543" on="1"/>
        <pt x="86" y="584" on="0"/>
        <pt x="113" y="652" on="0"/>
        <pt x="159" y="703" on="0"/>
        <pt x="222" y="736" on="0"/>
        <pt x="258" y="743" on="1"/>
        <pt x="258" y="829" on="1"/>
        <pt x="339" y="829" on="1"/>
        <pt x="339" y="748" on="1"/>
        <pt x="378" y="746" on="0"/>
        <pt x="454" y="729" on="0"/>
        <pt x="478" y="713" on="1"/>
        <pt x="472" y="700" on="0"/>
        <pt x="456" y="669" on="0"/>
        <pt x="442" y="642" on="0"/>
        <pt x="432" y="624" on="0"/>
        <pt x="431" y="623" on="1"/>
        <pt x="425" y="626" on="0"/>
        <pt x="410" y="636" on="0"/>
        <pt x="382" y="646" on="0"/>
        <pt x="336" y="650" on="0"/>
        <pt x="300" y="647" on="1"/>
        <pt x="280" y="645" on="0"/>
        <pt x="244" y="626" on="0"/>
        <pt x="216" y="598" on="0"/>
        <pt x="200" y="563" on="0"/>
      </contour>
    </TTGlyph>
    <TTGlyph name="dotaccent" xMin="72" yMin="639" xMax="215" yMax="782">
      <contour>
        <pt x="215" y="711" on="1"/>
        <pt x="215" y="681" on="0"/>
        <pt x="173" y="639" on="0"/>
        <pt x="143" y="639" on="1"/>
        <pt x="113" y="639" on="0"/>
        <pt x="72" y="681" on="0"/>
        <pt x="72" y="711" on="1"/>
        <pt x="72" y="741" on="0"/>
        <pt x="114" y="782" on="0"/>
        <pt x="143" y="782" on="1"/>
        <pt x="173" y="782" on="0"/>
        <pt x="215" y="741" on="0"/>
      </contour>
    </TTGlyph>
    <TTGlyph name="dotlessi" xMin="85" yMin="0" xMax="207" yMax="564">
      <contour>
        <pt x="207" y="0" on="1"/>
        <pt x="85" y="0" on="1"/>
        <pt x="85" y="564" on="1"/>
        <pt x="207" y="564" on="1"/>
      </contour>
    </TTGlyph>
    <TTGlyph name="down" xMin="83" yMin="-5" xMax="737" yMax="737">
      <contour>
        <pt x="83" y="323" on="1"/>
        <pt x="83" y="523" on="1"/>
        <pt x="410" y="196" on="1"/>
        <pt x="737" y="523" on="1"/>
        <pt x="737" y="322" on="1"/>
        <pt x="411" y="-5" on="1"/>
      </contour>
      <contour>
        <pt x="410" y="254" on="1"/>
        <pt x="349" y="314" on="1"/>
        <pt x="349" y="737" on="1"/>
        <pt x="471" y="737" on="1"/>
        <pt x="471" y="314" on="1"/>
      </contour>
    </TTGlyph>
    <TTGlyph name="downleft" xMin="132" yMin="-2" xMax="736" yMax="603">
      <contour>
        <pt x="273" y="603" on="1"/>
        <pt x="273" y="140" on="1"/>
        <pt x="736" y="140" on="1"/>
        <pt x="594" y="-2" on="1"/>
        <pt x="132" y="-2" on="1"/>
        <pt x="132" y="461" on="1"/>
      </contour>
      <contour>
        <pt x="314" y="267" on="1"/>
        <pt x="613" y="566" on="1"/>
        <pt x="699" y="480" on="1"/>
        <pt x="400" y="181" on="1"/>
        <pt x="314" y="181" on="1"/>
      </contour>
    </TTGlyph>
    <TTGlyph name="downright" xMin="92" yMin="-1" xMax="697" yMax="603">
      <contour>
        <pt x="92" y="140" on="1"/>
        <pt x="555" y="140" on="1"/>
        <pt x="555" y="603" on="1"/>
        <pt x="697" y="461" on="1"/>
        <pt x="697" y="-1" on="1"/>
        <pt x="234" y="-1" on="1"/>
      </contour>
      <contour>
        <pt x="428" y="181" on="1"/>
        <pt x="129" y="480" on="1"/>
        <pt x="215" y="566" on="1"/>
        <pt x="514" y="267" on="1"/>
        <pt x="514" y="181" on="1"/>
      </contour>
    </TTGlyph>
    <TTGlyph name="e" xMin="72" yMin="-4" xMax="584" yMax="570">
      <contour>
        <pt x="348" y="569" on="1"/>
        <pt x="402" y="564" on="0"/>
        <pt x="489" y="516" on="0"/>
        <pt x="551" y="440" on="0"/>
        <pt x="584" y="342" on="0"/>
        <pt x="584" y="289" on="1"/>
        <pt x="584" y="265" on="0"/>
        <pt x="581" y="241" on="1"/>
        <pt x="238" y="241" on="1"/>
        <pt x="238" y="329" on="1"/>
        <pt x="469" y="329" on="1"/>
        <pt x="469" y="355" on="0"/>
        <pt x="452" y="403" on="0"/>
        <pt x="419" y="444" on="0"/>
        <pt x="375" y="472" on="0"/>
        <pt x="348" y="475" on="1"/>
      </contour>
      <contour>
        <pt x="344" y="94" on="1"/>
        <pt x="355" y="94" on="0"/>
        <pt x="388" y="99" on="0"/>
        <pt x="425" y="112" on="0"/>
        <pt x="462" y="132" on="0"/>
        <pt x="476" y="146" on="1"/>
        <pt x="520" y="79" on="1"/>
        <pt x="487" y="38" on="0"/>
        <pt x="399" y="-4" on="0"/>
        <pt x="331" y="-4" on="1"/>
        <pt x="276" y="-4" on="0"/>
        <pt x="180" y="41" on="0"/>
        <pt x="112" y="119" on="0"/>
        <pt x="72" y="223" on="0"/>
        <pt x="72" y="283" on="1"/>
        <pt x="72" y="340" on="0"/>
        <pt x="109" y="442" on="0"/>
        <pt x="173" y="519" on="0"/>
        <pt x="258" y="567" on="0"/>
        <pt x="307" y="570" on="1"/>
        <pt x="307" y="474" on="1"/>
        <pt x="270" y="467" on="0"/>
        <pt x="222" y="421" on="0"/>
        <pt x="195" y="362" on="0"/>
        <pt x="184" y="300" on="0"/>
        <pt x="184" y="278" on="1"/>
        <pt x="184" y="239" on="0"/>
        <pt x="203" y="172" on="0"/>
        <pt x="243" y="123" on="0"/>
        <pt x="302" y="94" on="0"/>
      </contour>
    </TTGlyph>
    <TTGlyph name="eacute" xMin="72" yMin="-4" xMax="584" yMax="777">
      <component glyphName="e" x="0" y="0" flags="0x1204"/>
      <component glyphName="acute" x="214" y="0" flags="0x1004"/>
    </TTGlyph>
    <TTGlyph name="ecircumflex" xMin="72" yMin="-4" xMax="584" yMax="777">
      <component glyphName="e" x="0" y="0" flags="0x1204"/>
      <component glyphName="circumflex" x="155" y="0" flags="0x1004"/>
    </TTGlyph>
    <TTGlyph name="edieresis" xMin="72" yMin="-4" xMax="584" yMax="782">
      <component glyphName="e" x="0" y="0" flags="0x1204"/>
      <component glyphName="dieresis" x="103" y="0" flags="0x1004"/>
    </TTGlyph>
    <TTGlyph name="egrave" xMin="72" yMin="-4" xMax="584" yMax="777">
      <component glyphName="e" x="0" y="0" flags="0x1204"/>
      <component glyphName="grave" x="214" y="0" flags="0x1004"/>
    </TTGlyph>
    <TTGlyph name="eight" xMin="72" yMin="-9" xMax="537" yMax="742">
      <contour>
        <pt x="95" y="551" on="1"/>
        <pt x="95" y="594" on="0"/>
        <pt x="125" y="662" on="0"/>
        <pt x="175" y="710" on="0"/>
        <pt x="244" y="737" on="0"/>
        <pt x="284" y="741" on="1"/>
        <pt x="284" y="644" on="1"/>
        <pt x="245" y="638" on="0"/>
        <pt x="198" y="591" on="0"/>
        <pt x="198" y="549" on="1"/>
        <pt x="198" y="522" on="0"/>
        <pt x="247" y="478" on="0"/>
        <pt x="284" y="457" on="1"/>
        <pt x="284" y="336" on="1"/>
        <pt x="268" y="345" on="1"/>
        <pt x="255" y="334" on="0"/>
        <pt x="224" y="306" on="0"/>
        <pt x="198" y="270" on="0"/>
        <pt x="179" y="224" on="0"/>
        <pt x="179" y="197" on="1"/>
        <pt x="179" y="155" on="0"/>
        <pt x="238" y="95" on="0"/>
        <pt x="284" y="87" on="1"/>
        <pt x="284" y="-8" on="1"/>
        <pt x="182" y="-2" on="0"/>
        <pt x="72" y="102" on="0"/>
        <pt x="72" y="191" on="1"/>
        <pt x="72" y="265" on="0"/>
        <pt x="141" y="366" on="0"/>
        <pt x="197" y="391" on="1"/>
        <pt x="154" y="422" on="0"/>
        <pt x="95" y="499" on="0"/>
      </contour>
      <contour>
        <pt x="402" y="388" on="1"/>
        <pt x="429" y="371" on="0"/>
        <pt x="478" y="332" on="0"/>
        <pt x="515" y="285" on="0"/>
        <pt x="537" y="229" on="0"/>
        <pt x="537" y="196" on="1"/>
        <pt x="537" y="150" on="0"/>
        <pt x="503" y="76" on="0"/>
        <pt x="445" y="24" on="0"/>
        <pt x="368" y="-7" on="0"/>
        <pt x="325" y="-9" on="1"/>
        <pt x="325" y="86" on="1"/>
        <pt x="348" y="88" on="0"/>
        <pt x="385" y="106" on="0"/>
        <pt x="413" y="133" on="0"/>
        <pt x="429" y="165" on="0"/>
        <pt x="429" y="182" on="1"/>
        <pt x="429" y="222" on="0"/>
        <pt x="368" y="283" on="0"/>
        <pt x="325" y="310" on="1"/>
        <pt x="325" y="434" on="1"/>
        <pt x="329" y="431" on="0"/>
        <pt x="337" y="427" on="1"/>
        <pt x="363" y="449" on="0"/>
        <pt x="407" y="509" on="0"/>
        <pt x="407" y="551" on="1"/>
        <pt x="407" y="603" on="0"/>
        <pt x="359" y="643" on="0"/>
        <pt x="325" y="645" on="1"/>
        <pt x="325" y="742" on="1"/>
        <pt x="375" y="740" on="0"/>
        <pt x="445" y="708" on="0"/>
        <pt x="489" y="655" on="0"/>
        <pt x="509" y="589" on="0"/>
        <pt x="509" y="553" on="1"/>
        <pt x="509" y="529" on="0"/>
        <pt x="490" y="484" on="0"/>
        <pt x="460" y="442" on="0"/>
        <pt x="421" y="404" on="0"/>
      </contour>
    </TTGlyph>
    <TTGlyph name="emdash" xMin="86" yMin="242" xMax="831" yMax="343">
      <contour>
        <pt x="831" y="343" on="1"/>
        <pt x="831" y="242" on="1"/>
        <pt x="86" y="242" on="1"/>
        <pt x="86" y="343" on="1"/>
      </contour>
    </TTGlyph>
    <TTGlyph name="endash" xMin="86" yMin="242" xMax="553" yMax="343">
      <contour>
        <pt x="553" y="343" on="1"/>
        <pt x="553" y="242" on="1"/>
        <pt x="86" y="242" on="1"/>
        <pt x="86" y="343" on="1"/>
      </contour>
    </TTGlyph>
    <TTGlyph name="equal" xMin="86" yMin="140" xMax="553" yMax="444">
      <contour>
        <pt x="553" y="444" on="1"/>
        <pt x="553" y="343" on="1"/>
        <pt x="86" y="343" on="1"/>
        <pt x="86" y="444" on="1"/>
      </contour>
      <contour>
        <pt x="553" y="242" on="1"/>
        <pt x="553" y="140" on="1"/>
        <pt x="86" y="140" on="1"/>
        <pt x="86" y="242" on="1"/>
      </contour>
    </TTGlyph>
    <TTGlyph name="eth" xMin="70" yMin="-5" xMax="572" yMax="799">
      <contour>
        <pt x="70" y="264" on="1"/>
        <pt x="70" y="305" on="0"/>
        <pt x="100" y="389" on="0"/>
        <pt x="159" y="456" on="0"/>
        <pt x="242" y="499" on="0"/>
        <pt x="294" y="500" on="1"/>
        <pt x="294" y="409" on="1"/>
        <pt x="242" y="401" on="0"/>
        <pt x="175" y="317" on="0"/>
        <pt x="175" y="254" on="1"/>
        <pt x="175" y="189" on="0"/>
        <pt x="242" y="102" on="0"/>
        <pt x="294" y="94" on="1"/>
        <pt x="294" y="-4" on="1"/>
        <pt x="258" y="-1" on="0"/>
        <pt x="179" y="30" on="0"/>
        <pt x="113" y="93" on="0"/>
        <pt x="70" y="191" on="0"/>
      </contour>
      <contour>
        <pt x="477" y="671" on="1"/>
        <pt x="520" y="621" on="0"/>
        <pt x="572" y="432" on="0"/>
        <pt x="572" y="292" on="1"/>
        <pt x="572" y="230" on="0"/>
        <pt x="544" y="124" on="0"/>
        <pt x="485" y="45" on="0"/>
        <pt x="395" y="-2" on="0"/>
        <pt x="335" y="-5" on="1"/>
        <pt x="335" y="93" on="1"/>
        <pt x="362" y="97" on="0"/>
        <pt x="407" y="124" on="0"/>
        <pt x="440" y="166" on="0"/>
        <pt x="459" y="221" on="0"/>
        <pt x="459" y="254" on="1"/>
        <pt x="459" y="319" on="0"/>
        <pt x="388" y="401" on="0"/>
        <pt x="335" y="410" on="1"/>
        <pt x="335" y="497" on="1"/>
        <pt x="375" y="492" on="0"/>
        <pt x="435" y="458" on="0"/>
        <pt x="446" y="436" on="1"/>
        <pt x="447" y="435" on="0"/>
        <pt x="453" y="435" on="0"/>
        <pt x="454" y="434" on="1"/>
        <pt x="453" y="479" on="0"/>
        <pt x="431" y="572" on="0"/>
        <pt x="409" y="602" on="1"/>
        <pt x="351" y="545" on="1"/>
        <pt x="280" y="616" on="1"/>
        <pt x="327" y="665" on="1"/>
        <pt x="322" y="671" on="0"/>
        <pt x="299" y="685" on="0"/>
        <pt x="270" y="699" on="0"/>
        <pt x="240" y="712" on="0"/>
        <pt x="226" y="716" on="1"/>
        <pt x="226" y="778" on="1"/>
        <pt x="254" y="778" on="0"/>
        <pt x="308" y="769" on="0"/>
        <pt x="354" y="755" on="0"/>
        <pt x="388" y="739" on="0"/>
        <pt x="396" y="733" on="1"/>
        <pt x="463" y="799" on="1"/>
        <pt x="535" y="727" on="1"/>
      </contour>
    </TTGlyph>
    <TTGlyph name="exclam" xMin="75" yMin="-4" xMax="218" yMax="737">
      <contour>
        <pt x="190" y="204" on="1"/>
        <pt x="101" y="204" on="1"/>
        <pt x="85" y="737" on="1"/>
        <pt x="207" y="737" on="1"/>
      </contour>
      <contour>
        <pt x="218" y="68" on="1"/>
        <pt x="218" y="38" on="0"/>
        <pt x="176" y="-4" on="0"/>
        <pt x="146" y="-4" on="1"/>
        <pt x="116" y="-4" on="0"/>
        <pt x="75" y="38" on="0"/>
        <pt x="75" y="68" on="1"/>
        <pt x="75" y="98" on="0"/>
        <pt x="117" y="139" on="0"/>
        <pt x="146" y="139" on="1"/>
        <pt x="176" y="139" on="0"/>
        <pt x="218" y="98" on="0"/>
      </contour>
    </TTGlyph>
    <TTGlyph name="exclamdown" xMin="75" yMin="0" xMax="218" yMax="741">
      <component glyphName="exclam" x="0" y="737" scalex="1.0" scaley="-0.999938964844" flags="0x1004"/>
    </TTGlyph>
    <TTGlyph name="f" xMin="55" yMin="0" xMax="427" yMax="781">
      <contour>
        <pt x="327" y="693" on="1"/>
        <pt x="307" y="693" on="0"/>
        <pt x="280" y="673" on="0"/>
        <pt x="262" y="637" on="0"/>
        <pt x="254" y="590" on="0"/>
        <pt x="253" y="564" on="1"/>
        <pt x="340" y="564" on="1"/>
        <pt x="340" y="482" on="1"/>
        <pt x="251" y="482" on="1"/>
        <pt x="251" y="434" on="1"/>
        <pt x="251" y="0" on="1"/>
        <pt x="129" y="0" on="1"/>
        <pt x="129" y="434" on="1"/>
        <pt x="129" y="482" on="1"/>
        <pt x="55" y="482" on="1"/>
        <pt x="55" y="564" on="1"/>
        <pt x="131" y="564" on="1"/>
        <pt x="134" y="607" on="0"/>
        <pt x="152" y="686" on="0"/>
        <pt x="191" y="745" on="0"/>
        <pt x="258" y="781" on="0"/>
        <pt x="309" y="781" on="1"/>
        <pt x="324" y="781" on="0"/>
        <pt x="358" y="776" on="0"/>
        <pt x="391" y="769" on="0"/>
        <pt x="419" y="759" on="0"/>
        <pt x="427" y="753" on="1"/>
        <pt x="388" y="681" on="1"/>
        <pt x="374" y="689" on="0"/>
        <pt x="335" y="693" on="0"/>
      </contour>
    </TTGlyph>
    <TTGlyph name="five" xMin="78" yMin="-5" xMax="528" yMax="737">
      <contour>
        <pt x="305" y="458" on="1"/>
        <pt x="357" y="458" on="0"/>
        <pt x="440" y="421" on="0"/>
        <pt x="498" y="359" on="0"/>
        <pt x="528" y="281" on="0"/>
        <pt x="528" y="239" on="1"/>
        <pt x="528" y="157" on="0"/>
        <pt x="474" y="60" on="0"/>
        <pt x="395" y="9" on="0"/>
        <pt x="309" y="-5" on="0"/>
        <pt x="278" y="-5" on="1"/>
        <pt x="244" y="-5" on="0"/>
        <pt x="182" y="6" on="0"/>
        <pt x="131" y="23" on="0"/>
        <pt x="93" y="40" on="0"/>
        <pt x="83" y="45" on="1"/>
        <pt x="83" y="145" on="1"/>
        <pt x="97" y="136" on="0"/>
        <pt x="140" y="115" on="0"/>
        <pt x="188" y="96" on="0"/>
        <pt x="241" y="84" on="0"/>
        <pt x="264" y="84" on="1"/>
        <pt x="338" y="84" on="0"/>
        <pt x="422" y="160" on="0"/>
        <pt x="422" y="239" on="1"/>
        <pt x="422" y="296" on="0"/>
        <pt x="349" y="362" on="0"/>
        <pt x="290" y="362" on="1"/>
        <pt x="271" y="362" on="0"/>
        <pt x="233" y="357" on="0"/>
        <pt x="216" y="352" on="1"/>
        <pt x="228" y="451" on="1"/>
        <pt x="248" y="455" on="0"/>
        <pt x="293" y="458" on="0"/>
      </contour>
      <contour>
        <pt x="172" y="326" on="1"/>
        <pt x="78" y="326" on="1"/>
        <pt x="78" y="334" on="0"/>
        <pt x="82" y="378" on="0"/>
        <pt x="88" y="439" on="0"/>
        <pt x="96" y="511" on="0"/>
        <pt x="100" y="548" on="1"/>
        <pt x="110" y="634" on="0"/>
        <pt x="123" y="737" on="1"/>
        <pt x="488" y="737" on="1"/>
        <pt x="488" y="639" on="1"/>
        <pt x="213" y="639" on="1"/>
        <pt x="203" y="565" on="0"/>
        <pt x="191" y="483" on="0"/>
        <pt x="186" y="443" on="0"/>
        <pt x="185" y="434" on="0"/>
        <pt x="185" y="433" on="1"/>
        <pt x="177" y="366" on="1"/>
      </contour>
    </TTGlyph>
    <TTGlyph name="food" xMin="98" yMin="0" xMax="470" yMax="742">
      <contour>
        <pt x="427" y="518" on="1"/>
        <pt x="409" y="500" on="0"/>
        <pt x="372" y="481" on="0"/>
        <pt x="357" y="478" on="1"/>
        <pt x="340" y="474" on="0"/>
        <pt x="325" y="475" on="1"/>
        <pt x="324" y="490" on="0"/>
        <pt x="328" y="508" on="1"/>
        <pt x="331" y="522" on="0"/>
        <pt x="349" y="558" on="0"/>
        <pt x="368" y="577" on="1"/>
        <pt x="386" y="595" on="0"/>
        <pt x="423" y="612" on="0"/>
        <pt x="437" y="616" on="1"/>
        <pt x="454" y="620" on="0"/>
        <pt x="470" y="620" on="1"/>
        <pt x="471" y="605" on="0"/>
        <pt x="467" y="587" on="1"/>
        <pt x="463" y="573" on="0"/>
        <pt x="444" y="536" on="0"/>
      </contour>
      <contour>
        <pt x="427" y="395" on="1"/>
        <pt x="409" y="377" on="0"/>
        <pt x="372" y="358" on="0"/>
        <pt x="357" y="355" on="1"/>
        <pt x="340" y="351" on="0"/>
        <pt x="325" y="352" on="1"/>
        <pt x="324" y="366" on="0"/>
        <pt x="328" y="384" on="1"/>
        <pt x="331" y="398" on="0"/>
        <pt x="349" y="435" on="0"/>
        <pt x="368" y="454" on="1"/>
        <pt x="386" y="472" on="0"/>
        <pt x="423" y="489" on="0"/>
        <pt x="437" y="494" on="1"/>
        <pt x="454" y="498" on="0"/>
        <pt x="470" y="497" on="1"/>
        <pt x="471" y="482" on="0"/>
        <pt x="467" y="464" on="1"/>
        <pt x="463" y="450" on="0"/>
        <pt x="444" y="413" on="0"/>
      </contour>
      <contour>
        <pt x="427" y="272" on="1"/>
        <pt x="409" y="254" on="0"/>
        <pt x="372" y="236" on="0"/>
        <pt x="357" y="232" on="1"/>
        <pt x="340" y="228" on="0"/>
        <pt x="325" y="229" on="1"/>
        <pt x="324" y="243" on="0"/>
        <pt x="328" y="261" on="1"/>
        <pt x="331" y="275" on="0"/>
        <pt x="349" y="312" on="0"/>
        <pt x="368" y="331" on="1"/>
        <pt x="386" y="349" on="0"/>
        <pt x="423" y="367" on="0"/>
        <pt x="437" y="371" on="1"/>
        <pt x="454" y="375" on="0"/>
        <pt x="470" y="374" on="1"/>
        <pt x="471" y="359" on="0"/>
        <pt x="467" y="341" on="1"/>
        <pt x="463" y="327" on="0"/>
        <pt x="444" y="290" on="0"/>
      </contour>
      <contour>
        <pt x="427" y="641" on="1"/>
        <pt x="409" y="623" on="0"/>
        <pt x="372" y="604" on="0"/>
        <pt x="357" y="601" on="1"/>
        <pt x="340" y="597" on="0"/>
        <pt x="325" y="598" on="1"/>
        <pt x="324" y="613" on="0"/>
        <pt x="328" y="631" on="1"/>
        <pt x="331" y="645" on="0"/>
        <pt x="349" y="682" on="0"/>
        <pt x="368" y="700" on="1"/>
        <pt x="386" y="717" on="0"/>
        <pt x="423" y="736" on="0"/>
        <pt x="437" y="739" on="1"/>
        <pt x="454" y="743" on="0"/>
        <pt x="470" y="742" on="1"/>
        <pt x="471" y="727" on="0"/>
        <pt x="467" y="710" on="1"/>
        <pt x="463" y="696" on="0"/>
        <pt x="444" y="659" on="0"/>
      </contour>
      <contour>
        <pt x="123" y="536" on="0"/>
        <pt x="105" y="573" on="0"/>
        <pt x="101" y="587" on="1"/>
        <pt x="97" y="605" on="0"/>
        <pt x="98" y="620" on="1"/>
        <pt x="114" y="620" on="0"/>
        <pt x="131" y="616" on="1"/>
        <pt x="145" y="612" on="0"/>
        <pt x="183" y="595" on="0"/>
        <pt x="201" y="577" on="1"/>
        <pt x="219" y="558" on="0"/>
        <pt x="237" y="522" on="0"/>
        <pt x="241" y="508" on="1"/>
        <pt x="245" y="490" on="0"/>
        <pt x="244" y="475" on="1"/>
        <pt x="228" y="474" on="0"/>
        <pt x="211" y="478" on="1"/>
        <pt x="197" y="481" on="0"/>
        <pt x="159" y="500" on="0"/>
        <pt x="141" y="518" on="1"/>
      </contour>
      <contour>
        <pt x="123" y="413" on="0"/>
        <pt x="105" y="450" on="0"/>
        <pt x="101" y="464" on="1"/>
        <pt x="97" y="482" on="0"/>
        <pt x="98" y="497" on="1"/>
        <pt x="114" y="498" on="0"/>
        <pt x="131" y="494" on="1"/>
        <pt x="145" y="489" on="0"/>
        <pt x="183" y="472" on="0"/>
        <pt x="201" y="454" on="1"/>
        <pt x="219" y="435" on="0"/>
        <pt x="237" y="398" on="0"/>
        <pt x="241" y="384" on="1"/>
        <pt x="245" y="366" on="0"/>
        <pt x="244" y="352" on="1"/>
        <pt x="228" y="351" on="0"/>
        <pt x="211" y="355" on="1"/>
        <pt x="197" y="358" on="0"/>
        <pt x="159" y="377" on="0"/>
        <pt x="141" y="395" on="1"/>
      </contour>
      <contour>
        <pt x="123" y="290" on="0"/>
        <pt x="105" y="327" on="0"/>
        <pt x="101" y="341" on="1"/>
        <pt x="97" y="359" on="0"/>
        <pt x="98" y="374" on="1"/>
        <pt x="114" y="375" on="0"/>
        <pt x="131" y="371" on="1"/>
        <pt x="145" y="367" on="0"/>
        <pt x="183" y="349" on="0"/>
        <pt x="201" y="331" on="1"/>
        <pt x="219" y="312" on="0"/>
        <pt x="237" y="275" on="0"/>
        <pt x="241" y="261" on="1"/>
        <pt x="245" y="243" on="0"/>
        <pt x="244" y="229" on="1"/>
        <pt x="228" y="228" on="0"/>
        <pt x="211" y="232" on="1"/>
        <pt x="197" y="236" on="0"/>
        <pt x="159" y="254" on="0"/>
        <pt x="141" y="272" on="1"/>
      </contour>
      <contour>
        <pt x="123" y="659" on="0"/>
        <pt x="105" y="696" on="0"/>
        <pt x="101" y="710" on="1"/>
        <pt x="97" y="727" on="0"/>
        <pt x="98" y="742" on="1"/>
        <pt x="114" y="743" on="0"/>
        <pt x="131" y="739" on="1"/>
        <pt x="145" y="736" on="0"/>
        <pt x="183" y="717" on="0"/>
        <pt x="201" y="700" on="1"/>
        <pt x="219" y="682" on="0"/>
        <pt x="237" y="645" on="0"/>
        <pt x="241" y="631" on="1"/>
        <pt x="245" y="613" on="0"/>
        <pt x="244" y="598" on="1"/>
        <pt x="228" y="597" on="0"/>
        <pt x="211" y="601" on="1"/>
        <pt x="197" y="604" on="0"/>
        <pt x="159" y="623" on="0"/>
        <pt x="141" y="641" on="1"/>
      </contour>
      <contour>
        <pt x="304" y="0" on="1"/>
        <pt x="264" y="0" on="1"/>
        <pt x="264" y="707" on="1"/>
        <pt x="304" y="707" on="1"/>
      </contour>
    </TTGlyph>
    <TTGlyph name="four" xMin="38" yMin="0" xMax="556" yMax="737">
      <contour>
        <pt x="479" y="267" on="1"/>
        <pt x="556" y="267" on="1"/>
        <pt x="556" y="172" on="1"/>
        <pt x="479" y="172" on="1"/>
        <pt x="479" y="0" on="1"/>
        <pt x="357" y="0" on="1"/>
        <pt x="357" y="737" on="1"/>
        <pt x="479" y="737" on="1"/>
      </contour>
      <contour>
        <pt x="38" y="172" on="1"/>
        <pt x="38" y="267" on="1"/>
        <pt x="316" y="677" on="1"/>
        <pt x="316" y="534" on="1"/>
        <pt x="145" y="267" on="1"/>
        <pt x="316" y="267" on="1"/>
        <pt x="316" y="172" on="1"/>
      </contour>
    </TTGlyph>
    <TTGlyph name="fruit" xMin="116" yMin="-5" xMax="578" yMax="748">
      <contour>
        <pt x="347" y="523" on="1"/>
        <pt x="401" y="523" on="0"/>
        <pt x="487" y="485" on="0"/>
        <pt x="547" y="416" on="0"/>
        <pt x="578" y="319" on="0"/>
        <pt x="578" y="261" on="1"/>
        <pt x="578" y="212" on="0"/>
        <pt x="545" y="117" on="0"/>
        <pt x="485" y="41" on="0"/>
        <pt x="400" y="-5" on="0"/>
        <pt x="347" y="-5" on="1"/>
        <pt x="294" y="-5" on="0"/>
        <pt x="208" y="41" on="0"/>
        <pt x="148" y="117" on="0"/>
        <pt x="116" y="212" on="0"/>
        <pt x="116" y="261" on="1"/>
        <pt x="116" y="319" on="0"/>
        <pt x="146" y="416" on="0"/>
        <pt x="206" y="485" on="0"/>
        <pt x="292" y="523" on="0"/>
      </contour>
      <contour>
        <pt x="454" y="597" on="1"/>
        <pt x="436" y="579" on="0"/>
        <pt x="398" y="560" on="0"/>
        <pt x="384" y="557" on="1"/>
        <pt x="367" y="553" on="0"/>
        <pt x="352" y="554" on="1"/>
        <pt x="351" y="569" on="0"/>
        <pt x="355" y="587" on="1"/>
        <pt x="358" y="601" on="0"/>
        <pt x="376" y="637" on="0"/>
        <pt x="394" y="655" on="1"/>
        <pt x="412" y="673" on="0"/>
        <pt x="450" y="691" on="0"/>
        <pt x="464" y="695" on="1"/>
        <pt x="481" y="699" on="0"/>
        <pt x="497" y="698" on="1"/>
        <pt x="498" y="683" on="0"/>
        <pt x="494" y="666" on="1"/>
        <pt x="490" y="652" on="0"/>
        <pt x="472" y="615" on="0"/>
      </contour>
      <contour>
        <pt x="332" y="554" on="1"/>
        <pt x="310" y="553" on="0"/>
        <pt x="288" y="558" on="1"/>
        <pt x="269" y="563" on="0"/>
        <pt x="219" y="587" on="0"/>
        <pt x="196" y="611" on="1"/>
        <pt x="171" y="636" on="0"/>
        <pt x="147" y="684" on="0"/>
        <pt x="142" y="703" on="1"/>
        <pt x="137" y="726" on="0"/>
        <pt x="138" y="748" on="1"/>
        <pt x="158" y="748" on="0"/>
        <pt x="181" y="742" on="1"/>
        <pt x="200" y="737" on="0"/>
        <pt x="250" y="714" on="0"/>
        <pt x="274" y="689" on="1"/>
        <pt x="299" y="664" on="0"/>
        <pt x="323" y="616" on="0"/>
        <pt x="328" y="597" on="1"/>
        <pt x="333" y="574" on="0"/>
      </contour>
    </TTGlyph>
    <TTGlyph name="g" xMin="69" yMin="-227" xMax="574" yMax="569">
      <contour>
        <pt x="291" y="-5" on="1"/>
        <pt x="235" y="-5" on="0"/>
        <pt x="151" y="44" on="0"/>
        <pt x="95" y="126" on="0"/>
        <pt x="69" y="232" on="0"/>
        <pt x="69" y="290" on="1"/>
        <pt x="69" y="368" on="0"/>
        <pt x="112" y="474" on="0"/>
        <pt x="179" y="541" on="0"/>
        <pt x="262" y="569" on="0"/>
        <pt x="302" y="569" on="1"/>
        <pt x="333" y="569" on="0"/>
        <pt x="389" y="555" on="0"/>
        <pt x="412" y="542" on="1"/>
        <pt x="412" y="436" on="1"/>
        <pt x="396" y="454" on="0"/>
        <pt x="353" y="476" on="0"/>
        <pt x="328" y="476" on="1"/>
        <pt x="298" y="476" on="0"/>
        <pt x="249" y="445" on="0"/>
        <pt x="215" y="393" on="0"/>
        <pt x="197" y="323" on="0"/>
        <pt x="197" y="284" on="1"/>
        <pt x="197" y="244" on="0"/>
        <pt x="216" y="173" on="0"/>
        <pt x="251" y="121" on="0"/>
        <pt x="300" y="90" on="0"/>
        <pt x="330" y="90" on="1"/>
        <pt x="355" y="90" on="0"/>
        <pt x="395" y="111" on="0"/>
        <pt x="412" y="128" on="1"/>
        <pt x="412" y="24" on="1"/>
        <pt x="388" y="12" on="0"/>
        <pt x="326" y="-5" on="0"/>
      </contour>
      <contour>
        <pt x="574" y="564" on="1"/>
        <pt x="573" y="0" on="1"/>
        <pt x="569" y="-61" on="0"/>
        <pt x="528" y="-147" on="0"/>
        <pt x="464" y="-203" on="0"/>
        <pt x="380" y="-227" on="0"/>
        <pt x="332" y="-227" on="1"/>
        <pt x="276" y="-227" on="0"/>
        <pt x="167" y="-188" on="0"/>
        <pt x="131" y="-142" on="1"/>
        <pt x="201" y="-73" on="1"/>
        <pt x="211" y="-90" on="0"/>
        <pt x="242" y="-112" on="0"/>
        <pt x="275" y="-124" on="0"/>
        <pt x="308" y="-129" on="0"/>
        <pt x="321" y="-129" on="1"/>
        <pt x="383" y="-129" on="0"/>
        <pt x="453" y="-57" on="0"/>
        <pt x="453" y="30" on="1"/>
        <pt x="453" y="507" on="1"/>
        <pt x="466" y="564" on="1"/>
      </contour>
    </TTGlyph>
    <TTGlyph name="germandbls" xMin="81" yMin="-5" xMax="582" yMax="782">
      <contour>
        <pt x="460" y="388" on="1"/>
        <pt x="483" y="385" on="0"/>
        <pt x="526" y="361" on="0"/>
        <pt x="560" y="317" on="0"/>
        <pt x="582" y="254" on="0"/>
        <pt x="582" y="213" on="1"/>
        <pt x="582" y="163" on="0"/>
        <pt x="562" y="90" on="0"/>
        <pt x="531" y="42" on="0"/>
        <pt x="493" y="13" on="0"/>
        <pt x="455" y="-1" on="0"/>
        <pt x="420" y="-5" on="0"/>
        <pt x="409" y="-5" on="1"/>
        <pt x="367" y="-5" on="0"/>
        <pt x="313" y="2" on="0"/>
        <pt x="280" y="12" on="0"/>
        <pt x="259" y="25" on="0"/>
        <pt x="250" y="30" on="1"/>
        <pt x="278" y="106" on="1"/>
        <pt x="295" y="98" on="0"/>
        <pt x="343" y="81" on="0"/>
        <pt x="391" y="81" on="1"/>
        <pt x="430" y="81" on="0"/>
        <pt x="467" y="156" on="0"/>
        <pt x="467" y="213" on="1"/>
        <pt x="467" y="240" on="0"/>
        <pt x="452" y="287" on="0"/>
        <pt x="425" y="322" on="0"/>
        <pt x="387" y="341" on="0"/>
        <pt x="366" y="341" on="1"/>
        <pt x="295" y="341" on="1"/>
        <pt x="295" y="422" on="1"/>
        <pt x="351" y="422" on="1"/>
        <pt x="367" y="422" on="0"/>
        <pt x="398" y="433" on="0"/>
        <pt x="423" y="462" on="0"/>
        <pt x="440" y="510" on="0"/>
        <pt x="443" y="548" on="1"/>
        <pt x="443" y="624" on="0"/>
        <pt x="379" y="688" on="0"/>
        <pt x="330" y="688" on="1"/>
        <pt x="273" y="688" on="0"/>
        <pt x="244" y="650" on="1"/>
        <pt x="244" y="772" on="1"/>
        <pt x="262" y="777" on="0"/>
        <pt x="303" y="782" on="0"/>
        <pt x="327" y="782" on="1"/>
        <pt x="377" y="782" on="0"/>
        <pt x="461" y="753" on="0"/>
        <pt x="521" y="694" on="0"/>
        <pt x="555" y="606" on="0"/>
        <pt x="555" y="548" on="1"/>
        <pt x="552" y="521" on="0"/>
        <pt x="534" y="467" on="0"/>
        <pt x="509" y="423" on="0"/>
        <pt x="477" y="392" on="0"/>
      </contour>
      <contour>
        <pt x="81" y="396" on="1"/>
        <pt x="81" y="535" on="0"/>
        <pt x="132" y="716" on="0"/>
        <pt x="203" y="755" on="1"/>
        <pt x="203" y="0" on="1"/>
        <pt x="81" y="0" on="1"/>
      </contour>
    </TTGlyph>
    <TTGlyph name="grave" xMin="24" yMin="635" xMax="213" yMax="777">
      <contour>
        <pt x="24" y="777" on="1"/>
        <pt x="145" y="777" on="1"/>
        <pt x="213" y="635" on="1"/>
        <pt x="132" y="635" on="1"/>
      </contour>
    </TTGlyph>
    <TTGlyph name="greater" xMin="86" yMin="-6" xMax="618" yMax="579">
      <contour>
        <pt x="86" y="84" on="1"/>
        <pt x="524" y="288" on="1"/>
        <pt x="86" y="489" on="1"/>
        <pt x="86" y="579" on="1"/>
        <pt x="618" y="322" on="1"/>
        <pt x="618" y="254" on="1"/>
        <pt x="86" y="-6" on="1"/>
      </contour>
    </TTGlyph>
    <TTGlyph name="guillemotleft" xMin="77" yMin="31" xMax="658" yMax="534">
      <contour>
        <pt x="402" y="534" on="1"/>
        <pt x="213" y="302" on="1"/>
        <pt x="77" y="302" on="1"/>
        <pt x="265" y="534" on="1"/>
      </contour>
      <contour>
        <pt x="469" y="302" on="1"/>
        <pt x="333" y="302" on="1"/>
        <pt x="521" y="534" on="1"/>
        <pt x="658" y="534" on="1"/>
      </contour>
      <contour>
        <pt x="77" y="261" on="1"/>
        <pt x="214" y="261" on="1"/>
        <pt x="401" y="31" on="1"/>
        <pt x="262" y="31" on="1"/>
      </contour>
      <contour>
        <pt x="333" y="261" on="1"/>
        <pt x="470" y="261" on="1"/>
        <pt x="657" y="31" on="1"/>
        <pt x="518" y="31" on="1"/>
      </contour>
    </TTGlyph>
    <TTGlyph name="guillemotright" xMin="78" yMin="31" xMax="659" yMax="534">
      <contour>
        <pt x="659" y="302" on="1"/>
        <pt x="523" y="302" on="1"/>
        <pt x="334" y="534" on="1"/>
        <pt x="471" y="534" on="1"/>
      </contour>
      <contour>
        <pt x="403" y="302" on="1"/>
        <pt x="267" y="302" on="1"/>
        <pt x="78" y="534" on="1"/>
        <pt x="215" y="534" on="1"/>
      </contour>
      <contour>
        <pt x="266" y="261" on="1"/>
        <pt x="402" y="261" on="1"/>
        <pt x="218" y="31" on="1"/>
        <pt x="79" y="31" on="1"/>
      </contour>
      <contour>
        <pt x="335" y="31" on="1"/>
        <pt x="522" y="261" on="1"/>
        <pt x="658" y="261" on="1"/>
        <pt x="474" y="31" on="1"/>
      </contour>
    </TTGlyph>
    <TTGlyph name="guilsinglleft" xMin="44" yMin="31" xMax="386" yMax="534">
      <contour>
        <pt x="180" y="283" on="1"/>
        <pt x="385" y="31" on="1"/>
        <pt x="246" y="31" on="1"/>
        <pt x="44" y="283" on="1"/>
        <pt x="249" y="534" on="1"/>
        <pt x="386" y="534" on="1"/>
      </contour>
    </TTGlyph>
    <TTGlyph name="guilsinglright" xMin="72" yMin="31" xMax="414" yMax="534">
      <contour>
        <pt x="72" y="534" on="1"/>
        <pt x="209" y="534" on="1"/>
        <pt x="414" y="283" on="1"/>
        <pt x="212" y="31" on="1"/>
        <pt x="73" y="31" on="1"/>
        <pt x="278" y="283" on="1"/>
      </contour>
    </TTGlyph>
    <TTGlyph name="h" xMin="86" yMin="0" xMax="553" yMax="777">
      <contour>
        <pt x="86" y="777" on="1"/>
        <pt x="207" y="777" on="1"/>
        <pt x="207" y="0" on="1"/>
        <pt x="86" y="0" on="1"/>
      </contour>
      <contour>
        <pt x="506" y="502" on="1"/>
        <pt x="523" y="485" on="0"/>
        <pt x="542" y="440" on="0"/>
        <pt x="551" y="391" on="0"/>
        <pt x="553" y="341" on="0"/>
        <pt x="553" y="317" on="1"/>
        <pt x="553" y="20" on="1"/>
        <pt x="553" y="0" on="1"/>
        <pt x="431" y="0" on="1"/>
        <pt x="431" y="307" on="1"/>
        <pt x="431" y="341" on="0"/>
        <pt x="425" y="403" on="0"/>
        <pt x="403" y="451" on="0"/>
        <pt x="365" y="478" on="0"/>
        <pt x="331" y="478" on="1"/>
        <pt x="317" y="478" on="0"/>
        <pt x="270" y="469" on="0"/>
        <pt x="248" y="459" on="1"/>
        <pt x="248" y="536" on="1"/>
        <pt x="275" y="550" on="0"/>
        <pt x="338" y="570" on="0"/>
        <pt x="368" y="570" on="1"/>
        <pt x="413" y="570" on="0"/>
        <pt x="475" y="533" on="0"/>
      </contour>
    </TTGlyph>
    <TTGlyph name="hungarumlaut" xMin="24" yMin="635" xMax="437" yMax="777">
      <contour>
        <pt x="213" y="777" on="1"/>
        <pt x="104" y="635" on="1"/>
        <pt x="24" y="635" on="1"/>
        <pt x="91" y="777" on="1"/>
      </contour>
      <contour>
        <pt x="437" y="777" on="1"/>
        <pt x="329" y="635" on="1"/>
        <pt x="248" y="635" on="1"/>
        <pt x="315" y="777" on="1"/>
      </contour>
    </TTGlyph>
    <TTGlyph name="hyphen" xMin="86" yMin="242" xMax="404" yMax="343">
      <contour>
        <pt x="404" y="343" on="1"/>
        <pt x="404" y="242" on="1"/>
        <pt x="86" y="242" on="1"/>
        <pt x="86" y="343" on="1"/>
      </contour>
    </TTGlyph>
    <TTGlyph name="i" xMin="75" yMin="0" xMax="218" yMax="816">
      <contour>
        <pt x="207" y="0" on="1"/>
        <pt x="85" y="0" on="1"/>
        <pt x="85" y="564" on="1"/>
        <pt x="207" y="564" on="1"/>
      </contour>
      <contour>
        <pt x="218" y="744" on="1"/>
        <pt x="218" y="714" on="0"/>
        <pt x="176" y="673" on="0"/>
        <pt x="146" y="673" on="1"/>
        <pt x="116" y="673" on="0"/>
        <pt x="75" y="715" on="0"/>
        <pt x="75" y="744" on="1"/>
        <pt x="75" y="774" on="0"/>
        <pt x="117" y="816" on="0"/>
        <pt x="146" y="816" on="1"/>
        <pt x="176" y="816" on="0"/>
        <pt x="218" y="774" on="0"/>
      </contour>
    </TTGlyph>
    <TTGlyph name="iacute" xMin="52" yMin="0" xMax="241" yMax="777">
      <component glyphName="dotlessi" x="0" y="0" flags="0x1204"/>
      <component glyphName="acute" x="28" y="0" flags="0x1004"/>
    </TTGlyph>
    <TTGlyph name="icircumflex" xMin="-7" yMin="0" xMax="301" yMax="777">
      <component glyphName="dotlessi" x="0" y="0" flags="0x1204"/>
      <component glyphName="circumflex" x="-31" y="0" flags="0x1004"/>
    </TTGlyph>
    <TTGlyph name="idieresis" xMin="-63" yMin="0" xMax="378" yMax="782">
      <component glyphName="dotlessi" x="0" y="0" flags="0x1204"/>
      <component glyphName="dieresis" x="-81" y="0" flags="0x1004"/>
    </TTGlyph>
    <TTGlyph name="igrave" xMin="52" yMin="0" xMax="241" yMax="777">
      <component glyphName="dotlessi" x="0" y="0" flags="0x1204"/>
      <component glyphName="grave" x="28" y="0" flags="0x1004"/>
    </TTGlyph>
    <TTGlyph name="j" xMin="-56" yMin="-226" xMax="252" yMax="816">
      <contour>
        <pt x="30" y="-226" on="0"/>
        <pt x="-39" y="-210" on="0"/>
        <pt x="-56" y="-199" on="1"/>
        <pt x="-17" y="-126" on="1"/>
        <pt x="-3" y="-134" on="0"/>
        <pt x="36" y="-139" on="0"/>
        <pt x="44" y="-139" on="1"/>
        <pt x="77" y="-139" on="0"/>
        <pt x="109" y="-86" on="0"/>
        <pt x="120" y="-6" on="0"/>
        <pt x="119" y="84" on="0"/>
        <pt x="120" y="121" on="1"/>
        <pt x="120" y="564" on="1"/>
        <pt x="242" y="564" on="1"/>
        <pt x="242" y="120" on="1"/>
        <pt x="242" y="82" on="0"/>
        <pt x="242" y="1" on="0"/>
        <pt x="232" y="-76" on="0"/>
        <pt x="212" y="-144" on="0"/>
        <pt x="172" y="-196" on="0"/>
        <pt x="107" y="-226" on="0"/>
        <pt x="60" y="-226" on="1"/>
      </contour>
      <contour>
        <pt x="252" y="744" on="1"/>
        <pt x="252" y="714" on="0"/>
        <pt x="211" y="673" on="0"/>
        <pt x="181" y="673" on="1"/>
        <pt x="151" y="673" on="0"/>
        <pt x="110" y="715" on="0"/>
        <pt x="110" y="744" on="1"/>
        <pt x="110" y="774" on="0"/>
        <pt x="152" y="816" on="0"/>
        <pt x="181" y="816" on="1"/>
        <pt x="211" y="816" on="0"/>
        <pt x="252" y="774" on="0"/>
      </contour>
    </TTGlyph>
    <TTGlyph name="k" xMin="86" yMin="0" xMax="551" yMax="777">
      <contour>
        <pt x="327" y="283" on="1"/>
        <pt x="551" y="0" on="1"/>
        <pt x="413" y="0" on="1"/>
        <pt x="249" y="216" on="1"/>
        <pt x="249" y="355" on="1"/>
        <pt x="389" y="564" on="1"/>
        <pt x="525" y="564" on="1"/>
      </contour>
      <contour>
        <pt x="86" y="0" on="1"/>
        <pt x="86" y="777" on="1"/>
        <pt x="208" y="777" on="1"/>
        <pt x="208" y="0" on="1"/>
      </contour>
    </TTGlyph>
    <TTGlyph name="l" xMin="84" yMin="-5" xMax="321" yMax="777">
      <contour>
        <pt x="206" y="172" on="1"/>
        <pt x="206" y="138" on="0"/>
        <pt x="224" y="99" on="0"/>
        <pt x="256" y="80" on="0"/>
        <pt x="297" y="74" on="0"/>
        <pt x="321" y="74" on="1"/>
        <pt x="321" y="0" on="1"/>
        <pt x="308" y="-2" on="0"/>
        <pt x="294" y="-3" on="1"/>
        <pt x="283" y="-4" on="0"/>
        <pt x="253" y="-5" on="0"/>
        <pt x="238" y="-5" on="1"/>
        <pt x="223" y="-5" on="0"/>
        <pt x="193" y="-3" on="0"/>
        <pt x="181" y="-1" on="1"/>
        <pt x="147" y="6" on="0"/>
        <pt x="109" y="52" on="0"/>
        <pt x="89" y="109" on="0"/>
        <pt x="84" y="163" on="0"/>
        <pt x="84" y="178" on="1"/>
        <pt x="84" y="190" on="1"/>
        <pt x="84" y="777" on="1"/>
        <pt x="206" y="777" on="1"/>
      </contour>
    </TTGlyph>
    <TTGlyph name="left" xMin="85" yMin="39" xMax="827" yMax="693">
      <contour>
        <pt x="413" y="693" on="1"/>
        <pt x="613" y="693" on="1"/>
        <pt x="286" y="367" on="1"/>
        <pt x="613" y="39" on="1"/>
        <pt x="412" y="39" on="1"/>
        <pt x="85" y="366" on="1"/>
      </contour>
      <contour>
        <pt x="344" y="367" on="1"/>
        <pt x="404" y="427" on="1"/>
        <pt x="827" y="427" on="1"/>
        <pt x="827" y="305" on="1"/>
        <pt x="404" y="305" on="1"/>
      </contour>
    </TTGlyph>
    <TTGlyph name="less" xMin="29" yMin="-6" xMax="561" yMax="579">
      <contour>
        <pt x="561" y="84" on="1"/>
        <pt x="561" y="-6" on="1"/>
        <pt x="29" y="254" on="1"/>
        <pt x="29" y="322" on="1"/>
        <pt x="561" y="579" on="1"/>
        <pt x="561" y="489" on="1"/>
        <pt x="123" y="288" on="1"/>
      </contour>
    </TTGlyph>
    <TTGlyph name="lslash" xMin="44" yMin="-5" xMax="445" yMax="777">
      <contour>
        <pt x="374" y="565" on="1"/>
        <pt x="445" y="494" on="1"/>
        <pt x="116" y="265" on="1"/>
        <pt x="44" y="337" on="1"/>
      </contour>
      <contour>
        <pt x="248" y="172" on="1"/>
        <pt x="248" y="138" on="0"/>
        <pt x="266" y="99" on="0"/>
        <pt x="298" y="80" on="0"/>
        <pt x="339" y="74" on="0"/>
        <pt x="362" y="74" on="1"/>
        <pt x="362" y="0" on="1"/>
        <pt x="349" y="-2" on="0"/>
        <pt x="336" y="-3" on="1"/>
        <pt x="325" y="-4" on="0"/>
        <pt x="295" y="-5" on="0"/>
        <pt x="280" y="-5" on="1"/>
        <pt x="265" y="-5" on="0"/>
        <pt x="234" y="-3" on="0"/>
        <pt x="223" y="-1" on="1"/>
        <pt x="189" y="6" on="0"/>
        <pt x="151" y="52" on="0"/>
        <pt x="131" y="109" on="0"/>
        <pt x="126" y="163" on="0"/>
        <pt x="126" y="178" on="1"/>
        <pt x="126" y="190" on="1"/>
        <pt x="126" y="777" on="1"/>
        <pt x="248" y="777" on="1"/>
      </contour>
    </TTGlyph>
    <TTGlyph name="m" xMin="86" yMin="0" xMax="831" yMax="570">
      <contour>
        <pt x="195" y="564" on="1"/>
        <pt x="208" y="506" on="1"/>
        <pt x="208" y="0" on="1"/>
        <pt x="86" y="0" on="1"/>
        <pt x="86" y="564" on="1"/>
      </contour>
      <contour>
        <pt x="667" y="570" on="1"/>
        <pt x="701" y="570" on="0"/>
        <pt x="761" y="543" on="0"/>
        <pt x="806" y="493" on="0"/>
        <pt x="831" y="424" on="0"/>
        <pt x="831" y="384" on="1"/>
        <pt x="831" y="0" on="1"/>
        <pt x="711" y="0" on="1"/>
        <pt x="711" y="307" on="1"/>
        <pt x="711" y="341" on="0"/>
        <pt x="710" y="402" on="0"/>
        <pt x="698" y="450" on="0"/>
        <pt x="671" y="477" on="0"/>
        <pt x="643" y="477" on="1"/>
        <pt x="636" y="477" on="0"/>
        <pt x="590" y="471" on="0"/>
        <pt x="560" y="457" on="1"/>
        <pt x="560" y="536" on="1"/>
        <pt x="587" y="552" on="0"/>
        <pt x="643" y="570" on="0"/>
      </contour>
      <contour>
        <pt x="494" y="493" on="1"/>
        <pt x="506" y="475" on="0"/>
        <pt x="517" y="434" on="0"/>
        <pt x="520" y="390" on="0"/>
        <pt x="519" y="343" on="0"/>
        <pt x="519" y="317" on="1"/>
        <pt x="519" y="0" on="1"/>
        <pt x="398" y="0" on="1"/>
        <pt x="398" y="307" on="1"/>
        <pt x="398" y="341" on="0"/>
        <pt x="398" y="402" on="0"/>
        <pt x="386" y="450" on="0"/>
        <pt x="358" y="477" on="0"/>
        <pt x="331" y="477" on="1"/>
        <pt x="319" y="477" on="0"/>
        <pt x="272" y="468" on="0"/>
        <pt x="249" y="457" on="1"/>
        <pt x="249" y="536" on="1"/>
        <pt x="273" y="550" on="0"/>
        <pt x="328" y="568" on="0"/>
        <pt x="355" y="568" on="1"/>
        <pt x="401" y="568" on="0"/>
        <pt x="464" y="530" on="0"/>
      </contour>
    </TTGlyph>
    <TTGlyph name="man" xMin="94" yMin="0" xMax="371" yMax="785">
      <contour>
        <pt x="94" y="550" on="1"/>
        <pt x="95" y="568" on="0"/>
        <pt x="115" y="593" on="0"/>
        <pt x="152" y="595" on="1"/>
        <pt x="152" y="313" on="1"/>
        <pt x="94" y="313" on="1"/>
      </contour>
      <contour>
        <pt x="312" y="595" on="1"/>
        <pt x="336" y="595" on="0"/>
        <pt x="360" y="584" on="0"/>
        <pt x="371" y="565" on="0"/>
        <pt x="371" y="542" on="0"/>
        <pt x="371" y="529" on="1"/>
        <pt x="371" y="313" on="1"/>
        <pt x="312" y="313" on="1"/>
      </contour>
      <contour>
        <pt x="232" y="785" on="1"/>
        <pt x="262" y="785" on="0"/>
        <pt x="304" y="743" on="0"/>
        <pt x="304" y="714" on="1"/>
        <pt x="304" y="684" on="0"/>
        <pt x="262" y="642" on="0"/>
        <pt x="232" y="642" on="1"/>
        <pt x="202" y="642" on="0"/>
        <pt x="161" y="684" on="0"/>
        <pt x="161" y="714" on="1"/>
        <pt x="161" y="744" on="0"/>
        <pt x="202" y="785" on="0"/>
      </contour>
      <contour>
        <pt x="171" y="595" on="1"/>
        <pt x="293" y="595" on="1"/>
        <pt x="293" y="0" on="1"/>
        <pt x="171" y="0" on="1"/>
      </contour>
    </TTGlyph>
    <TTGlyph name="multiply" xMin="78" yMin="61" xMax="523" yMax="503">
      <contour>
        <pt x="379" y="283" on="1"/>
        <pt x="522" y="61" on="1"/>
        <pt x="383" y="61" on="1"/>
        <pt x="310" y="202" on="1"/>
        <pt x="300" y="202" on="1"/>
        <pt x="218" y="61" on="1"/>
        <pt x="79" y="61" on="1"/>
        <pt x="222" y="283" on="1"/>
        <pt x="78" y="503" on="1"/>
        <pt x="215" y="503" on="1"/>
        <pt x="290" y="361" on="1"/>
        <pt x="300" y="361" on="1"/>
        <pt x="386" y="503" on="1"/>
        <pt x="523" y="503" on="1"/>
      </contour>
    </TTGlyph>
    <TTGlyph name="n" xMin="86" yMin="0" xMax="553" yMax="570">
      <contour>
        <pt x="194" y="564" on="1"/>
        <pt x="207" y="507" on="1"/>
        <pt x="207" y="0" on="1"/>
        <pt x="86" y="0" on="1"/>
        <pt x="86" y="564" on="1"/>
      </contour>
      <contour>
        <pt x="506" y="502" on="1"/>
        <pt x="523" y="485" on="0"/>
        <pt x="542" y="440" on="0"/>
        <pt x="551" y="391" on="0"/>
        <pt x="553" y="341" on="0"/>
        <pt x="553" y="317" on="1"/>
        <pt x="553" y="20" on="1"/>
        <pt x="553" y="0" on="1"/>
        <pt x="431" y="0" on="1"/>
        <pt x="431" y="307" on="1"/>
        <pt x="431" y="341" on="0"/>
        <pt x="425" y="403" on="0"/>
        <pt x="403" y="451" on="0"/>
        <pt x="365" y="478" on="0"/>
        <pt x="331" y="478" on="1"/>
        <pt x="317" y="478" on="0"/>
        <pt x="270" y="469" on="0"/>
        <pt x="248" y="459" on="1"/>
        <pt x="248" y="536" on="1"/>
        <pt x="275" y="550" on="0"/>
        <pt x="338" y="570" on="0"/>
        <pt x="368" y="570" on="1"/>
        <pt x="413" y="570" on="0"/>
        <pt x="475" y="533" on="0"/>
      </contour>
    </TTGlyph>
    <TTGlyph name="nine" xMin="70" yMin="-5" xMax="572" yMax="742">
      <contour>
        <pt x="291" y="238" on="1"/>
        <pt x="240" y="239" on="0"/>
        <pt x="158" y="283" on="0"/>
        <pt x="100" y="349" on="0"/>
        <pt x="70" y="432" on="0"/>
        <pt x="70" y="473" on="1"/>
        <pt x="70" y="544" on="0"/>
        <pt x="113" y="643" on="0"/>
        <pt x="177" y="706" on="0"/>
        <pt x="255" y="737" on="0"/>
        <pt x="291" y="740" on="1"/>
        <pt x="291" y="643" on="1"/>
        <pt x="240" y="633" on="0"/>
        <pt x="175" y="546" on="0"/>
        <pt x="175" y="483" on="1"/>
        <pt x="175" y="421" on="0"/>
        <pt x="240" y="337" on="0"/>
        <pt x="291" y="329" on="1"/>
      </contour>
      <contour>
        <pt x="332" y="742" on="1"/>
        <pt x="393" y="739" on="0"/>
        <pt x="483" y="693" on="0"/>
        <pt x="544" y="614" on="0"/>
        <pt x="572" y="508" on="0"/>
        <pt x="572" y="445" on="1"/>
        <pt x="572" y="313" on="0"/>
        <pt x="524" y="139" on="0"/>
        <pt x="447" y="36" on="0"/>
        <pt x="352" y="-5" on="0"/>
        <pt x="305" y="-5" on="1"/>
        <pt x="249" y="-5" on="0"/>
        <pt x="151" y="10" on="0"/>
        <pt x="115" y="34" on="1"/>
        <pt x="154" y="117" on="1"/>
        <pt x="182" y="99" on="0"/>
        <pt x="249" y="89" on="0"/>
        <pt x="294" y="89" on="1"/>
        <pt x="335" y="89" on="0"/>
        <pt x="395" y="125" on="0"/>
        <pt x="434" y="184" on="0"/>
        <pt x="454" y="261" on="0"/>
        <pt x="454" y="303" on="1"/>
        <pt x="453" y="302" on="0"/>
        <pt x="447" y="302" on="0"/>
        <pt x="446" y="301" on="1"/>
        <pt x="435" y="279" on="0"/>
        <pt x="374" y="245" on="0"/>
        <pt x="332" y="240" on="1"/>
        <pt x="332" y="328" on="1"/>
        <pt x="360" y="331" on="0"/>
        <pt x="406" y="356" on="0"/>
        <pt x="439" y="396" on="0"/>
        <pt x="459" y="451" on="0"/>
        <pt x="459" y="483" on="1"/>
        <pt x="459" y="516" on="0"/>
        <pt x="439" y="572" on="0"/>
        <pt x="406" y="614" on="0"/>
        <pt x="359" y="641" on="0"/>
        <pt x="332" y="644" on="1"/>
      </contour>
    </TTGlyph>
    <TTGlyph name="ntilde" xMin="86" yMin="0" xMax="553" yMax="770">
      <component glyphName="n" x="0" y="0" flags="0x1204"/>
      <component glyphName="tilde" x="111" y="0" flags="0x1004"/>
    </TTGlyph>
    <TTGlyph name="o" xMin="72" yMin="-4" xMax="591" yMax="567">
      <contour>
        <pt x="351" y="567" on="1"/>
        <pt x="406" y="564" on="0"/>
        <pt x="496" y="517" on="0"/>
        <pt x="557" y="440" on="0"/>
        <pt x="591" y="338" on="0"/>
        <pt x="591" y="280" on="1"/>
        <pt x="591" y="222" on="0"/>
        <pt x="556" y="121" on="0"/>
        <pt x="494" y="46" on="0"/>
        <pt x="404" y="0" on="0"/>
        <pt x="351" y="-4" on="1"/>
        <pt x="351" y="92" on="1"/>
        <pt x="401" y="103" on="0"/>
        <pt x="464" y="207" on="0"/>
        <pt x="464" y="280" on="1"/>
        <pt x="464" y="317" on="0"/>
        <pt x="449" y="382" on="0"/>
        <pt x="419" y="434" on="0"/>
        <pt x="377" y="468" on="0"/>
        <pt x="351" y="473" on="1"/>
      </contour>
      <contour>
        <pt x="72" y="282" on="1"/>
        <pt x="72" y="340" on="0"/>
        <pt x="106" y="440" on="0"/>
        <pt x="169" y="515" on="0"/>
        <pt x="257" y="561" on="0"/>
        <pt x="310" y="566" on="1"/>
        <pt x="310" y="473" on="1"/>
        <pt x="260" y="462" on="0"/>
        <pt x="200" y="358" on="0"/>
        <pt x="200" y="285" on="1"/>
        <pt x="200" y="248" on="0"/>
        <pt x="215" y="182" on="0"/>
        <pt x="243" y="130" on="0"/>
        <pt x="284" y="96" on="0"/>
        <pt x="310" y="92" on="1"/>
        <pt x="310" y="-4" on="1"/>
        <pt x="255" y="0" on="0"/>
        <pt x="167" y="47" on="0"/>
        <pt x="105" y="123" on="0"/>
        <pt x="72" y="225" on="0"/>
      </contour>
    </TTGlyph>
    <TTGlyph name="oacute" xMin="72" yMin="-4" xMax="591" yMax="777">
      <component glyphName="o" x="0" y="0" flags="0x1204"/>
      <component glyphName="acute" x="213" y="0" flags="0x1004"/>
    </TTGlyph>
    <TTGlyph name="ocircumflex" xMin="72" yMin="-4" xMax="591" yMax="777">
      <component glyphName="o" x="0" y="0" flags="0x1204"/>
      <component glyphName="circumflex" x="154" y="0" flags="0x1004"/>
    </TTGlyph>
    <TTGlyph name="odieresis" xMin="72" yMin="-4" xMax="591" yMax="782">
      <component glyphName="o" x="0" y="0" flags="0x1204"/>
      <component glyphName="dieresis" x="102" y="0" flags="0x1004"/>
    </TTGlyph>
    <TTGlyph name="ogonek" xMin="55" yMin="-224" xMax="227" yMax="39">
      <contour>
        <pt x="227" y="16" on="1"/>
        <pt x="223" y="13" on="0"/>
        <pt x="186" y="-10" on="0"/>
        <pt x="146" y="-44" on="0"/>
        <pt x="115" y="-87" on="0"/>
        <pt x="115" y="-111" on="1"/>
        <pt x="115" y="-133" on="0"/>
        <pt x="129" y="-161" on="0"/>
        <pt x="151" y="-178" on="0"/>
        <pt x="176" y="-186" on="0"/>
        <pt x="187" y="-186" on="1"/>
        <pt x="187" y="-224" on="1"/>
        <pt x="155" y="-224" on="0"/>
        <pt x="106" y="-206" on="0"/>
        <pt x="73" y="-174" on="0"/>
        <pt x="55" y="-133" on="0"/>
        <pt x="55" y="-110" on="1"/>
        <pt x="55" y="-79" on="0"/>
        <pt x="97" y="-25" on="0"/>
        <pt x="124" y="-4" on="1"/>
        <pt x="154" y="20" on="0"/>
        <pt x="193" y="39" on="1"/>
        <pt x="204" y="35" on="0"/>
        <pt x="225" y="18" on="0"/>
      </contour>
    </TTGlyph>
    <TTGlyph name="ograve" xMin="72" yMin="-4" xMax="591" yMax="777">
      <component glyphName="o" x="0" y="0" flags="0x1204"/>
      <component glyphName="grave" x="213" y="0" flags="0x1004"/>
    </TTGlyph>
    <TTGlyph name="one" xMin="29" yMin="0" xMax="338" yMax="737">
      <contour>
        <pt x="338" y="0" on="1"/>
        <pt x="216" y="0" on="1"/>
        <pt x="216" y="565" on="1"/>
        <pt x="115" y="464" on="1"/>
        <pt x="29" y="550" on="1"/>
        <pt x="216" y="737" on="1"/>
        <pt x="338" y="737" on="1"/>
      </contour>
    </TTGlyph>
    <TTGlyph name="otilde" xMin="72" yMin="-4" xMax="591" yMax="770">
      <component glyphName="o" x="0" y="0" flags="0x1204"/>
      <component glyphName="tilde" x="125" y="0" flags="0x1004"/>
    </TTGlyph>
    <TTGlyph name="p" xMin="86" yMin="-222" xMax="591" yMax="569">
      <contour>
        <pt x="195" y="564" on="1"/>
        <pt x="208" y="507" on="1"/>
        <pt x="208" y="-222" on="1"/>
        <pt x="86" y="-222" on="1"/>
        <pt x="86" y="564" on="1"/>
      </contour>
      <contour>
        <pt x="579" y="393" on="1"/>
        <pt x="591" y="347" on="0"/>
        <pt x="591" y="290" on="1"/>
        <pt x="591" y="233" on="0"/>
        <pt x="564" y="126" on="0"/>
        <pt x="509" y="44" on="0"/>
        <pt x="426" y="-5" on="0"/>
        <pt x="370" y="-5" on="1"/>
        <pt x="335" y="-5" on="0"/>
        <pt x="272" y="11" on="0"/>
        <pt x="249" y="24" on="1"/>
        <pt x="249" y="128" on="1"/>
        <pt x="282" y="89" on="0"/>
        <pt x="330" y="89" on="1"/>
        <pt x="360" y="89" on="0"/>
        <pt x="409" y="119" on="0"/>
        <pt x="444" y="170" on="0"/>
        <pt x="464" y="241" on="0"/>
        <pt x="464" y="281" on="1"/>
        <pt x="464" y="320" on="0"/>
        <pt x="446" y="390" on="0"/>
        <pt x="413" y="444" on="0"/>
        <pt x="366" y="476" on="0"/>
        <pt x="335" y="476" on="1"/>
        <pt x="309" y="476" on="0"/>
        <pt x="266" y="455" on="0"/>
        <pt x="249" y="436" on="1"/>
        <pt x="249" y="542" on="1"/>
        <pt x="272" y="555" on="0"/>
        <pt x="328" y="569" on="0"/>
        <pt x="358" y="569" on="1"/>
        <pt x="391" y="569" on="0"/>
        <pt x="459" y="551" on="0"/>
        <pt x="518" y="509" on="0"/>
        <pt x="566" y="441" on="0"/>
      </contour>
    </TTGlyph>
    <TTGlyph name="parenleft" xMin="58" yMin="-61" xMax="240" yMax="757">
      <contour>
        <pt x="171" y="-61" on="1"/>
        <pt x="149" y="-33" on="0"/>
        <pt x="109" y="63" on="0"/>
        <pt x="78" y="180" on="0"/>
        <pt x="58" y="306" on="0"/>
        <pt x="58" y="361" on="1"/>
        <pt x="58" y="413" on="0"/>
        <pt x="76" y="531" on="0"/>
        <pt x="103" y="642" on="0"/>
        <pt x="140" y="732" on="0"/>
        <pt x="159" y="757" on="1"/>
        <pt x="222" y="757" on="1"/>
        <pt x="214" y="746" on="0"/>
        <pt x="187" y="679" on="0"/>
        <pt x="162" y="573" on="0"/>
        <pt x="141" y="430" on="0"/>
        <pt x="140" y="341" on="1"/>
        <pt x="139" y="263" on="0"/>
        <pt x="163" y="127" on="0"/>
        <pt x="197" y="22" on="0"/>
        <pt x="230" y="-49" on="0"/>
        <pt x="240" y="-61" on="1"/>
      </contour>
    </TTGlyph>
    <TTGlyph name="parenright" xMin="54" yMin="-61" xMax="236" yMax="757">
      <contour>
        <pt x="54" y="-61" on="1"/>
        <pt x="63" y="-49" on="0"/>
        <pt x="97" y="22" on="0"/>
        <pt x="131" y="127" on="0"/>
        <pt x="155" y="263" on="0"/>
        <pt x="154" y="341" on="1"/>
        <pt x="153" y="430" on="0"/>
        <pt x="132" y="573" on="0"/>
        <pt x="106" y="679" on="0"/>
        <pt x="79" y="745" on="0"/>
        <pt x="72" y="757" on="1"/>
        <pt x="135" y="757" on="1"/>
        <pt x="153" y="732" on="0"/>
        <pt x="190" y="642" on="0"/>
        <pt x="218" y="531" on="0"/>
        <pt x="236" y="414" on="0"/>
        <pt x="236" y="361" on="1"/>
        <pt x="236" y="306" on="0"/>
        <pt x="216" y="180" on="0"/>
        <pt x="185" y="63" on="0"/>
        <pt x="144" y="-34" on="0"/>
        <pt x="123" y="-61" on="1"/>
      </contour>
    </TTGlyph>
    <TTGlyph name="percent" xMin="57" yMin="-3" xMax="742" yMax="739">
      <contour>
        <pt x="169" y="449" on="1"/>
        <pt x="146" y="453" on="0"/>
        <pt x="108" y="478" on="0"/>
        <pt x="78" y="516" on="0"/>
        <pt x="60" y="566" on="0"/>
        <pt x="60" y="595" on="1"/>
        <pt x="60" y="624" on="0"/>
        <pt x="78" y="673" on="0"/>
        <pt x="108" y="711" on="0"/>
        <pt x="146" y="735" on="0"/>
        <pt x="169" y="739" on="1"/>
        <pt x="169" y="677" on="1"/>
        <pt x="150" y="670" on="0"/>
        <pt x="124" y="628" on="0"/>
        <pt x="124" y="595" on="1"/>
        <pt x="124" y="562" on="0"/>
        <pt x="150" y="519" on="0"/>
        <pt x="169" y="512" on="1"/>
      </contour>
      <contour>
        <pt x="315" y="595" on="1"/>
        <pt x="315" y="539" on="0"/>
        <pt x="255" y="459" on="0"/>
        <pt x="210" y="450" on="1"/>
        <pt x="210" y="513" on="1"/>
        <pt x="229" y="521" on="0"/>
        <pt x="253" y="562" on="0"/>
        <pt x="253" y="595" on="1"/>
        <pt x="253" y="627" on="0"/>
        <pt x="229" y="668" on="0"/>
        <pt x="210" y="676" on="1"/>
        <pt x="210" y="739" on="1"/>
        <pt x="255" y="730" on="0"/>
        <pt x="315" y="651" on="0"/>
      </contour>
      <contour>
        <pt x="479" y="143" on="1"/>
        <pt x="479" y="198" on="0"/>
        <pt x="538" y="276" on="0"/>
        <pt x="581" y="287" on="1"/>
        <pt x="581" y="222" on="1"/>
        <pt x="564" y="213" on="0"/>
        <pt x="543" y="173" on="0"/>
        <pt x="543" y="143" on="1"/>
        <pt x="543" y="113" on="0"/>
        <pt x="563" y="73" on="0"/>
        <pt x="581" y="63" on="1"/>
        <pt x="581" y="-1" on="1"/>
        <pt x="538" y="9" on="0"/>
        <pt x="479" y="88" on="0"/>
      </contour>
      <contour>
        <pt x="742" y="737" on="1"/>
        <pt x="159" y="-1" on="1"/>
        <pt x="57" y="-1" on="1"/>
        <pt x="641" y="737" on="1"/>
      </contour>
      <contour>
        <pt x="622" y="289" on="1"/>
        <pt x="646" y="286" on="0"/>
        <pt x="686" y="261" on="0"/>
        <pt x="717" y="223" on="0"/>
        <pt x="734" y="172" on="0"/>
        <pt x="734" y="143" on="1"/>
        <pt x="734" y="113" on="0"/>
        <pt x="717" y="63" on="0"/>
        <pt x="686" y="25" on="0"/>
        <pt x="645" y="0" on="0"/>
        <pt x="622" y="-3" on="1"/>
        <pt x="622" y="59" on="1"/>
        <pt x="644" y="64" on="0"/>
        <pt x="672" y="108" on="0"/>
        <pt x="672" y="143" on="1"/>
        <pt x="672" y="177" on="0"/>
        <pt x="643" y="221" on="0"/>
        <pt x="622" y="226" on="1"/>
      </contour>
    </TTGlyph>
    <TTGlyph name="period" xMin="33" yMin="-4" xMax="176" yMax="139">
      <contour>
        <pt x="176" y="68" on="1"/>
        <pt x="176" y="38" on="0"/>
        <pt x="134" y="-4" on="0"/>
        <pt x="104" y="-4" on="1"/>
        <pt x="74" y="-4" on="0"/>
        <pt x="33" y="38" on="0"/>
        <pt x="33" y="68" on="1"/>
        <pt x="33" y="98" on="0"/>
        <pt x="75" y="139" on="0"/>
        <pt x="104" y="139" on="1"/>
        <pt x="134" y="139" on="0"/>
        <pt x="176" y="98" on="0"/>
      </contour>
    </TTGlyph>
    <TTGlyph name="plus" xMin="42" yMin="0" xMax="606" yMax="564">
      <contour>
        <pt x="606" y="231" on="1"/>
        <pt x="375" y="231" on="1"/>
        <pt x="375" y="0" on="1"/>
        <pt x="273" y="0" on="1"/>
        <pt x="273" y="231" on="1"/>
        <pt x="42" y="231" on="1"/>
        <pt x="42" y="333" on="1"/>
        <pt x="273" y="333" on="1"/>
        <pt x="273" y="564" on="1"/>
        <pt x="375" y="564" on="1"/>
        <pt x="375" y="333" on="1"/>
        <pt x="606" y="333" on="1"/>
      </contour>
    </TTGlyph>
    <TTGlyph name="q" xMin="50" yMin="-230" xMax="593" yMax="569">
      <contour>
        <pt x="50" y="290" on="1"/>
        <pt x="50" y="368" on="0"/>
        <pt x="93" y="474" on="0"/>
        <pt x="161" y="541" on="0"/>
        <pt x="244" y="569" on="0"/>
        <pt x="284" y="569" on="1"/>
        <pt x="315" y="569" on="0"/>
        <pt x="371" y="555" on="0"/>
        <pt x="393" y="542" on="1"/>
        <pt x="393" y="436" on="1"/>
        <pt x="376" y="454" on="0"/>
        <pt x="334" y="476" on="0"/>
        <pt x="309" y="476" on="1"/>
        <pt x="279" y="476" on="0"/>
        <pt x="230" y="445" on="0"/>
        <pt x="197" y="393" on="0"/>
        <pt x="178" y="323" on="0"/>
        <pt x="178" y="284" on="1"/>
        <pt x="178" y="243" on="0"/>
        <pt x="198" y="172" on="0"/>
        <pt x="233" y="120" on="0"/>
        <pt x="283" y="90" on="0"/>
        <pt x="313" y="90" on="1"/>
        <pt x="337" y="90" on="0"/>
        <pt x="377" y="111" on="0"/>
        <pt x="393" y="128" on="1"/>
        <pt x="393" y="24" on="1"/>
        <pt x="369" y="12" on="0"/>
        <pt x="307" y="-5" on="0"/>
        <pt x="272" y="-5" on="1"/>
        <pt x="216" y="-5" on="0"/>
        <pt x="132" y="44" on="0"/>
        <pt x="77" y="126" on="0"/>
        <pt x="50" y="233" on="0"/>
      </contour>
      <contour>
        <pt x="556" y="-66" on="1"/>
        <pt x="556" y="-78" on="0"/>
        <pt x="556" y="-104" on="0"/>
        <pt x="562" y="-130" on="0"/>
        <pt x="578" y="-154" on="0"/>
        <pt x="593" y="-164" on="1"/>
        <pt x="591" y="-167" on="0"/>
        <pt x="581" y="-188" on="0"/>
        <pt x="574" y="-200" on="1"/>
        <pt x="567" y="-213" on="0"/>
        <pt x="559" y="-230" on="1"/>
        <pt x="501" y="-222" on="0"/>
        <pt x="434" y="-135" on="0"/>
        <pt x="434" y="-74" on="1"/>
        <pt x="434" y="507" on="1"/>
        <pt x="447" y="564" on="1"/>
        <pt x="556" y="564" on="1"/>
      </contour>
    </TTGlyph>
    <TTGlyph name="question" xMin="68" yMin="-4" xMax="460" yMax="749">
      <contour>
        <pt x="241" y="203" on="1"/>
        <pt x="150" y="203" on="1"/>
        <pt x="150" y="262" on="0"/>
        <pt x="178" y="337" on="0"/>
        <pt x="222" y="387" on="0"/>
        <pt x="273" y="421" on="0"/>
        <pt x="317" y="458" on="0"/>
        <pt x="346" y="507" on="0"/>
        <pt x="346" y="547" on="1"/>
        <pt x="346" y="563" on="0"/>
        <pt x="330" y="598" on="0"/>
        <pt x="302" y="626" on="0"/>
        <pt x="265" y="645" on="0"/>
        <pt x="246" y="647" on="1"/>
        <pt x="210" y="650" on="0"/>
        <pt x="164" y="646" on="0"/>
        <pt x="136" y="636" on="0"/>
        <pt x="121" y="626" on="0"/>
        <pt x="115" y="623" on="1"/>
        <pt x="114" y="624" on="0"/>
        <pt x="103" y="642" on="0"/>
        <pt x="90" y="669" on="0"/>
        <pt x="74" y="699" on="0"/>
        <pt x="68" y="713" on="1"/>
        <pt x="98" y="732" on="0"/>
        <pt x="190" y="749" on="0"/>
        <pt x="237" y="749" on="1"/>
        <pt x="281" y="749" on="0"/>
        <pt x="361" y="721" on="0"/>
        <pt x="423" y="668" on="0"/>
        <pt x="460" y="592" on="0"/>
        <pt x="460" y="543" on="1"/>
        <pt x="460" y="490" on="0"/>
        <pt x="427" y="419" on="0"/>
        <pt x="379" y="370" on="0"/>
        <pt x="322" y="334" on="0"/>
        <pt x="273" y="294" on="0"/>
        <pt x="241" y="242" on="0"/>
      </contour>
      <contour>
        <pt x="267" y="68" on="1"/>
        <pt x="267" y="38" on="0"/>
        <pt x="225" y="-4" on="0"/>
        <pt x="196" y="-4" on="1"/>
        <pt x="166" y="-4" on="0"/>
        <pt x="124" y="38" on="0"/>
        <pt x="124" y="68" on="1"/>
        <pt x="124" y="98" on="0"/>
        <pt x="166" y="139" on="0"/>
        <pt x="196" y="139" on="1"/>
        <pt x="226" y="139" on="0"/>
        <pt x="267" y="98" on="0"/>
      </contour>
    </TTGlyph>
    <TTGlyph name="questiondown" xMin="67" yMin="-5" xMax="460" yMax="748">
      <component glyphName="question" x="527" y="744" scale="-0.999938964844" flags="0x1004"/>
    </TTGlyph>
    <TTGlyph name="quotedbl" xMin="82" yMin="564" xMax="368" yMax="737">
      <contour>
        <pt x="167" y="564" on="1"/>
        <pt x="98" y="564" on="1"/>
        <pt x="82" y="737" on="1"/>
        <pt x="183" y="737" on="1"/>
      </contour>
      <contour>
        <pt x="351" y="564" on="1"/>
        <pt x="283" y="564" on="1"/>
        <pt x="266" y="737" on="1"/>
        <pt x="368" y="737" on="1"/>
      </contour>
    </TTGlyph>
    <TTGlyph name="quotedblleft" xMin="78" yMin="483" xMax="416" yMax="742">
      <contour>
        <pt x="344" y="483" on="1"/>
        <pt x="314" y="483" on="0"/>
        <pt x="272" y="525" on="0"/>
        <pt x="272" y="555" on="1"/>
        <pt x="272" y="560" on="0"/>
        <pt x="274" y="597" on="0"/>
        <pt x="291" y="649" on="0"/>
        <pt x="330" y="712" on="0"/>
        <pt x="367" y="742" on="1"/>
        <pt x="414" y="742" on="1"/>
        <pt x="394" y="722" on="0"/>
        <pt x="367" y="682" on="0"/>
        <pt x="358" y="665" on="1"/>
        <pt x="348" y="646" on="0"/>
        <pt x="344" y="627" on="1"/>
        <pt x="374" y="627" on="0"/>
        <pt x="416" y="585" on="0"/>
        <pt x="416" y="555" on="1"/>
        <pt x="416" y="525" on="0"/>
        <pt x="374" y="483" on="0"/>
      </contour>
      <contour>
        <pt x="150" y="483" on="1"/>
        <pt x="120" y="483" on="0"/>
        <pt x="78" y="525" on="0"/>
        <pt x="78" y="555" on="1"/>
        <pt x="78" y="560" on="0"/>
        <pt x="80" y="597" on="0"/>
        <pt x="96" y="649" on="0"/>
        <pt x="135" y="712" on="0"/>
        <pt x="172" y="742" on="1"/>
        <pt x="219" y="742" on="1"/>
        <pt x="199" y="722" on="0"/>
        <pt x="172" y="682" on="0"/>
        <pt x="164" y="665" on="1"/>
        <pt x="154" y="646" on="0"/>
        <pt x="150" y="627" on="1"/>
        <pt x="180" y="627" on="0"/>
        <pt x="221" y="585" on="0"/>
        <pt x="221" y="555" on="1"/>
        <pt x="221" y="525" on="0"/>
        <pt x="180" y="483" on="0"/>
      </contour>
    </TTGlyph>
    <TTGlyph name="quotedblright" xMin="79" yMin="483" xMax="417" yMax="742">
      <contour>
        <pt x="151" y="742" on="1"/>
        <pt x="181" y="742" on="0"/>
        <pt x="222" y="700" on="0"/>
        <pt x="222" y="671" on="1"/>
        <pt x="222" y="666" on="0"/>
        <pt x="220" y="629" on="0"/>
        <pt x="204" y="577" on="0"/>
        <pt x="165" y="514" on="0"/>
        <pt x="128" y="483" on="1"/>
        <pt x="81" y="483" on="1"/>
        <pt x="101" y="502" on="0"/>
        <pt x="127" y="544" on="0"/>
        <pt x="135" y="561" on="1"/>
        <pt x="144" y="580" on="0"/>
        <pt x="151" y="599" on="1"/>
        <pt x="121" y="599" on="0"/>
        <pt x="79" y="641" on="0"/>
        <pt x="79" y="671" on="1"/>
        <pt x="79" y="701" on="0"/>
        <pt x="121" y="742" on="0"/>
      </contour>
      <contour>
        <pt x="345" y="742" on="1"/>
        <pt x="375" y="742" on="0"/>
        <pt x="417" y="700" on="0"/>
        <pt x="417" y="671" on="1"/>
        <pt x="417" y="666" on="0"/>
        <pt x="415" y="629" on="0"/>
        <pt x="398" y="577" on="0"/>
        <pt x="359" y="514" on="0"/>
        <pt x="323" y="483" on="1"/>
        <pt x="275" y="483" on="1"/>
        <pt x="295" y="502" on="0"/>
        <pt x="322" y="544" on="0"/>
        <pt x="330" y="561" on="1"/>
        <pt x="339" y="580" on="0"/>
        <pt x="345" y="599" on="1"/>
        <pt x="315" y="599" on="0"/>
        <pt x="273" y="641" on="0"/>
        <pt x="273" y="671" on="1"/>
        <pt x="273" y="701" on="0"/>
        <pt x="315" y="742" on="0"/>
      </contour>
    </TTGlyph>
    <TTGlyph name="quoteleft" xMin="62" yMin="483" xMax="206" yMax="742">
      <contour>
        <pt x="134" y="483" on="1"/>
        <pt x="104" y="483" on="0"/>
        <pt x="62" y="525" on="0"/>
        <pt x="62" y="555" on="1"/>
        <pt x="62" y="560" on="0"/>
        <pt x="65" y="597" on="0"/>
        <pt x="81" y="649" on="0"/>
        <pt x="120" y="712" on="0"/>
        <pt x="157" y="742" on="1"/>
        <pt x="204" y="742" on="1"/>
        <pt x="184" y="722" on="0"/>
        <pt x="157" y="682" on="0"/>
        <pt x="148" y="665" on="1"/>
        <pt x="138" y="646" on="0"/>
        <pt x="134" y="627" on="1"/>
        <pt x="164" y="627" on="0"/>
        <pt x="206" y="585" on="0"/>
        <pt x="206" y="555" on="1"/>
        <pt x="206" y="525" on="0"/>
        <pt x="164" y="483" on="0"/>
      </contour>
    </TTGlyph>
    <TTGlyph name="quoteright" xMin="71" yMin="483" xMax="214" yMax="742">
      <contour>
        <pt x="142" y="742" on="1"/>
        <pt x="172" y="742" on="0"/>
        <pt x="214" y="700" on="0"/>
        <pt x="214" y="671" on="1"/>
        <pt x="214" y="666" on="0"/>
        <pt x="212" y="629" on="0"/>
        <pt x="196" y="577" on="0"/>
        <pt x="157" y="514" on="0"/>
        <pt x="120" y="483" on="1"/>
        <pt x="73" y="483" on="1"/>
        <pt x="93" y="502" on="0"/>
        <pt x="119" y="544" on="0"/>
        <pt x="127" y="561" on="1"/>
        <pt x="136" y="580" on="0"/>
        <pt x="142" y="599" on="1"/>
        <pt x="112" y="599" on="0"/>
        <pt x="71" y="641" on="0"/>
        <pt x="71" y="671" on="1"/>
        <pt x="71" y="701" on="0"/>
        <pt x="112" y="742" on="0"/>
      </contour>
    </TTGlyph>
    <TTGlyph name="quotesingle" xMin="75" yMin="564" xMax="176" yMax="737">
      <contour>
        <pt x="160" y="564" on="1"/>
        <pt x="91" y="564" on="1"/>
        <pt x="75" y="737" on="1"/>
        <pt x="176" y="737" on="1"/>
      </contour>
    </TTGlyph>
    <TTGlyph name="r" xMin="86" yMin="0" xMax="403" yMax="568">
      <contour>
        <pt x="194" y="564" on="1"/>
        <pt x="207" y="506" on="1"/>
        <pt x="207" y="200" on="1"/>
        <pt x="207" y="198" on="1"/>
        <pt x="207" y="0" on="1"/>
        <pt x="86" y="0" on="1"/>
        <pt x="86" y="564" on="1"/>
      </contour>
      <contour>
        <pt x="248" y="539" on="1"/>
        <pt x="273" y="553" on="0"/>
        <pt x="343" y="568" on="0"/>
        <pt x="403" y="568" on="1"/>
        <pt x="403" y="442" on="1"/>
        <pt x="375" y="450" on="0"/>
        <pt x="335" y="451" on="1"/>
        <pt x="313" y="451" on="0"/>
        <pt x="268" y="444" on="0"/>
        <pt x="248" y="437" on="1"/>
      </contour>
    </TTGlyph>
    <TTGlyph name="right" xMin="70" yMin="39" xMax="812" yMax="693">
      <contour>
        <pt x="484" y="39" on="1"/>
        <pt x="284" y="39" on="1"/>
        <pt x="611" y="366" on="1"/>
        <pt x="284" y="693" on="1"/>
        <pt x="485" y="693" on="1"/>
        <pt x="812" y="367" on="1"/>
      </contour>
      <contour>
        <pt x="553" y="366" on="1"/>
        <pt x="493" y="305" on="1"/>
        <pt x="70" y="305" on="1"/>
        <pt x="70" y="427" on="1"/>
        <pt x="493" y="427" on="1"/>
      </contour>
    </TTGlyph>
    <TTGlyph name="ring" xMin="71" yMin="636" xMax="319" yMax="882">
      <contour>
        <pt x="71" y="760" on="1"/>
        <pt x="71" y="783" on="0"/>
        <pt x="87" y="823" on="0"/>
        <pt x="115" y="856" on="0"/>
        <pt x="153" y="878" on="0"/>
        <pt x="174" y="882" on="1"/>
        <pt x="174" y="820" on="1"/>
        <pt x="156" y="813" on="0"/>
        <pt x="131" y="780" on="0"/>
        <pt x="131" y="760" on="1"/>
        <pt x="131" y="738" on="0"/>
        <pt x="156" y="706" on="0"/>
        <pt x="174" y="698" on="1"/>
        <pt x="174" y="637" on="1"/>
        <pt x="152" y="640" on="0"/>
        <pt x="115" y="663" on="0"/>
        <pt x="87" y="695" on="0"/>
        <pt x="71" y="736" on="0"/>
      </contour>
      <contour>
        <pt x="215" y="882" on="1"/>
        <pt x="238" y="879" on="0"/>
        <pt x="275" y="856" on="0"/>
        <pt x="303" y="824" on="0"/>
        <pt x="319" y="782" on="0"/>
        <pt x="319" y="760" on="1"/>
        <pt x="319" y="736" on="0"/>
        <pt x="303" y="695" on="0"/>
        <pt x="275" y="663" on="0"/>
        <pt x="238" y="640" on="0"/>
        <pt x="215" y="636" on="1"/>
        <pt x="215" y="698" on="1"/>
        <pt x="235" y="704" on="0"/>
        <pt x="260" y="738" on="0"/>
        <pt x="260" y="760" on="1"/>
        <pt x="260" y="780" on="0"/>
        <pt x="236" y="814" on="0"/>
        <pt x="215" y="820" on="1"/>
      </contour>
    </TTGlyph>
    <TTGlyph name="s" xMin="73" yMin="-5" xMax="465" yMax="574">
      <contour>
        <pt x="73" y="403" on="1"/>
        <pt x="73" y="441" on="0"/>
        <pt x="101" y="502" on="0"/>
        <pt x="151" y="545" on="0"/>
        <pt x="214" y="570" on="0"/>
        <pt x="248" y="573" on="1"/>
        <pt x="248" y="473" on="1"/>
        <pt x="222" y="468" on="0"/>
        <pt x="193" y="436" on="0"/>
        <pt x="193" y="407" on="1"/>
        <pt x="193" y="383" on="0"/>
        <pt x="224" y="354" on="0"/>
        <pt x="248" y="343" on="1"/>
        <pt x="248" y="236" on="1"/>
        <pt x="231" y="241" on="0"/>
        <pt x="196" y="254" on="0"/>
        <pt x="179" y="262" on="1"/>
        <pt x="126" y="290" on="0"/>
        <pt x="73" y="352" on="0"/>
      </contour>
      <contour>
        <pt x="407" y="445" on="1"/>
        <pt x="380" y="459" on="0"/>
        <pt x="319" y="473" on="0"/>
        <pt x="289" y="475" on="1"/>
        <pt x="289" y="574" on="1"/>
        <pt x="334" y="572" on="0"/>
        <pt x="410" y="551" on="0"/>
        <pt x="446" y="528" on="1"/>
      </contour>
      <contour>
        <pt x="126" y="126" on="1"/>
        <pt x="146" y="112" on="0"/>
        <pt x="201" y="88" on="0"/>
        <pt x="243" y="88" on="1"/>
        <pt x="248" y="88" on="1"/>
        <pt x="248" y="-5" on="1"/>
        <pt x="223" y="-5" on="0"/>
        <pt x="181" y="-2" on="0"/>
        <pt x="140" y="9" on="0"/>
        <pt x="98" y="29" on="0"/>
        <pt x="75" y="45" on="1"/>
      </contour>
      <contour>
        <pt x="289" y="327" on="1"/>
        <pt x="319" y="317" on="0"/>
        <pt x="381" y="293" on="0"/>
        <pt x="432" y="257" on="0"/>
        <pt x="465" y="204" on="0"/>
        <pt x="465" y="164" on="1"/>
        <pt x="465" y="125" on="0"/>
        <pt x="437" y="67" on="0"/>
        <pt x="390" y="25" on="0"/>
        <pt x="326" y="1" on="0"/>
        <pt x="289" y="-3" on="1"/>
        <pt x="289" y="92" on="1"/>
        <pt x="323" y="98" on="0"/>
        <pt x="360" y="129" on="0"/>
        <pt x="360" y="155" on="1"/>
        <pt x="360" y="181" on="0"/>
        <pt x="319" y="210" on="0"/>
        <pt x="289" y="221" on="1"/>
      </contour>
    </TTGlyph>
    <TTGlyph name="scaron" xMin="73" yMin="-5" xMax="465" yMax="777">
      <component glyphName="s" x="0" y="0" flags="0x1204"/>
      <component glyphName="caron" x="91" y="0" flags="0x1004"/>
    </TTGlyph>
    <TTGlyph name="semicolon" xMin="66" yMin="-120" xMax="209" yMax="569">
      <contour>
        <pt x="167" y="139" on="0"/>
        <pt x="209" y="98" on="0"/>
        <pt x="209" y="68" on="1"/>
        <pt x="209" y="62" on="0"/>
        <pt x="207" y="26" on="0"/>
        <pt x="190" y="-27" on="0"/>
        <pt x="152" y="-89" on="0"/>
        <pt x="115" y="-120" on="1"/>
        <pt x="68" y="-120" on="1"/>
        <pt x="88" y="-100" on="0"/>
        <pt x="114" y="-59" on="0"/>
        <pt x="122" y="-42" on="1"/>
        <pt x="131" y="-22" on="0"/>
        <pt x="137" y="-4" on="1"/>
        <pt x="108" y="-4" on="0"/>
        <pt x="66" y="38" on="0"/>
        <pt x="66" y="68" on="1"/>
        <pt x="66" y="97" on="0"/>
        <pt x="107" y="139" on="0"/>
        <pt x="137" y="139" on="1"/>
      </contour>
      <contour>
        <pt x="209" y="498" on="1"/>
        <pt x="209" y="468" on="0"/>
        <pt x="167" y="426" on="0"/>
        <pt x="137" y="426" on="1"/>
        <pt x="107" y="426" on="0"/>
        <pt x="66" y="468" on="0"/>
        <pt x="66" y="498" on="1"/>
        <pt x="66" y="528" on="0"/>
        <pt x="108" y="569" on="0"/>
        <pt x="137" y="569" on="1"/>
        <pt x="167" y="569" on="0"/>
        <pt x="209" y="528" on="0"/>
      </contour>
    </TTGlyph>
    <TTGlyph name="seven" xMin="63" yMin="0" xMax="526" yMax="737">
      <contour>
        <pt x="128" y="0" on="1"/>
        <pt x="384" y="639" on="1"/>
        <pt x="63" y="639" on="1"/>
        <pt x="63" y="737" on="1"/>
        <pt x="526" y="737" on="1"/>
        <pt x="240" y="0" on="1"/>
      </contour>
    </TTGlyph>
    <TTGlyph name="shelter" xMin="102" yMin="0" xMax="757" yMax="730">
      <contour>
        <pt x="369" y="0" on="1"/>
        <pt x="369" y="221" on="1"/>
        <pt x="490" y="221" on="1"/>
        <pt x="490" y="0" on="1"/>
      </contour>
      <contour>
        <pt x="430" y="730" on="1"/>
        <pt x="757" y="403" on="1"/>
        <pt x="757" y="253" on="1"/>
        <pt x="695" y="314" on="1"/>
        <pt x="695" y="0" on="1"/>
        <pt x="604" y="0" on="1"/>
        <pt x="604" y="406" on="1"/>
        <pt x="430" y="581" on="1"/>
        <pt x="255" y="406" on="1"/>
        <pt x="255" y="0" on="1"/>
        <pt x="164" y="0" on="1"/>
        <pt x="164" y="314" on="1"/>
        <pt x="102" y="253" on="1"/>
        <pt x="102" y="403" on="1"/>
      </contour>
    </TTGlyph>
    <TTGlyph name="six" xMin="73" yMin="-6" xMax="575" yMax="742">
      <contour>
        <pt x="351" y="649" on="1"/>
        <pt x="310" y="649" on="0"/>
        <pt x="250" y="613" on="0"/>
        <pt x="211" y="553" on="0"/>
        <pt x="191" y="475" on="0"/>
        <pt x="191" y="433" on="1"/>
        <pt x="192" y="434" on="0"/>
        <pt x="198" y="434" on="0"/>
        <pt x="199" y="435" on="1"/>
        <pt x="210" y="457" on="0"/>
        <pt x="272" y="492" on="0"/>
        <pt x="314" y="497" on="1"/>
        <pt x="314" y="409" on="1"/>
        <pt x="286" y="406" on="0"/>
        <pt x="240" y="381" on="0"/>
        <pt x="206" y="340" on="0"/>
        <pt x="186" y="285" on="0"/>
        <pt x="186" y="253" on="1"/>
        <pt x="186" y="220" on="0"/>
        <pt x="206" y="164" on="0"/>
        <pt x="240" y="122" on="0"/>
        <pt x="287" y="95" on="0"/>
        <pt x="314" y="92" on="1"/>
        <pt x="314" y="-6" on="1"/>
        <pt x="253" y="-3" on="0"/>
        <pt x="162" y="43" on="0"/>
        <pt x="101" y="122" on="0"/>
        <pt x="73" y="228" on="0"/>
        <pt x="73" y="291" on="1"/>
        <pt x="73" y="423" on="0"/>
        <pt x="121" y="598" on="0"/>
        <pt x="198" y="700" on="0"/>
        <pt x="293" y="742" on="0"/>
        <pt x="340" y="742" on="1"/>
        <pt x="396" y="742" on="0"/>
        <pt x="495" y="728" on="0"/>
        <pt x="530" y="705" on="1"/>
        <pt x="492" y="622" on="1"/>
        <pt x="464" y="640" on="0"/>
        <pt x="396" y="649" on="0"/>
      </contour>
      <contour>
        <pt x="355" y="499" on="1"/>
        <pt x="405" y="497" on="0"/>
        <pt x="487" y="454" on="0"/>
        <pt x="545" y="387" on="0"/>
        <pt x="575" y="304" on="0"/>
        <pt x="575" y="263" on="1"/>
        <pt x="575" y="192" on="0"/>
        <pt x="534" y="93" on="0"/>
        <pt x="468" y="31" on="0"/>
        <pt x="390" y="-1" on="0"/>
        <pt x="355" y="-5" on="1"/>
        <pt x="355" y="93" on="1"/>
        <pt x="405" y="103" on="0"/>
        <pt x="470" y="190" on="0"/>
        <pt x="470" y="253" on="1"/>
        <pt x="470" y="314" on="0"/>
        <pt x="406" y="398" on="0"/>
        <pt x="355" y="408" on="1"/>
      </contour>
    </TTGlyph>
    <TTGlyph name="slash" xMin="34" yMin="-22" xMax="422" yMax="799">
      <contour>
        <pt x="115" y="-22" on="1"/>
        <pt x="34" y="-22" on="1"/>
        <pt x="341" y="799" on="1"/>
        <pt x="422" y="799" on="1"/>
      </contour>
    </TTGlyph>
    <TTGlyph name="sterling" xMin="61" yMin="0" xMax="474" yMax="742">
      <contour>
        <pt x="61" y="82" on="1"/>
        <pt x="135" y="82" on="1"/>
        <pt x="135" y="400" on="1"/>
        <pt x="61" y="400" on="1"/>
        <pt x="61" y="482" on="1"/>
        <pt x="137" y="482" on="1"/>
        <pt x="137" y="516" on="0"/>
        <pt x="144" y="602" on="0"/>
        <pt x="179" y="680" on="0"/>
        <pt x="251" y="737" on="0"/>
        <pt x="315" y="742" on="1"/>
        <pt x="376" y="747" on="0"/>
        <pt x="457" y="725" on="0"/>
        <pt x="474" y="714" on="1"/>
        <pt x="434" y="638" on="1"/>
        <pt x="420" y="646" on="0"/>
        <pt x="361" y="654" on="0"/>
        <pt x="333" y="654" on="1"/>
        <pt x="301" y="654" on="0"/>
        <pt x="270" y="621" on="0"/>
        <pt x="259" y="568" on="0"/>
        <pt x="259" y="508" on="0"/>
        <pt x="259" y="482" on="1"/>
        <pt x="367" y="482" on="1"/>
        <pt x="367" y="400" on="1"/>
        <pt x="257" y="400" on="1"/>
        <pt x="257" y="82" on="1"/>
        <pt x="437" y="82" on="1"/>
        <pt x="437" y="0" on="1"/>
        <pt x="61" y="0" on="1"/>
      </contour>
    </TTGlyph>
    <TTGlyph name="t" xMin="52" yMin="-5" xMax="362" yMax="724">
      <contour>
        <pt x="247" y="171" on="1"/>
        <pt x="247" y="137" on="0"/>
        <pt x="265" y="99" on="0"/>
        <pt x="298" y="79" on="0"/>
        <pt x="339" y="74" on="0"/>
        <pt x="362" y="74" on="1"/>
        <pt x="362" y="0" on="1"/>
        <pt x="349" y="-2" on="0"/>
        <pt x="336" y="-3" on="1"/>
        <pt x="325" y="-4" on="0"/>
        <pt x="294" y="-5" on="0"/>
        <pt x="279" y="-5" on="1"/>
        <pt x="264" y="-5" on="0"/>
        <pt x="233" y="-3" on="0"/>
        <pt x="222" y="-1" on="1"/>
        <pt x="188" y="5" on="0"/>
        <pt x="150" y="52" on="0"/>
        <pt x="131" y="109" on="0"/>
        <pt x="126" y="163" on="0"/>
        <pt x="126" y="178" on="1"/>
        <pt x="126" y="482" on="1"/>
        <pt x="52" y="482" on="1"/>
        <pt x="52" y="564" on="1"/>
        <pt x="126" y="564" on="1"/>
        <pt x="126" y="724" on="1"/>
        <pt x="247" y="724" on="1"/>
        <pt x="247" y="564" on="1"/>
        <pt x="337" y="564" on="1"/>
        <pt x="337" y="482" on="1"/>
        <pt x="247" y="482" on="1"/>
      </contour>
    </TTGlyph>
    <TTGlyph name="thorn" xMin="86" yMin="-222" xMax="591" yMax="777">
      <contour>
        <pt x="86" y="777" on="1"/>
        <pt x="208" y="777" on="1"/>
        <pt x="208" y="-222" on="1"/>
        <pt x="86" y="-222" on="1"/>
      </contour>
      <contour>
        <pt x="579" y="393" on="1"/>
        <pt x="591" y="347" on="0"/>
        <pt x="591" y="290" on="1"/>
        <pt x="591" y="233" on="0"/>
        <pt x="564" y="126" on="0"/>
        <pt x="509" y="44" on="0"/>
        <pt x="426" y="-5" on="0"/>
        <pt x="370" y="-5" on="1"/>
        <pt x="335" y="-5" on="0"/>
        <pt x="272" y="11" on="0"/>
        <pt x="249" y="24" on="1"/>
        <pt x="249" y="128" on="1"/>
        <pt x="282" y="89" on="0"/>
        <pt x="330" y="89" on="1"/>
        <pt x="360" y="89" on="0"/>
        <pt x="409" y="119" on="0"/>
        <pt x="444" y="170" on="0"/>
        <pt x="464" y="241" on="0"/>
        <pt x="464" y="281" on="1"/>
        <pt x="464" y="320" on="0"/>
        <pt x="446" y="390" on="0"/>
        <pt x="413" y="444" on="0"/>
        <pt x="366" y="476" on="0"/>
        <pt x="335" y="476" on="1"/>
        <pt x="309" y="476" on="0"/>
        <pt x="266" y="455" on="0"/>
        <pt x="249" y="436" on="1"/>
        <pt x="249" y="542" on="1"/>
        <pt x="272" y="555" on="0"/>
        <pt x="328" y="569" on="0"/>
        <pt x="358" y="569" on="1"/>
        <pt x="391" y="569" on="0"/>
        <pt x="459" y="551" on="0"/>
        <pt x="518" y="509" on="0"/>
        <pt x="566" y="441" on="0"/>
      </contour>
    </TTGlyph>
    <TTGlyph name="three" xMin="74" yMin="-5" xMax="509" yMax="741">
      <contour>
        <pt x="367" y="388" on="1"/>
        <pt x="390" y="385" on="0"/>
        <pt x="439" y="361" on="0"/>
        <pt x="481" y="317" on="0"/>
        <pt x="509" y="254" on="0"/>
        <pt x="509" y="213" on="1"/>
        <pt x="509" y="163" on="0"/>
        <pt x="480" y="90" on="0"/>
        <pt x="436" y="42" on="0"/>
        <pt x="381" y="13" on="0"/>
        <pt x="329" y="-1" on="0"/>
        <pt x="286" y="-5" on="0"/>
        <pt x="274" y="-5" on="1"/>
        <pt x="190" y="-5" on="0"/>
        <pt x="93" y="18" on="0"/>
        <pt x="74" y="30" on="1"/>
        <pt x="101" y="116" on="1"/>
        <pt x="110" y="111" on="0"/>
        <pt x="126" y="99" on="0"/>
        <pt x="156" y="88" on="0"/>
        <pt x="210" y="81" on="0"/>
        <pt x="257" y="81" on="1"/>
        <pt x="326" y="81" on="0"/>
        <pt x="394" y="156" on="0"/>
        <pt x="394" y="213" on="1"/>
        <pt x="394" y="267" on="0"/>
        <pt x="332" y="341" on="0"/>
        <pt x="272" y="341" on="1"/>
        <pt x="170" y="341" on="1"/>
        <pt x="171" y="341" on="1"/>
        <pt x="170" y="422" on="1"/>
        <pt x="238" y="422" on="1"/>
        <pt x="260" y="422" on="0"/>
        <pt x="305" y="424" on="0"/>
        <pt x="345" y="444" on="0"/>
        <pt x="371" y="492" on="0"/>
        <pt x="371" y="537" on="1"/>
        <pt x="371" y="555" on="0"/>
        <pt x="365" y="595" on="0"/>
        <pt x="338" y="629" on="0"/>
        <pt x="286" y="650" on="0"/>
        <pt x="240" y="650" on="1"/>
        <pt x="194" y="650" on="0"/>
        <pt x="139" y="633" on="0"/>
        <pt x="125" y="628" on="1"/>
        <pt x="90" y="718" on="1"/>
        <pt x="114" y="725" on="0"/>
        <pt x="185" y="741" on="0"/>
        <pt x="252" y="741" on="1"/>
        <pt x="299" y="741" on="0"/>
        <pt x="383" y="718" on="0"/>
        <pt x="446" y="668" on="0"/>
        <pt x="483" y="590" on="0"/>
        <pt x="483" y="537" on="1"/>
        <pt x="483" y="506" on="0"/>
        <pt x="461" y="455" on="0"/>
        <pt x="427" y="417" on="0"/>
        <pt x="385" y="392" on="0"/>
      </contour>
    </TTGlyph>
    <TTGlyph name="tilde" xMin="30" yMin="643" xMax="383" yMax="770">
      <contour>
        <pt x="30" y="670" on="1"/>
        <pt x="37" y="687" on="0"/>
        <pt x="59" y="720" on="0"/>
        <pt x="88" y="746" on="0"/>
        <pt x="123" y="762" on="0"/>
        <pt x="143" y="762" on="1"/>
        <pt x="161" y="762" on="0"/>
        <pt x="198" y="752" on="0"/>
        <pt x="229" y="738" on="0"/>
        <pt x="259" y="728" on="0"/>
        <pt x="271" y="728" on="1"/>
        <pt x="288" y="728" on="0"/>
        <pt x="310" y="744" on="0"/>
        <pt x="318" y="770" on="1"/>
        <pt x="383" y="751" on="1"/>
        <pt x="371" y="707" on="0"/>
        <pt x="311" y="660" on="0"/>
        <pt x="271" y="660" on="1"/>
        <pt x="254" y="660" on="0"/>
        <pt x="221" y="671" on="0"/>
        <pt x="190" y="684" on="0"/>
        <pt x="160" y="694" on="0"/>
        <pt x="143" y="694" on="1"/>
        <pt x="127" y="694" on="0"/>
        <pt x="100" y="663" on="0"/>
        <pt x="91" y="643" on="1"/>
      </contour>
    </TTGlyph>
    <TTGlyph name="transport" xMin="140" yMin="-2" xMax="741" yMax="730">
      <contour>
        <pt x="140" y="588" on="1"/>
        <pt x="140" y="617" on="0"/>
        <pt x="141" y="669" on="0"/>
        <pt x="168" y="708" on="0"/>
        <pt x="228" y="730" on="0"/>
        <pt x="289" y="730" on="1"/>
        <pt x="420" y="730" on="1"/>
        <pt x="420" y="648" on="1"/>
        <pt x="331" y="648" on="1"/>
        <pt x="288" y="648" on="0"/>
        <pt x="242" y="631" on="0"/>
        <pt x="220" y="602" on="0"/>
        <pt x="217" y="565" on="0"/>
        <pt x="217" y="546" on="1"/>
        <pt x="217" y="540" on="0"/>
        <pt x="217" y="465" on="0"/>
        <pt x="216" y="390" on="1"/>
        <pt x="420" y="390" on="1"/>
        <pt x="420" y="104" on="1"/>
        <pt x="307" y="104" on="1"/>
        <pt x="307" y="40" on="1"/>
        <pt x="307" y="35" on="0"/>
        <pt x="306" y="20" on="0"/>
        <pt x="297" y="7" on="0"/>
        <pt x="279" y="-2" on="0"/>
        <pt x="260" y="-2" on="1"/>
        <pt x="234" y="-2" on="1"/>
        <pt x="219" y="-2" on="0"/>
        <pt x="202" y="8" on="0"/>
        <pt x="194" y="24" on="0"/>
        <pt x="191" y="42" on="0"/>
        <pt x="191" y="50" on="1"/>
        <pt x="191" y="104" on="1"/>
        <pt x="140" y="104" on="1"/>
      </contour>
      <contour>
        <pt x="611" y="730" on="1"/>
        <pt x="664" y="730" on="0"/>
        <pt x="718" y="706" on="0"/>
        <pt x="740" y="666" on="0"/>
        <pt x="741" y="614" on="0"/>
        <pt x="741" y="588" on="1"/>
        <pt x="741" y="104" on="1"/>
        <pt x="690" y="104" on="1"/>
        <pt x="690" y="40" on="1"/>
        <pt x="690" y="35" on="0"/>
        <pt x="689" y="20" on="0"/>
        <pt x="680" y="7" on="0"/>
        <pt x="660" y="-2" on="0"/>
        <pt x="643" y="-2" on="1"/>
        <pt x="616" y="-2" on="1"/>
        <pt x="601" y="-2" on="0"/>
        <pt x="584" y="8" on="0"/>
        <pt x="575" y="24" on="0"/>
        <pt x="574" y="42" on="0"/>
        <pt x="574" y="50" on="1"/>
        <pt x="574" y="104" on="1"/>
        <pt x="461" y="104" on="1"/>
        <pt x="461" y="390" on="1"/>
        <pt x="666" y="390" on="1"/>
        <pt x="666" y="548" on="1"/>
        <pt x="666" y="566" on="0"/>
        <pt x="663" y="602" on="0"/>
        <pt x="644" y="631" on="0"/>
        <pt x="603" y="648" on="0"/>
        <pt x="566" y="648" on="1"/>
        <pt x="461" y="648" on="1"/>
        <pt x="461" y="730" on="1"/>
      </contour>
    </TTGlyph>
    <TTGlyph name="two" xMin="79" yMin="0" xMax="545" yMax="742">
      <contour>
        <pt x="534" y="518" on="1"/>
        <pt x="534" y="479" on="0"/>
        <pt x="500" y="396" on="0"/>
        <pt x="444" y="315" on="0"/>
        <pt x="377" y="239" on="0"/>
        <pt x="310" y="171" on="0"/>
        <pt x="251" y="116" on="0"/>
        <pt x="232" y="97" on="1"/>
        <pt x="545" y="97" on="1"/>
        <pt x="545" y="0" on="1"/>
        <pt x="87" y="0" on="1"/>
        <pt x="87" y="112" on="1"/>
        <pt x="105" y="128" on="0"/>
        <pt x="169" y="183" on="0"/>
        <pt x="243" y="251" on="0"/>
        <pt x="317" y="328" on="0"/>
        <pt x="378" y="407" on="0"/>
        <pt x="417" y="483" on="0"/>
        <pt x="417" y="517" on="1"/>
        <pt x="417" y="552" on="0"/>
        <pt x="392" y="599" on="0"/>
        <pt x="354" y="629" on="0"/>
        <pt x="309" y="641" on="0"/>
        <pt x="289" y="641" on="1"/>
        <pt x="250" y="641" on="0"/>
        <pt x="199" y="636" on="0"/>
        <pt x="161" y="627" on="0"/>
        <pt x="131" y="611" on="0"/>
        <pt x="114" y="601" on="1"/>
        <pt x="79" y="675" on="1"/>
        <pt x="97" y="691" on="0"/>
        <pt x="150" y="717" on="0"/>
        <pt x="207" y="733" on="0"/>
        <pt x="263" y="742" on="0"/>
        <pt x="287" y="742" on="1"/>
        <pt x="352" y="742" on="0"/>
        <pt x="445" y="700" on="0"/>
        <pt x="505" y="635" on="0"/>
        <pt x="534" y="555" on="0"/>
      </contour>
    </TTGlyph>
    <TTGlyph name="u" xMin="82" yMin="-5" xMax="549" yMax="564">
      <contour>
        <pt x="204" y="257" on="1"/>
        <pt x="204" y="222" on="0"/>
        <pt x="210" y="161" on="0"/>
        <pt x="230" y="115" on="0"/>
        <pt x="270" y="87" on="0"/>
        <pt x="303" y="87" on="1"/>
        <pt x="316" y="87" on="0"/>
        <pt x="364" y="95" on="0"/>
        <pt x="386" y="104" on="1"/>
        <pt x="386" y="30" on="1"/>
        <pt x="360" y="16" on="0"/>
        <pt x="299" y="-5" on="0"/>
        <pt x="269" y="-5" on="1"/>
        <pt x="245" y="-5" on="0"/>
        <pt x="207" y="4" on="0"/>
        <pt x="174" y="23" on="0"/>
        <pt x="144" y="47" on="0"/>
        <pt x="129" y="62" on="1"/>
        <pt x="112" y="79" on="0"/>
        <pt x="92" y="124" on="0"/>
        <pt x="83" y="173" on="0"/>
        <pt x="82" y="223" on="0"/>
        <pt x="82" y="247" on="1"/>
        <pt x="82" y="564" on="1"/>
        <pt x="204" y="564" on="1"/>
      </contour>
      <contour>
        <pt x="549" y="564" on="1"/>
        <pt x="549" y="0" on="1"/>
        <pt x="440" y="0" on="1"/>
        <pt x="427" y="58" on="1"/>
        <pt x="427" y="564" on="1"/>
      </contour>
    </TTGlyph>
    <TTGlyph name="uacute" xMin="82" yMin="-5" xMax="549" yMax="777">
      <component glyphName="u" x="0" y="0" flags="0x1204"/>
      <component glyphName="acute" x="199" y="0" flags="0x1004"/>
    </TTGlyph>
    <TTGlyph name="ucircumflex" xMin="82" yMin="-5" xMax="549" yMax="777">
      <component glyphName="u" x="0" y="0" flags="0x1204"/>
      <component glyphName="circumflex" x="139" y="0" flags="0x1004"/>
    </TTGlyph>
    <TTGlyph name="udieresis" xMin="82" yMin="-5" xMax="549" yMax="782">
      <component glyphName="u" x="0" y="0" flags="0x1204"/>
      <component glyphName="dieresis" x="88" y="0" flags="0x1004"/>
    </TTGlyph>
    <TTGlyph name="ugrave" xMin="82" yMin="-5" xMax="549" yMax="777">
      <component glyphName="u" x="0" y="0" flags="0x1204"/>
      <component glyphName="grave" x="199" y="0" flags="0x1004"/>
    </TTGlyph>
    <TTGlyph name="up" xMin="84" yMin="0" xMax="738" yMax="742">
      <contour>
        <pt x="738" y="214" on="1"/>
        <pt x="412" y="542" on="1"/>
        <pt x="84" y="214" on="1"/>
        <pt x="84" y="416" on="1"/>
        <pt x="411" y="742" on="1"/>
        <pt x="738" y="415" on="1"/>
      </contour>
      <contour>
        <pt x="472" y="423" on="1"/>
        <pt x="472" y="0" on="1"/>
        <pt x="350" y="0" on="1"/>
        <pt x="350" y="423" on="1"/>
        <pt x="412" y="483" on="1"/>
      </contour>
    </TTGlyph>
    <TTGlyph name="upleft" xMin="131" yMin="0" xMax="736" yMax="604">
      <contour>
        <pt x="736" y="463" on="1"/>
        <pt x="273" y="463" on="1"/>
        <pt x="273" y="0" on="1"/>
        <pt x="131" y="142" on="1"/>
        <pt x="131" y="604" on="1"/>
        <pt x="594" y="604" on="1"/>
      </contour>
      <contour>
        <pt x="400" y="422" on="1"/>
        <pt x="699" y="123" on="1"/>
        <pt x="613" y="37" on="1"/>
        <pt x="314" y="336" on="1"/>
        <pt x="314" y="422" on="1"/>
      </contour>
    </TTGlyph>
    <TTGlyph name="upright" xMin="90" yMin="-1" xMax="694" yMax="604">
      <contour>
        <pt x="553" y="-1" on="1"/>
        <pt x="553" y="462" on="1"/>
        <pt x="90" y="462" on="1"/>
        <pt x="232" y="604" on="1"/>
        <pt x="694" y="604" on="1"/>
        <pt x="694" y="141" on="1"/>
      </contour>
      <contour>
        <pt x="512" y="335" on="1"/>
        <pt x="213" y="36" on="1"/>
        <pt x="127" y="122" on="1"/>
        <pt x="426" y="421" on="1"/>
        <pt x="512" y="421" on="1"/>
      </contour>
    </TTGlyph>
    <TTGlyph name="v" xMin="59" yMin="-4" xMax="612" yMax="564">
      <contour>
        <pt x="59" y="564" on="1"/>
        <pt x="196" y="564" on="1"/>
        <pt x="315" y="163" on="1"/>
        <pt x="315" y="-4" on="1"/>
        <pt x="257" y="-4" on="1"/>
      </contour>
      <contour>
        <pt x="476" y="564" on="1"/>
        <pt x="612" y="564" on="1"/>
        <pt x="414" y="-4" on="1"/>
        <pt x="356" y="-4" on="1"/>
        <pt x="356" y="163" on="1"/>
      </contour>
    </TTGlyph>
    <TTGlyph name="w" xMin="72" yMin="-4" xMax="862" yMax="564">
      <contour>
        <pt x="731" y="564" on="1"/>
        <pt x="862" y="564" on="1"/>
        <pt x="703" y="-4" on="1"/>
        <pt x="547" y="-4" on="1"/>
        <pt x="487" y="229" on="1"/>
        <pt x="487" y="564" on="1"/>
        <pt x="531" y="564" on="1"/>
        <pt x="626" y="94" on="1"/>
      </contour>
      <contour>
        <pt x="295" y="94" on="1"/>
        <pt x="400" y="564" on="1"/>
        <pt x="446" y="564" on="1"/>
        <pt x="446" y="259" on="1"/>
        <pt x="374" y="-4" on="1"/>
        <pt x="217" y="-4" on="1"/>
        <pt x="72" y="564" on="1"/>
        <pt x="202" y="564" on="1"/>
      </contour>
    </TTGlyph>
    <TTGlyph name="water" xMin="102" yMin="-10" xMax="614" yMax="742">
      <contour>
        <pt x="359" y="742" on="1"/>
        <pt x="408" y="693" on="0"/>
        <pt x="501" y="573" on="0"/>
        <pt x="571" y="447" on="0"/>
        <pt x="614" y="319" on="0"/>
        <pt x="614" y="261" on="1"/>
        <pt x="614" y="203" on="0"/>
        <pt x="579" y="103" on="0"/>
        <pt x="512" y="31" on="0"/>
        <pt x="418" y="-10" on="0"/>
        <pt x="359" y="-10" on="1"/>
        <pt x="301" y="-10" on="0"/>
        <pt x="206" y="31" on="0"/>
        <pt x="138" y="103" on="0"/>
        <pt x="102" y="203" on="0"/>
        <pt x="102" y="261" on="1"/>
        <pt x="102" y="319" on="0"/>
        <pt x="145" y="447" on="0"/>
        <pt x="217" y="573" on="0"/>
        <pt x="309" y="693" on="0"/>
      </contour>
    </TTGlyph>
    <TTGlyph name="woman" xMin="96" yMin="0" xMax="373" yMax="785">
      <contour>
        <pt x="96" y="334" on="1"/>
        <pt x="96" y="535" on="1"/>
        <pt x="96" y="547" on="0"/>
        <pt x="97" y="567" on="0"/>
        <pt x="106" y="583" on="0"/>
        <pt x="127" y="592" on="0"/>
        <pt x="147" y="594" on="1"/>
        <pt x="147" y="334" on="1"/>
      </contour>
      <contour>
        <pt x="236" y="642" on="1"/>
        <pt x="206" y="642" on="0"/>
        <pt x="164" y="684" on="0"/>
        <pt x="164" y="714" on="1"/>
        <pt x="164" y="744" on="0"/>
        <pt x="206" y="785" on="0"/>
        <pt x="236" y="785" on="1"/>
        <pt x="266" y="785" on="0"/>
        <pt x="307" y="743" on="0"/>
        <pt x="307" y="714" on="1"/>
        <pt x="307" y="684" on="0"/>
        <pt x="266" y="642" on="0"/>
      </contour>
      <contour>
        <pt x="286" y="398" on="1"/>
        <pt x="342" y="184" on="1"/>
        <pt x="282" y="184" on="1"/>
        <pt x="273" y="0" on="1"/>
        <pt x="197" y="0" on="1"/>
        <pt x="188" y="184" on="1"/>
        <pt x="128" y="184" on="1"/>
        <pt x="184" y="398" on="1"/>
        <pt x="184" y="434" on="1"/>
        <pt x="161" y="535" on="1"/>
        <pt x="161" y="595" on="1"/>
        <pt x="165" y="595" on="1"/>
        <pt x="309" y="595" on="1"/>
        <pt x="309" y="535" on="1"/>
        <pt x="286" y="433" on="1"/>
      </contour>
      <contour>
        <pt x="323" y="595" on="1"/>
        <pt x="340" y="594" on="0"/>
        <pt x="359" y="585" on="0"/>
        <pt x="370" y="571" on="0"/>
        <pt x="373" y="554" on="0"/>
        <pt x="373" y="545" on="1"/>
        <pt x="373" y="334" on="1"/>
        <pt x="323" y="334" on="1"/>
      </contour>
    </TTGlyph>
    <TTGlyph name="x" xMin="77" yMin="0" xMax="604" yMax="564">
      <contour>
        <pt x="77" y="564" on="1"/>
        <pt x="214" y="564" on="1"/>
        <pt x="319" y="379" on="1"/>
        <pt x="319" y="169" on="1"/>
        <pt x="217" y="0" on="1"/>
        <pt x="78" y="0" on="1"/>
        <pt x="262" y="283" on="1"/>
      </contour>
      <contour>
        <pt x="604" y="564" on="1"/>
        <pt x="419" y="283" on="1"/>
        <pt x="603" y="0" on="1"/>
        <pt x="464" y="0" on="1"/>
        <pt x="360" y="182" on="1"/>
        <pt x="360" y="395" on="1"/>
        <pt x="467" y="564" on="1"/>
      </contour>
    </TTGlyph>
    <TTGlyph name="y" xMin="76" yMin="-252" xMax="630" yMax="564">
      <contour>
        <pt x="630" y="564" on="1"/>
        <pt x="575" y="417" on="0"/>
        <pt x="489" y="190" on="0"/>
        <pt x="425" y="19" on="0"/>
        <pt x="376" y="-99" on="0"/>
        <pt x="335" y="-178" on="0"/>
        <pt x="299" y="-223" on="0"/>
        <pt x="261" y="-247" on="0"/>
        <pt x="216" y="-252" on="0"/>
        <pt x="187" y="-252" on="1"/>
        <pt x="178" y="-252" on="0"/>
        <pt x="154" y="-247" on="0"/>
        <pt x="131" y="-240" on="0"/>
        <pt x="113" y="-233" on="0"/>
        <pt x="110" y="-232" on="1"/>
        <pt x="114" y="-214" on="0"/>
        <pt x="118" y="-198" on="1"/>
        <pt x="121" y="-184" on="0"/>
        <pt x="128" y="-159" on="0"/>
        <pt x="130" y="-154" on="1"/>
        <pt x="138" y="-154" on="0"/>
        <pt x="171" y="-164" on="0"/>
        <pt x="179" y="-164" on="1"/>
        <pt x="195" y="-164" on="0"/>
        <pt x="220" y="-161" on="0"/>
        <pt x="240" y="-146" on="0"/>
        <pt x="258" y="-117" on="0"/>
        <pt x="269" y="-90" on="1"/>
        <pt x="307" y="0" on="1"/>
        <pt x="508" y="564" on="1"/>
      </contour>
      <contour>
        <pt x="286" y="53" on="1"/>
        <pt x="76" y="564" on="1"/>
        <pt x="197" y="564" on="1"/>
        <pt x="341" y="185" on="1"/>
        <pt x="327" y="151" on="1"/>
      </contour>
    </TTGlyph>
    <TTGlyph name="yacute" xMin="76" yMin="-252" xMax="630" yMax="777">
      <component glyphName="y" x="0" y="0" flags="0x1204"/>
      <component glyphName="acute" x="218" y="0" flags="0x1004"/>
    </TTGlyph>
    <TTGlyph name="ydieresis" xMin="76" yMin="-252" xMax="630" yMax="782">
      <component glyphName="y" x="0" y="0" flags="0x1204"/>
      <component glyphName="dieresis" x="108" y="0" flags="0x1004"/>
    </TTGlyph>
    <TTGlyph name="yen" xMin="58" yMin="0" xMax="607" yMax="737">
      <contour>
        <pt x="607" y="737" on="1"/>
        <pt x="452" y="427" on="1"/>
        <pt x="562" y="427" on="1"/>
        <pt x="562" y="345" on="1"/>
        <pt x="411" y="345" on="1"/>
        <pt x="404" y="331" on="1"/>
        <pt x="247" y="331" on="1"/>
        <pt x="241" y="345" on="1"/>
        <pt x="102" y="345" on="1"/>
        <pt x="102" y="427" on="1"/>
        <pt x="203" y="427" on="1"/>
        <pt x="58" y="737" on="1"/>
        <pt x="196" y="737" on="1"/>
        <pt x="323" y="407" on="1"/>
        <pt x="333" y="407" on="1"/>
        <pt x="470" y="737" on="1"/>
      </contour>
      <contour>
        <pt x="388" y="290" on="1"/>
        <pt x="388" y="284" on="1"/>
        <pt x="562" y="284" on="1"/>
        <pt x="562" y="202" on="1"/>
        <pt x="388" y="202" on="1"/>
        <pt x="388" y="0" on="1"/>
        <pt x="266" y="0" on="1"/>
        <pt x="266" y="202" on="1"/>
        <pt x="102" y="202" on="1"/>
        <pt x="102" y="284" on="1"/>
        <pt x="266" y="284" on="1"/>
        <pt x="266" y="290" on="1"/>
      </contour>
    </TTGlyph>
    <TTGlyph name="z" xMin="86" yMin="0" xMax="515" yMax="564">
      <contour>
        <pt x="86" y="564" on="1"/>
        <pt x="515" y="564" on="1"/>
        <pt x="515" y="467" on="1"/>
        <pt x="225" y="113" on="1"/>
        <pt x="205" y="97" on="1"/>
        <pt x="515" y="97" on="1"/>
        <pt x="515" y="0" on="1"/>
        <pt x="86" y="0" on="1"/>
        <pt x="86" y="97" on="1"/>
        <pt x="376" y="451" on="1"/>
        <pt x="396" y="467" on="1"/>
        <pt x="86" y="467" on="1"/>
      </contour>
    </TTGlyph>
    <TTGlyph name="zcaron" xMin="86" yMin="0" xMax="515" yMax="777">
      <component glyphName="z" x="0" y="0" flags="0x1204"/>
      <component glyphName="caron" x="124" y="0" flags="0x1004"/>
    </TTGlyph>
    <TTGlyph name="zero" xMin="74" yMin="-5" xMax="639" yMax="749">
      <contour>
        <pt x="359" y="650" on="1"/>
        <pt x="322" y="650" on="0"/>
        <pt x="262" y="622" on="0"/>
        <pt x="220" y="555" on="0"/>
        <pt x="197" y="449" on="0"/>
        <pt x="196" y="372" on="1"/>
        <pt x="197" y="311" on="0"/>
        <pt x="211" y="217" on="0"/>
        <pt x="225" y="184" on="1"/>
        <pt x="170" y="67" on="1"/>
        <pt x="124" y="114" on="0"/>
        <pt x="74" y="265" on="0"/>
        <pt x="74" y="372" on="1"/>
        <pt x="74" y="465" on="0"/>
        <pt x="113" y="606" on="0"/>
        <pt x="186" y="700" on="0"/>
        <pt x="291" y="749" on="0"/>
        <pt x="356" y="749" on="1"/>
        <pt x="425" y="749" on="0"/>
        <pt x="477" y="723" on="1"/>
        <pt x="433" y="629" on="1"/>
        <pt x="400" y="650" on="0"/>
      </contour>
      <contour>
        <pt x="539" y="680" on="1"/>
        <pt x="588" y="634" on="0"/>
        <pt x="639" y="480" on="0"/>
        <pt x="639" y="372" on="1"/>
        <pt x="639" y="279" on="0"/>
        <pt x="600" y="137" on="0"/>
        <pt x="526" y="43" on="0"/>
        <pt x="422" y="-5" on="0"/>
        <pt x="356" y="-5" on="1"/>
        <pt x="285" y="-5" on="0"/>
        <pt x="230" y="23" on="1"/>
        <pt x="275" y="118" on="1"/>
        <pt x="306" y="93" on="0"/>
        <pt x="353" y="93" on="1"/>
        <pt x="390" y="93" on="0"/>
        <pt x="451" y="122" on="0"/>
        <pt x="493" y="188" on="0"/>
        <pt x="516" y="295" on="0"/>
        <pt x="517" y="372" on="1"/>
        <pt x="516" y="435" on="0"/>
        <pt x="500" y="529" on="0"/>
        <pt x="485" y="562" on="1"/>
        <pt x="484" y="563" on="0"/>
        <pt x="484" y="564" on="1"/>
      </contour>
    </TTGlyph>
</ttFont>
